<svg width="21" height="21" viewBox="0 0 21 21" fill="none" xmlns="http://www.w3.org/2000/svg">
<g id="shopping-bag-2 1">
<g id="_01">
<g id="Group">
<path id="Vector" d="M15.5248 19.5662H5.35487C3.20354 19.5662 1.44336 17.8061 1.44336 15.6547V15.5243L1.83451 5.09363C1.8997 2.9423 3.65988 1.3125 5.74603 1.3125H15.1337C17.2198 1.3125 18.98 2.9423 19.0452 5.09363L19.4363 15.5243C19.5015 16.5674 19.1104 17.5453 18.3933 18.3276C17.6761 19.1099 16.6983 19.5662 15.6552 19.5662C15.6552 19.5662 15.59 19.5662 15.5248 19.5662ZM5.74603 2.61634C4.3118 2.61634 3.20354 3.7246 3.13835 5.09363L2.7472 15.6547C2.7472 17.0889 3.92065 18.2624 5.35487 18.2624H15.6552C16.3723 18.2624 17.0242 17.9364 17.4806 17.4149C17.9369 16.8934 18.1977 16.2414 18.1977 15.5243L17.8065 5.09363C17.7413 3.65941 16.6331 2.61634 15.1989 2.61634H5.74603Z" fill="black"/>
</g>
<g id="Group_2">
<path id="Vector_2" d="M10.4401 9.13576C7.8976 9.13576 5.87665 7.11481 5.87665 4.57233C5.87665 4.18118 6.13742 3.92041 6.52857 3.92041C6.91972 3.92041 7.18049 4.18118 7.18049 4.57233C7.18049 6.3977 8.61471 7.83192 10.4401 7.83192C12.2655 7.83192 13.6997 6.3977 13.6997 4.57233C13.6997 4.18118 13.9604 3.92041 14.3516 3.92041C14.7427 3.92041 15.0035 4.18118 15.0035 4.57233C15.0035 7.11481 12.9826 9.13576 10.4401 9.13576Z" fill="black"/>
</g>
</g>
</g>
</svg>
