<svg width="11" height="6" viewBox="0 0 11 6" fill="none" xmlns="http://www.w3.org/2000/svg">
<path id="Vector" d="M10.4553 0.749404C10.4559 0.848109 10.437 0.945956 10.3997 1.03733C10.3624 1.12871 10.3074 1.21182 10.2378 1.2819L5.73784 5.78191C5.59732 5.92159 5.40723 6 5.20909 6C5.01095 6 4.82087 5.92159 4.68034 5.78191L0.180343 1.2819C0.0574728 1.13843 -0.00673175 0.953872 0.000559108 0.765115C0.00784997 0.576357 0.0860989 0.397304 0.21967 0.263732C0.353241 0.130162 0.532295 0.0519118 0.721052 0.044621C0.90981 0.0373301 1.09437 0.101535 1.23784 0.224405L5.20534 4.19191L9.17285 0.224404C9.2773 0.119088 9.41064 0.0471101 9.556 0.017571C9.70136 -0.0119681 9.85221 0.0022593 9.98948 0.0584536C10.1268 0.114648 10.2443 0.210285 10.3272 0.333273C10.4101 0.45626 10.4547 0.601075 10.4553 0.749404Z" fill="black"/>
</svg>
