<svg width="22" height="23" viewBox="0 0 22 23" fill="none" xmlns="http://www.w3.org/2000/svg">
<g id="Home">
<path id="Vector" d="M18.8531 9.69424C18.4498 9.2273 17.8626 8.96554 17.2471 8.96554H17.1834C16.8297 5.78893 14.1271 3.30566 10.8585 3.30566C7.58995 3.30566 4.88736 5.78893 4.53362 8.96554H4.49117C3.87566 8.96554 3.28845 9.23438 2.88518 9.69424C2.48192 10.1612 2.30505 10.7767 2.38994 11.3851L3.13988 16.6347C3.43702 18.7147 5.24111 20.2782 7.34233 20.2782H14.3959C16.4972 20.2782 18.3013 18.7147 18.5984 16.6347L19.3483 11.3851C19.4332 10.7767 19.2564 10.1612 18.8531 9.69424ZM10.8585 4.72063C13.3489 4.72063 15.4077 6.56717 15.7543 8.96554H5.96274C6.30941 6.56717 8.36819 4.72063 10.8585 4.72063Z" fill="#4A74EA"/>
</g>
</svg>
