<svg width="22" height="23" viewBox="0 0 22 23" fill="none" xmlns="http://www.w3.org/2000/svg">
<g id="Home">
<g id="Group">
<path id="Vector" d="M12.291 8.17049V3.53799C12.9463 3.78544 13.5414 4.16934 14.0371 4.66424L16.5049 7.13349C17.0004 7.62853 17.3846 8.22354 17.6319 8.87882H12.9993C12.8115 8.87882 12.6313 8.8042 12.4985 8.67136C12.3656 8.53852 12.291 8.35835 12.291 8.17049ZM17.9577 10.639V16.6705C17.9566 17.6095 17.5831 18.5096 16.9191 19.1736C16.2552 19.8375 15.355 20.211 14.416 20.2122H7.33268C6.39372 20.211 5.49354 19.8375 4.82959 19.1736C4.16564 18.5096 3.79214 17.6095 3.79102 16.6705V6.75382C3.79214 5.81486 4.16564 4.91468 4.82959 4.25073C5.49354 3.58678 6.39372 3.21328 7.33268 3.21216L10.5308 3.21216C10.6463 3.21216 10.7603 3.22137 10.8743 3.22916V8.17049C10.8743 8.73408 11.0982 9.27458 11.4967 9.67309C11.8953 10.0716 12.4358 10.2955 12.9993 10.2955H17.9407C17.9485 10.4095 17.9577 10.5236 17.9577 10.639ZM12.291 16.6705C12.291 16.4826 12.2164 16.3025 12.0835 16.1696C11.9507 16.0368 11.7705 15.9622 11.5827 15.9622H8.04102C7.85315 15.9622 7.67299 16.0368 7.54015 16.1696C7.40731 16.3025 7.33268 16.4826 7.33268 16.6705C7.33268 16.8584 7.40731 17.0385 7.54015 17.1714C7.67299 17.3042 7.85315 17.3788 8.04102 17.3788H11.5827C11.7705 17.3788 11.9507 17.3042 12.0835 17.1714C12.2164 17.0385 12.291 16.8584 12.291 16.6705ZM14.416 13.8372C14.416 13.6493 14.3414 13.4691 14.2086 13.3363C14.0757 13.2035 13.8955 13.1288 13.7077 13.1288H8.04102C7.85315 13.1288 7.67299 13.2035 7.54015 13.3363C7.40731 13.4691 7.33268 13.6493 7.33268 13.8372C7.33268 14.025 7.40731 14.2052 7.54015 14.338C7.67299 14.4709 7.85315 14.5455 8.04102 14.5455H13.7077C13.8955 14.5455 14.0757 14.4709 14.2086 14.338C14.3414 14.2052 14.416 14.025 14.416 13.8372Z" fill="#858585"/>
</g>
</g>
</svg>
