<svg width="29" height="27" viewBox="0 0 29 27" fill="none" xmlns="http://www.w3.org/2000/svg">
<g clip-path="url(#clip0_3585_1849)">
<path d="M18.8098 15.9243C18.4769 16.1554 18.1715 16.4229 17.8998 16.7223C16.8288 16.1813 15.4996 15.8303 13.9437 15.8303C9.34922 15.8303 6.73555 18.8821 6.73555 20.7387C6.73555 21.0497 6.89141 21.1604 7.33301 21.1604H16.2906C16.3067 21.5542 16.3686 21.9362 16.4719 22.3021H7.63457C6.2042 22.3021 5.52656 21.8531 5.52656 20.8606C5.52656 18.3142 8.73174 14.6856 13.9437 14.6856C15.8564 14.6856 17.4995 15.1756 18.8098 15.9243ZM18.0564 8.86065C18.0564 11.356 16.2315 13.3499 13.9527 13.3499C11.6739 13.3499 9.84903 11.3627 9.84903 8.87412C9.84903 6.4542 11.6958 4.47949 13.9527 4.47949C16.2171 4.47949 18.0564 6.42422 18.0564 8.86065ZM11.058 8.87412C11.058 10.751 12.3635 12.2083 13.9527 12.2083C15.5487 12.2083 16.8475 10.7405 16.8475 8.86065C16.8475 7.03965 15.544 5.6211 13.9527 5.6211C12.3621 5.6211 11.058 7.06289 11.058 8.87412Z" fill="#1C2B55"/>
<path opacity="0.5" d="M27.1203 20.802C27.1203 23.4556 24.9024 25.6569 22.2653 25.6569C19.6013 25.6569 17.4104 23.469 17.4104 20.802C17.4104 18.1379 19.6013 15.947 22.2653 15.947C24.9257 15.947 27.1203 18.1349 27.1203 20.802ZM19.7011 20.2752C19.4145 20.2752 19.1743 20.5221 19.1743 20.802C19.1743 21.0751 19.4145 21.322 19.7011 21.322H24.8235C25.1034 21.322 25.3436 21.0751 25.3436 20.802C25.3436 20.5221 25.1034 20.2752 24.8235 20.2752H19.7011Z" fill="#1C2B55"/>
</g>
<defs>
<clipPath id="clip0_3585_1849">
<rect width="28.2517" height="26.7883" fill="white"/>
</clipPath>
</defs>
</svg>
