<svg width="5" height="9" viewBox="0 0 5 9" fill="none" xmlns="http://www.w3.org/2000/svg">
<path id="Vector" d="M0.572308 0.10615C0.647833 0.105665 0.722701 0.121758 0.79262 0.153508C0.862539 0.185256 0.926133 0.232038 0.979755 0.291168L4.42297 4.1191C4.52985 4.23863 4.58984 4.40033 4.58984 4.56888C4.58984 4.73743 4.52985 4.89913 4.42297 5.01866L0.979756 8.84659C0.869974 8.95111 0.728759 9.00573 0.58433 8.99952C0.4399 8.99332 0.302896 8.92676 0.200693 8.81314C0.0984902 8.69952 0.0386166 8.5472 0.0330381 8.38664C0.0274591 8.22607 0.0765862 8.06908 0.170601 7.94703L3.20637 4.57207L0.1706 1.19711C0.0900167 1.10826 0.034942 0.994834 0.0123404 0.871184C-0.0102617 0.747533 0.000624474 0.619208 0.0436218 0.502435C0.0866192 0.385663 0.159797 0.285687 0.253902 0.215148C0.348007 0.144611 0.458812 0.106679 0.572308 0.10615Z" fill="#3C50A0"/>
</svg>
