<svg width="18" height="15" viewBox="0 0 18 15" fill="none" xmlns="http://www.w3.org/2000/svg">
<g id="Frame" clip-path="url(#clip0_2332_15263)">
<g id="Group">
<path id="Vector" d="M2.58715 13.8206H15.0023C16.4741 13.8206 17.247 13.0589 17.247 11.5996V4.42339C17.247 2.96412 16.4741 2.20803 15.0023 2.20803H13.1277C12.5911 2.20803 12.4171 2.11091 12.0885 1.76528L11.5475 1.17933C11.1908 0.805658 10.8334 0.615265 10.1364 0.615265H7.41386C6.71807 0.615265 6.35945 0.805658 6.00396 1.17933L5.46179 1.76528C5.13311 2.10531 4.95475 2.20803 4.42256 2.20803H2.58715C1.11106 2.20803 0.34375 2.96412 0.34375 4.42339V11.5996C0.34375 13.0589 1.11106 13.8206 2.58715 13.8206ZM2.66484 12.4808C2.04018 12.4808 1.6836 12.1515 1.6836 11.4871V4.54156C1.6836 3.8771 2.04018 3.54788 2.66484 3.54788H4.81059C5.42608 3.54788 5.74641 3.43778 6.09081 3.05972L6.61071 2.48376C6.99313 2.06207 7.20568 1.95512 7.80133 1.95512H9.74892C10.3458 1.95512 10.5571 2.06331 10.9346 2.48007L11.4607 3.05972C11.8051 3.43654 12.1254 3.54788 12.7397 3.54788H14.9191C15.5505 3.54788 15.9071 3.8771 15.9071 4.54156V11.4871C15.9071 12.1515 15.5505 12.4808 14.9191 12.4808H2.66484ZM8.79477 11.5698C10.8404 11.5698 12.485 9.9308 12.485 7.86717C12.485 5.81031 10.846 4.17131 8.79477 4.17131C6.74597 4.17131 5.10015 5.81031 5.10015 7.86717C5.10015 9.9308 6.74597 11.5698 8.79477 11.5698ZM8.79477 10.3482C7.43256 10.3482 6.31622 9.24738 6.31622 7.86717C6.31622 6.49131 7.42696 5.38738 8.79477 5.38738C10.165 5.38738 11.2689 6.49131 11.2689 7.86717C11.2689 9.24738 10.165 10.3482 8.79477 10.3482ZM12.7223 5.41201C12.7223 5.90796 13.1313 6.29887 13.616 6.29887C14.0939 6.29887 14.4972 5.90235 14.4972 5.41201C14.4972 4.94095 14.0926 4.53076 13.616 4.53076C13.1325 4.53076 12.7223 4.94095 12.7223 5.41201Z" fill="#F6F6F6"/>
</g>
</g>
<defs>
<clipPath id="clip0_2332_15263">
<rect width="17.1562" height="13.6319" fill="white" transform="translate(0.34375 0.615265)"/>
</clipPath>
</defs>
</svg>
