<svg width="18" height="19" viewBox="0 0 18 19" fill="none" xmlns="http://www.w3.org/2000/svg">
<path d="M8.78165 18.0281C7.59636 18.0281 6.48095 17.8017 5.43543 17.3488C4.38992 16.9015 3.4674 16.2781 2.66789 15.4786C1.87396 14.6791 1.25057 13.7566 0.797695 12.7111C0.344823 11.6656 0.118387 10.5502 0.118387 9.36486C0.118387 8.17957 0.344823 7.06416 0.797695 6.01864C1.25057 4.97313 1.87396 4.0534 2.66789 3.25948C3.4674 2.45997 4.38712 1.83377 5.42705 1.3809C6.47257 0.928032 7.58797 0.701596 8.77327 0.701596C9.96415 0.701596 11.0824 0.928032 12.1279 1.3809C13.1734 1.83377 14.0959 2.45997 14.8954 3.25948C15.6949 4.0534 16.3211 4.97313 16.774 6.01864C17.2269 7.06416 17.4533 8.17957 17.4533 9.36486C17.4533 10.5502 17.2269 11.6656 16.774 12.7111C16.3211 13.7566 15.6949 14.6791 14.8954 15.4786C14.0959 16.2781 13.1734 16.9015 12.1279 17.3488C11.0824 17.8017 9.96695 18.0281 8.78165 18.0281ZM8.78165 16.3173C9.7489 16.3173 10.6518 16.1384 11.4905 15.7805C12.3291 15.4227 13.0672 14.9251 13.7045 14.2877C14.3419 13.6504 14.8395 12.9124 15.1973 12.0737C15.5552 11.2351 15.7341 10.3321 15.7341 9.36486C15.7341 8.40321 15.5552 7.50306 15.1973 6.6644C14.8395 5.82016 14.3419 5.07935 13.7045 4.44198C13.0672 3.8046 12.3264 3.30701 11.4821 2.94918C10.6435 2.59136 9.74051 2.41244 8.77327 2.41244C7.81161 2.41244 6.90867 2.59136 6.06442 2.94918C5.22577 3.30701 4.49055 3.8046 3.85877 4.44198C3.22699 5.07935 2.73218 5.82016 2.37436 6.6644C2.01653 7.50306 1.83762 8.40321 1.83762 9.36486C1.83762 10.3321 2.01653 11.2351 2.37436 12.0737C2.73218 12.9124 3.22699 13.6504 3.85877 14.2877C4.49615 14.9251 5.23416 15.4227 6.07281 15.7805C6.91705 16.1384 7.82 16.3173 8.78165 16.3173ZM14.3755 14.9C13.8443 15.3864 13.2461 15.7945 12.5807 16.1244C11.9154 16.4598 11.2501 16.7142 10.5848 16.8876C9.91942 17.0609 9.31839 17.1475 8.78165 17.1475C8.25051 17.1475 7.64947 17.0609 6.97855 16.8876C6.31322 16.7142 5.64789 16.4598 4.98256 16.1244C4.31723 15.7945 3.72179 15.3864 3.19624 14.9L3.22978 14.749C3.40869 14.3409 3.74975 13.9467 4.25294 13.5665C4.76172 13.1807 5.40189 12.8676 6.17345 12.6272C6.94501 12.3812 7.81441 12.2582 8.78165 12.2582C9.76008 12.2582 10.6323 12.3812 11.3982 12.6272C12.1698 12.8676 12.8072 13.1807 13.3104 13.5665C13.8191 13.9467 14.163 14.3437 14.3419 14.7574L14.3755 14.9ZM8.78165 10.8744C8.24492 10.8688 7.7585 10.7291 7.3224 10.4551C6.8863 10.1756 6.53966 9.79816 6.28247 9.32293C6.03088 8.8421 5.90228 8.30257 5.89669 7.70433C5.8911 7.14523 6.0169 6.63086 6.27409 6.16121C6.53127 5.68598 6.87791 5.30579 7.31401 5.02065C7.7557 4.73551 8.24492 4.59294 8.78165 4.59294C9.32398 4.59294 9.8104 4.73551 10.2409 5.02065C10.677 5.30579 11.0236 5.68598 11.2808 6.16121C11.5436 6.63086 11.675 7.14523 11.675 7.70433C11.675 8.30257 11.5464 8.8449 11.2892 9.33132C11.032 9.81214 10.6854 10.1923 10.2493 10.4719C9.81319 10.7458 9.32398 10.88 8.78165 10.8744Z" fill="#007AFF"/>
</svg>
