<svg width="16" height="16" viewBox="0 0 16 16" fill="none" xmlns="http://www.w3.org/2000/svg">
<path d="M2.11512 7.46797C1.51129 7.46797 1.05842 7.31701 0.756504 7.01509C0.460181 6.71318 0.312019 6.24913 0.312019 5.62293V2.12576C0.312019 1.49957 0.460181 1.03831 0.756504 0.741984C1.05842 0.440069 1.51129 0.289112 2.11512 0.289112H5.67939C6.28321 0.289112 6.73609 0.440069 7.038 0.741984C7.33991 1.03831 7.49087 1.49957 7.49087 2.12576V5.62293C7.49087 6.24913 7.33991 6.71318 7.038 7.01509C6.73609 7.31701 6.28321 7.46797 5.67939 7.46797H2.11512ZM2.13189 6.08419H5.66261C5.80798 6.08419 5.917 6.04505 5.98969 5.96678C6.06796 5.88851 6.1071 5.77389 6.1071 5.62293V2.11737C6.1071 1.96641 6.06796 1.85459 5.98969 1.78191C5.917 1.70923 5.80798 1.67289 5.66261 1.67289H2.13189C1.98093 1.67289 1.86911 1.70923 1.79643 1.78191C1.72934 1.85459 1.69579 1.96641 1.69579 2.11737V5.62293C1.69579 5.77389 1.72934 5.88851 1.79643 5.96678C1.86911 6.04505 1.98093 6.08419 2.13189 6.08419ZM10.6023 7.46797C9.99844 7.46797 9.54557 7.31701 9.24365 7.01509C8.94174 6.71318 8.79078 6.24913 8.79078 5.62293V2.12576C8.79078 1.49957 8.94174 1.03831 9.24365 0.741984C9.54557 0.440069 9.99844 0.289112 10.6023 0.289112H14.1665C14.7704 0.289112 15.2204 0.440069 15.5168 0.741984C15.8187 1.03831 15.9696 1.49957 15.9696 2.12576V5.62293C15.9696 6.24913 15.8187 6.71318 15.5168 7.01509C15.2204 7.31701 14.7704 7.46797 14.1665 7.46797H10.6023ZM10.619 6.08419H14.1498C14.3007 6.08419 14.4097 6.04505 14.4768 5.96678C14.5495 5.88851 14.5859 5.77389 14.5859 5.62293V2.11737C14.5859 1.96641 14.5495 1.85459 14.4768 1.78191C14.4097 1.70923 14.3007 1.67289 14.1498 1.67289H10.619C10.4681 1.67289 10.3563 1.70923 10.2836 1.78191C10.2109 1.85459 10.1746 1.96641 10.1746 2.11737V5.62293C10.1746 5.77389 10.2109 5.88851 10.2836 5.96678C10.3563 6.04505 10.4681 6.08419 10.619 6.08419ZM2.11512 15.9467C1.51129 15.9467 1.05842 15.7958 0.756504 15.4939C0.460181 15.1975 0.312019 14.7363 0.312019 14.1101V10.6045C0.312019 9.98392 0.460181 9.52266 0.756504 9.22075C1.05842 8.91883 1.51129 8.76787 2.11512 8.76787H5.67939C6.28321 8.76787 6.73609 8.91883 7.038 9.22075C7.33991 9.52266 7.49087 9.98392 7.49087 10.6045V14.1101C7.49087 14.7363 7.33991 15.1975 7.038 15.4939C6.73609 15.7958 6.28321 15.9467 5.67939 15.9467H2.11512ZM2.13189 14.563H5.66261C5.80798 14.563 5.917 14.5266 5.98969 14.4539C6.06796 14.3812 6.1071 14.2694 6.1071 14.1185V10.6045C6.1071 10.4536 6.06796 10.3417 5.98969 10.2691C5.917 10.1908 5.80798 10.1516 5.66261 10.1516H2.13189C1.98093 10.1516 1.86911 10.1908 1.79643 10.2691C1.72934 10.3417 1.69579 10.4536 1.69579 10.6045V14.1185C1.69579 14.2694 1.72934 14.3812 1.79643 14.4539C1.86911 14.5266 1.98093 14.563 2.13189 14.563ZM10.6023 15.9467C9.99844 15.9467 9.54557 15.7958 9.24365 15.4939C8.94174 15.1975 8.79078 14.7363 8.79078 14.1101V10.6045C8.79078 9.98392 8.94174 9.52266 9.24365 9.22075C9.54557 8.91883 9.99844 8.76787 10.6023 8.76787H14.1665C14.7704 8.76787 15.2204 8.91883 15.5168 9.22075C15.8187 9.52266 15.9696 9.98392 15.9696 10.6045V14.1101C15.9696 14.7363 15.8187 15.1975 15.5168 15.4939C15.2204 15.7958 14.7704 15.9467 14.1665 15.9467H10.6023ZM10.619 14.563H14.1498C14.3007 14.563 14.4097 14.5266 14.4768 14.4539C14.5495 14.3812 14.5859 14.2694 14.5859 14.1185V10.6045C14.5859 10.4536 14.5495 10.3417 14.4768 10.2691C14.4097 10.1908 14.3007 10.1516 14.1498 10.1516H10.619C10.4681 10.1516 10.3563 10.1908 10.2836 10.2691C10.2109 10.3417 10.1746 10.4536 10.1746 10.6045V14.1185C10.1746 14.2694 10.2109 14.3812 10.2836 14.4539C10.3563 14.5266 10.4681 14.563 10.619 14.563Z" fill="#007AFF"/>
</svg>
