<svg width="7" height="11" viewBox="0 0 7 11" fill="none" xmlns="http://www.w3.org/2000/svg">
<path id="Vector" d="M1.7455 0.544655C1.8442 0.544084 1.94205 0.563003 2.03343 0.600326C2.12481 0.63765 2.20792 0.692645 2.278 0.762156L6.778 5.26216C6.91769 5.40268 6.99609 5.59277 6.99609 5.79091C6.99609 5.98905 6.91769 6.17913 6.778 6.31966L2.278 10.8197C2.13452 10.9425 1.94997 11.0067 1.76121 10.9994C1.57245 10.9922 1.3934 10.9139 1.25983 10.7803C1.12626 10.6468 1.04801 10.4677 1.04071 10.2789C1.03342 10.0902 1.09763 9.90563 1.2205 9.76216L5.188 5.79466L1.2205 1.82715C1.11518 1.7227 1.0432 1.58936 1.01366 1.444C0.984125 1.29864 0.998353 1.14779 1.05455 1.01052C1.11074 0.873241 1.20638 0.755712 1.32937 0.67279C1.45235 0.589868 1.59717 0.545277 1.7455 0.544655Z" fill="#070707"/>
</svg>
