<svg width="30" height="31" viewBox="0 0 30 31" fill="none" xmlns="http://www.w3.org/2000/svg">
<path d="M19.3025 17.1097C19.3025 17.338 19.2118 17.5568 19.0505 17.7182C18.8891 17.8796 18.6702 17.9702 18.442 17.9702H11.558C11.3298 17.9702 11.1109 17.8796 10.9495 17.7182C10.7882 17.5568 10.6975 17.338 10.6975 17.1097C10.6975 16.8815 10.7882 16.6627 10.9495 16.5013C11.1109 16.3399 11.3298 16.2492 11.558 16.2492H18.442C18.6702 16.2492 18.8891 16.3399 19.0505 16.5013C19.2118 16.6627 19.3025 16.8815 19.3025 17.1097ZM15.8605 19.6912H11.558C11.3298 19.6912 11.1109 19.7819 10.9495 19.9433C10.7882 20.1047 10.6975 20.3235 10.6975 20.5517C10.6975 20.78 10.7882 20.9988 10.9495 21.1602C11.1109 21.3216 11.3298 21.4122 11.558 21.4122H15.8605C16.0887 21.4122 16.3076 21.3216 16.469 21.1602C16.6303 20.9988 16.721 20.78 16.721 20.5517C16.721 20.3235 16.6303 20.1047 16.469 19.9433C16.3076 19.7819 16.0887 19.6912 15.8605 19.6912ZM23.605 14.0851V21.4122C23.6036 22.5529 23.1499 23.6465 22.3433 24.4531C21.5367 25.2596 20.4432 25.7134 19.3025 25.7147H10.6975C9.55684 25.7134 8.46328 25.2596 7.6567 24.4531C6.85012 23.6465 6.39639 22.5529 6.39502 21.4122V9.36526C6.39639 8.22459 6.85012 7.13102 7.6567 6.32444C8.46328 5.51787 9.55684 5.06413 10.6975 5.06276H14.5827C15.374 5.06073 16.1579 5.21558 16.889 5.51836C17.6201 5.82115 18.284 6.26586 18.8421 6.82679L21.8401 9.82649C22.4014 10.3843 22.8463 11.0479 23.1493 11.7789C23.4522 12.5099 23.6071 13.2938 23.605 14.0851ZM17.6254 8.04353C17.3546 7.78122 17.0505 7.55556 16.721 7.37234V11.0863C16.721 11.3145 16.8117 11.5333 16.973 11.6947C17.1344 11.8561 17.3533 11.9468 17.5815 11.9468H21.2954C21.1121 11.6173 20.8861 11.3136 20.6234 11.0432L17.6254 8.04353ZM21.884 14.0851C21.884 13.9431 21.8565 13.8072 21.8436 13.6678H17.5815C16.8968 13.6678 16.2402 13.3958 15.7561 12.9117C15.272 12.4275 15 11.7709 15 11.0863V6.82421C14.8606 6.8113 14.7238 6.78376 14.5827 6.78376H10.6975C10.0129 6.78376 9.35624 7.05574 8.87212 7.53986C8.388 8.02399 8.11602 8.6806 8.11602 9.36526V21.4122C8.11602 22.0969 8.388 22.7535 8.87212 23.2376C9.35624 23.7218 10.0129 23.9937 10.6975 23.9937H19.3025C19.9872 23.9937 20.6438 23.7218 21.1279 23.2376C21.612 22.7535 21.884 22.0969 21.884 21.4122V14.0851Z" fill="#4A74EA"/>
</svg>
