<svg width="17" height="19" viewBox="0 0 17 19" fill="none" xmlns="http://www.w3.org/2000/svg">
<path d="M0.94545 15.6408V6.96914C0.94545 6.07458 1.17748 5.39806 1.64153 4.9396C2.10558 4.47555 2.79048 4.24352 3.69623 4.24352H4.88711C4.90388 3.61733 5.07441 3.04425 5.39869 2.52429C5.72856 2.00432 6.16465 1.59059 6.70698 1.28308C7.2549 0.969987 7.86153 0.813439 8.52686 0.813439C9.18659 0.813439 9.78763 0.969987 10.33 1.28308C10.8779 1.59059 11.3168 2.00432 11.6466 2.52429C11.9765 3.04425 12.147 3.61733 12.1582 4.24352H13.3575C14.2576 4.24352 14.9397 4.47555 15.4038 4.9396C15.8734 5.39806 16.1083 6.07458 16.1083 6.96914V15.6408C16.1083 16.5354 15.8846 17.2119 15.4373 17.6703C14.9901 18.1344 14.3667 18.3664 13.5671 18.3664H3.69623C2.79048 18.3664 2.10558 18.1344 1.64153 17.6703C1.17748 17.2119 0.94545 16.5354 0.94545 15.6408ZM2.59759 15.4982C2.59759 15.9064 2.69823 16.2111 2.89951 16.4123C3.10637 16.6136 3.40549 16.7143 3.79686 16.7143H13.4581C13.7433 16.7143 13.9809 16.6136 14.171 16.4123C14.3611 16.2111 14.4561 15.9064 14.4561 15.4982V7.11171C14.4561 6.70356 14.3499 6.39885 14.1374 6.19758C13.9306 5.9963 13.6342 5.89566 13.2485 5.89566H3.79686C3.40549 5.89566 3.10637 5.9963 2.89951 6.19758C2.69823 6.39885 2.59759 6.70356 2.59759 7.11171V15.4982ZM6.48893 4.24352H10.5564C10.5508 3.88011 10.4585 3.55024 10.2796 3.25391C10.1007 2.95759 9.85751 2.72277 9.55001 2.54945C9.2481 2.37053 8.90704 2.28108 8.52686 2.28108C8.14108 2.28108 7.79723 2.37053 7.49531 2.54945C7.1934 2.72277 6.95019 2.95759 6.76569 3.25391C6.58678 3.55024 6.49452 3.88011 6.48893 4.24352Z" fill="#007AFF"/>
</svg>
