<svg width="52" height="22" viewBox="0 0 52 22" fill="none" xmlns="http://www.w3.org/2000/svg">
<path id="ic_Apple_Pay_logo" d="M9.46708 2.76417C8.85983 3.48836 7.88824 4.05955 6.91665 3.97795C6.7952 2.99876 7.27087 1.95838 7.82752 1.31578C8.43476 0.571193 9.49744 0.0407995 10.3577 0C10.4589 1.01999 10.0642 2.01958 9.46708 2.76417ZM10.3476 4.17175C8.9408 4.09015 7.73643 4.97754 7.06846 4.97754C6.39037 4.97754 5.36818 4.21255 4.2549 4.23295C2.80763 4.25335 1.46157 5.07954 0.722757 6.39532C-0.795354 9.02689 0.328049 12.9232 1.79556 15.0652C2.51413 16.126 3.37439 17.2888 4.50791 17.248C5.58071 17.2072 6.00578 16.5442 7.30124 16.5442C8.60681 16.5442 8.98128 17.248 10.1148 17.2276C11.2888 17.2072 12.0276 16.1668 12.7462 15.106C13.566 13.9024 13.9 12.7294 13.9202 12.6682C13.9 12.6478 11.6532 11.7809 11.6329 9.16969C11.6127 6.98692 13.404 5.94653 13.485 5.88533C12.4729 4.37575 10.8941 4.21255 10.3476 4.17175ZM18.4745 1.21379V17.1154H20.9238V11.6789H24.3142C27.4111 11.6789 29.5871 9.53688 29.5871 6.43612C29.5871 3.33536 27.4516 1.21379 24.3952 1.21379H18.4745ZM20.9238 3.29456H23.7474C25.8728 3.29456 27.0873 4.43695 27.0873 6.44632C27.0873 8.4557 25.8728 9.60828 23.7373 9.60828H20.9238V3.29456ZM34.0605 17.2378C35.5988 17.2378 37.0258 16.4524 37.6736 15.208H37.7242V17.1154H39.9912V9.20029C39.9912 6.90532 38.1695 5.42633 35.366 5.42633C32.765 5.42633 30.8421 6.92572 30.7712 8.98609H32.9776C33.1597 8.0069 34.0605 7.36431 35.2952 7.36431C36.7931 7.36431 37.6331 8.0681 37.6331 9.36349V10.2407L34.5766 10.4243C31.7327 10.5977 30.1944 11.7707 30.1944 13.8106C30.1944 15.871 31.7833 17.2378 34.0605 17.2378ZM34.7183 15.3508C33.4127 15.3508 32.5828 14.7184 32.5828 13.7494C32.5828 12.7498 33.3824 12.1685 34.9106 12.0767L37.6331 11.9033V12.8008C37.6331 14.29 36.3781 15.3508 34.7183 15.3508ZM43.0173 21.4401C45.4058 21.4401 46.5292 20.5222 47.5109 17.7376L51.8122 5.57933H49.3225L46.4381 14.9734H46.3875L43.5031 5.57933H40.9426L45.0921 17.1562L44.8694 17.86C44.4949 19.0534 43.8877 19.5124 42.8048 19.5124C42.6125 19.5124 42.238 19.492 42.0862 19.4716V21.3789C42.2279 21.4197 42.8352 21.4401 43.0173 21.4401Z" fill="#171717"/>
</svg>
