<svg width="24" height="24" viewBox="0 0 24 24" fill="none" xmlns="http://www.w3.org/2000/svg">
<g id="ICON 2" clip-path="url(#clip0_1160_8234)">
<g id="search-4 1" clip-path="url(#clip1_1160_8234)">
<g id="bell-5 1" clip-path="url(#clip2_1160_8234)">
<path id="Vector" d="M19.0367 13.108L17.77 8.55068C17.3987 7.21557 16.5918 6.04288 15.4775 5.219C14.3633 4.39512 13.0056 3.96734 11.6203 4.00366C10.235 4.03998 8.9016 4.53832 7.83203 5.41945C6.76247 6.30058 6.01812 7.51395 5.71732 8.86668L4.73665 13.2767C4.62833 13.764 4.63084 14.2694 4.74398 14.7556C4.85713 15.2418 5.07803 15.6963 5.39038 16.0857C5.70272 16.4751 6.09853 16.7894 6.5486 17.0053C6.99866 17.2213 7.49147 17.3334 7.99065 17.3334H8.73332C8.88633 18.0869 9.29514 18.7643 9.89048 19.2509C10.4858 19.7375 11.2311 20.0034 12 20.0034C12.7689 20.0034 13.5142 19.7375 14.1095 19.2509C14.7048 18.7643 15.1136 18.0869 15.2667 17.3334H15.8253C16.3392 17.3334 16.8461 17.2146 17.3065 16.9863C17.7669 16.758 18.1682 16.4264 18.4792 16.0173C18.7902 15.6082 19.0024 15.1327 19.0992 14.628C19.196 14.1234 19.1742 13.6031 19.0367 13.108ZM12 18.6667C11.5878 18.665 11.1862 18.536 10.8502 18.2973C10.5141 18.0586 10.26 17.722 10.1227 17.3334H13.8773C13.7399 17.722 13.4858 18.0586 13.1498 18.2973C12.8137 18.536 12.4122 18.665 12 18.6667ZM17.4173 15.21C17.2316 15.4565 16.9909 15.6562 16.7144 15.7933C16.4379 15.9305 16.1333 16.0012 15.8247 16H7.99065C7.69118 16 7.39554 15.9327 7.12555 15.8031C6.85556 15.6735 6.61812 15.4849 6.43076 15.2513C6.2434 15.0177 6.1109 14.7449 6.04303 14.4532C5.97516 14.1616 5.97367 13.8584 6.03865 13.566L7.01865 9.15535C7.25489 8.09282 7.83953 7.13975 8.67963 6.44765C9.51972 5.75555 10.5671 5.36413 11.6552 5.33563C12.7433 5.30712 13.8097 5.64316 14.6849 6.29033C15.56 6.9375 16.1938 7.85865 16.4853 8.90735L17.752 13.4647C17.8357 13.7616 17.849 14.0739 17.7909 14.3769C17.7328 14.6799 17.6049 14.9651 17.4173 15.21Z" fill="#858585"/>
</g>
</g>
</g>
<defs>
<clipPath id="clip0_1160_8234">
<rect width="24" height="24" fill="white"/>
</clipPath>
<clipPath id="clip1_1160_8234">
<rect width="16" height="16" fill="white" transform="translate(4 4)"/>
</clipPath>
<clipPath id="clip2_1160_8234">
<rect width="16" height="16" fill="white" transform="translate(4 4)"/>
</clipPath>
</defs>
</svg>
