<svg width="26" height="27" viewBox="0 0 26 27" fill="none" xmlns="http://www.w3.org/2000/svg">
<g id="Add to cart">
<rect id="BG" y="0.805664" width="26" height="26" rx="2" fill="#F0780A"/>
<g id="Group">
<path id="Vector" d="M17.2207 17.8709H10.2319C9.75943 17.8706 9.30157 17.7019 8.93615 17.3932C8.57073 17.0846 8.32028 16.6552 8.22735 16.1779L6.85005 9.0897H4.68183C4.501 9.0897 4.32757 9.01569 4.1997 8.88394C4.07184 8.7522 4 8.57352 4 8.38721C4 8.20089 4.07184 8.02221 4.1997 7.89047C4.32757 7.75873 4.501 7.68471 4.68183 7.68471H7.40916C7.56867 7.6814 7.72426 7.73582 7.84884 7.83851C7.97342 7.9412 8.05911 8.08564 8.09099 8.24671L9.56374 15.9039C9.59562 16.0649 9.68131 16.2094 9.80589 16.3121C9.93047 16.4148 10.0861 16.4692 10.2456 16.4659H17.2207C17.3793 16.4695 17.5341 16.4161 17.6585 16.3148C17.783 16.2135 17.8693 16.0707 17.9025 15.9109L19.0003 10.6422C19.0219 10.5385 19.0205 10.431 18.9961 10.3279C18.9717 10.2248 18.9249 10.1288 18.8593 10.047C18.7937 9.96519 18.7109 9.89977 18.6172 9.85564C18.5236 9.81151 18.4214 9.78982 18.3185 9.79219H17.6366C17.4558 9.79219 17.2824 9.71818 17.1545 9.58644C17.0266 9.45469 16.9548 9.27601 16.9548 9.0897C16.9548 8.90339 17.0266 8.7247 17.1545 8.59296C17.2824 8.46122 17.4558 8.38721 17.6366 8.38721H18.3185C18.6281 8.37984 18.9353 8.44501 19.2169 8.5778C19.4985 8.71059 19.7472 8.90752 19.9441 9.15376C20.1411 9.39999 20.2812 9.6891 20.354 9.99926C20.4267 10.3094 20.4301 10.6326 20.364 10.9443L19.2526 16.213C19.1518 16.6886 18.8944 17.1136 18.524 17.4158C18.1536 17.718 17.6931 17.8788 17.2207 17.8709Z" fill="#F6F6F6"/>
<path id="Vector_2" d="M10.8189 23.1398C10.4144 23.1398 10.0189 23.0162 9.68252 22.7846C9.34614 22.553 9.08396 22.2239 8.92914 21.8388C8.77432 21.4537 8.73382 21.0299 8.81274 20.6211C8.89167 20.2123 9.08648 19.8368 9.37255 19.5421C9.65862 19.2473 10.0231 19.0466 10.4199 18.9653C10.8167 18.884 11.2279 18.9257 11.6017 19.0852C11.9755 19.2447 12.2949 19.5149 12.5197 19.8614C12.7445 20.208 12.8644 20.6155 12.8644 21.0323C12.8644 21.5912 12.6489 22.1273 12.2653 22.5225C11.8817 22.9177 11.3614 23.1398 10.8189 23.1398ZM10.8189 20.3298C10.6841 20.3298 10.5523 20.371 10.4401 20.4482C10.328 20.5254 10.2406 20.6351 10.189 20.7635C10.1374 20.8918 10.1239 21.0331 10.1502 21.1693C10.1765 21.3056 10.2414 21.4308 10.3368 21.529C10.4322 21.6273 10.5537 21.6942 10.6859 21.7213C10.8182 21.7484 10.9553 21.7345 11.0799 21.6813C11.2044 21.6281 11.3109 21.5381 11.3859 21.4226C11.4608 21.307 11.5008 21.1712 11.5008 21.0323C11.5008 20.846 11.4289 20.6673 11.3011 20.5355C11.1732 20.4038 10.9998 20.3298 10.8189 20.3298Z" fill="#F6F6F6"/>
<path id="Vector_3" d="M16.9557 23.1398C16.5511 23.1398 16.1556 23.0162 15.8192 22.7846C15.4829 22.553 15.2207 22.2239 15.0659 21.8388C14.911 21.4537 14.8705 21.0299 14.9495 20.6211C15.0284 20.2123 15.2232 19.8368 15.5093 19.5421C15.7953 19.2473 16.1598 19.0466 16.5566 18.9653C16.9534 18.884 17.3647 18.9257 17.7384 19.0852C18.1122 19.2447 18.4317 19.5149 18.6564 19.8614C18.8812 20.208 19.0011 20.6155 19.0011 21.0323C19.0011 21.5912 18.7856 22.1273 18.402 22.5225C18.0184 22.9177 17.4982 23.1398 16.9557 23.1398ZM16.9557 20.3298C16.8208 20.3298 16.689 20.371 16.5768 20.4482C16.4647 20.5254 16.3773 20.6351 16.3257 20.7635C16.2741 20.8918 16.2606 21.0331 16.2869 21.1693C16.3132 21.3056 16.3782 21.4308 16.4735 21.529C16.5689 21.6273 16.6904 21.6942 16.8226 21.7213C16.9549 21.7484 17.092 21.7345 17.2166 21.6813C17.3412 21.6281 17.4477 21.5381 17.5226 21.4226C17.5975 21.307 17.6375 21.1712 17.6375 21.0323C17.6375 20.846 17.5656 20.6673 17.4378 20.5355C17.3099 20.4038 17.1365 20.3298 16.9557 20.3298Z" fill="#F6F6F6"/>
<path id="Vector_4" d="M15.5912 12.6003H11.5002C11.3194 12.6003 11.1459 12.5263 11.0181 12.3945C10.8902 12.2628 10.8184 12.0841 10.8184 11.8978C10.8184 11.7115 10.8902 11.5328 11.0181 11.4011C11.1459 11.2693 11.3194 11.1953 11.5002 11.1953H15.5912C15.772 11.1953 15.9454 11.2693 16.0733 11.4011C16.2012 11.5328 16.273 11.7115 16.273 11.8978C16.273 12.0841 16.2012 12.2628 16.0733 12.3945C15.9454 12.5263 15.772 12.6003 15.5912 12.6003Z" fill="#F6F6F6"/>
<path id="Vector_5" d="M13.5451 14.7098C13.3643 14.7098 13.1909 14.6358 13.063 14.504C12.9351 14.3723 12.8633 14.1936 12.8633 14.0073V9.79234C12.8633 9.60602 12.9351 9.42734 13.063 9.2956C13.1909 9.16386 13.3643 9.08984 13.5451 9.08984C13.7259 9.08984 13.8994 9.16386 14.0272 9.2956C14.1551 9.42734 14.2269 9.60602 14.2269 9.79234V14.0073C14.2269 14.1936 14.1551 14.3723 14.0272 14.504C13.8994 14.6358 13.7259 14.7098 13.5451 14.7098Z" fill="#F6F6F6"/>
</g>
</g>
</svg>
