<svg width="15" height="19" viewBox="0 0 15 19" fill="none" xmlns="http://www.w3.org/2000/svg">
<path d="M3.84418 5.07935C3.62613 5.07935 3.43883 5.00388 3.28228 4.85292C3.13133 4.69637 3.05585 4.51187 3.05585 4.29941C3.05585 4.08695 3.13133 3.90524 3.28228 3.75429C3.43883 3.59774 3.62613 3.51946 3.84418 3.51946C4.06223 3.51946 4.24673 3.59774 4.39769 3.75429C4.54865 3.90524 4.62413 4.08695 4.62413 4.29941C4.62413 4.51746 4.54865 4.70196 4.39769 4.85292C4.24673 5.00388 4.06223 5.07935 3.84418 5.07935ZM3.84418 7.57853C3.62054 7.57853 3.43324 7.50306 3.28228 7.3521C3.13133 7.20114 3.05585 7.01664 3.05585 6.79859C3.05585 6.58613 3.13133 6.40442 3.28228 6.25347C3.43324 6.10251 3.62054 6.02703 3.84418 6.02703C4.06223 6.02703 4.24673 6.10251 4.39769 6.25347C4.54865 6.39883 4.62413 6.58054 4.62413 6.79859C4.62413 7.01664 4.54865 7.20114 4.39769 7.3521C4.24673 7.50306 4.06223 7.57853 3.84418 7.57853ZM3.84418 10.2035C3.62613 10.2035 3.43883 10.128 3.28228 9.97708C3.13133 9.82053 3.05585 9.63603 3.05585 9.42357C3.05585 9.21111 3.13133 9.0294 3.28228 8.87844C3.43883 8.7219 3.62613 8.64362 3.84418 8.64362C4.06223 8.64362 4.24673 8.7191 4.39769 8.87006C4.54865 9.02101 4.62413 9.20552 4.62413 9.42357C4.62413 9.64162 4.54865 9.82612 4.39769 9.97708C4.24673 10.128 4.06223 10.2035 3.84418 10.2035ZM6.14208 4.85292C5.99113 4.85292 5.86253 4.7998 5.7563 4.69358C5.65567 4.58175 5.60535 4.45037 5.60535 4.29941C5.60535 4.15404 5.65567 4.02825 5.7563 3.92202C5.86253 3.8102 5.99113 3.75429 6.14208 3.75429H11.2075C11.3585 3.75429 11.4871 3.8102 11.5933 3.92202C11.6995 4.02825 11.7527 4.15404 11.7527 4.29941C11.7527 4.45037 11.6995 4.58175 11.5933 4.69358C11.4871 4.7998 11.3585 4.85292 11.2075 4.85292H6.14208ZM6.14208 7.34371C5.99113 7.34371 5.86253 7.2906 5.7563 7.18437C5.65567 7.07814 5.60535 6.94955 5.60535 6.79859C5.60535 6.64763 5.65567 6.52183 5.7563 6.4212C5.86253 6.31497 5.99113 6.26185 6.14208 6.26185H11.2075C11.3641 6.26185 11.4927 6.31497 11.5933 6.4212C11.6995 6.52183 11.7527 6.64763 11.7527 6.79859C11.7527 6.94955 11.6995 7.07814 11.5933 7.18437C11.4927 7.2906 11.3641 7.34371 11.2075 7.34371H6.14208ZM6.14208 9.9603C5.99113 9.9603 5.86253 9.90998 5.7563 9.80935C5.65567 9.70312 5.60535 9.57452 5.60535 9.42357C5.60535 9.27261 5.65567 9.14402 5.7563 9.03779C5.86253 8.93156 5.99113 8.87844 6.14208 8.87844H11.2075C11.3641 8.87844 11.4927 8.93156 11.5933 9.03779C11.6995 9.14402 11.7527 9.27261 11.7527 9.42357C11.7527 9.57452 11.6995 9.70312 11.5933 9.80935C11.4871 9.90998 11.3585 9.9603 11.2075 9.9603H6.14208ZM0.212821 15.6967V3.04143C0.212821 2.14128 0.442052 1.45918 0.900515 0.995124C1.35898 0.525479 2.03828 0.290657 2.93844 0.290657H11.8701C12.7702 0.290657 13.4495 0.525479 13.908 0.995124C14.3665 1.45918 14.5957 2.14128 14.5957 3.04143V15.6967C14.5957 16.6024 14.3665 17.2873 13.908 17.7514C13.4495 18.2154 12.7702 18.4475 11.8701 18.4475H2.93844C2.03828 18.4475 1.35898 18.2154 0.900515 17.7514C0.442052 17.2873 0.212821 16.6024 0.212821 15.6967ZM1.86496 15.596C1.86496 15.9818 1.9656 16.2781 2.16688 16.485C2.36815 16.6919 2.67286 16.7953 3.08101 16.7953H11.7359C12.144 16.7953 12.4487 16.6919 12.65 16.485C12.8513 16.2781 12.9519 15.9818 12.9519 15.596V3.15046C12.9519 2.75909 12.8513 2.45997 12.65 2.2531C12.4487 2.04064 12.144 1.93441 11.7359 1.93441H3.08101C2.67286 1.93441 2.36815 2.04064 2.16688 2.2531C1.9656 2.45997 1.86496 2.75909 1.86496 3.15046V15.596Z" fill="#999999"/>
</svg>
