<svg width="28" height="29" viewBox="0 0 28 29" fill="none" xmlns="http://www.w3.org/2000/svg">
<g id="Add to cart">
<circle id="Circle BG" cx="14" cy="14.8057" r="14" fill="#F0780A"/>
<g id="Group">
<path id="Vector" d="M18.2207 18.8709H11.2319C10.7594 18.8706 10.3016 18.7019 9.93615 18.3932C9.57073 18.0846 9.32028 17.6552 9.22735 17.1779L7.85005 10.0897H5.68183C5.501 10.0897 5.32757 10.0157 5.1997 9.88394C5.07184 9.7522 5 9.57352 5 9.38721C5 9.20089 5.07184 9.02221 5.1997 8.89047C5.32757 8.75873 5.501 8.68471 5.68183 8.68471H8.40916C8.56867 8.6814 8.72426 8.73582 8.84884 8.83851C8.97342 8.9412 9.05911 9.08564 9.09099 9.24671L10.5637 16.9039C10.5956 17.0649 10.6813 17.2094 10.8059 17.3121C10.9305 17.4148 11.0861 17.4692 11.2456 17.4659H18.2207C18.3793 17.4695 18.5341 17.4161 18.6585 17.3148C18.783 17.2135 18.8693 17.0707 18.9025 16.9109L20.0003 11.6422C20.0219 11.5385 20.0205 11.431 19.9961 11.3279C19.9717 11.2248 19.9249 11.1288 19.8593 11.047C19.7937 10.9652 19.7109 10.8998 19.6172 10.8556C19.5236 10.8115 19.4214 10.7898 19.3185 10.7922H18.6366C18.4558 10.7922 18.2824 10.7182 18.1545 10.5864C18.0266 10.4547 17.9548 10.276 17.9548 10.0897C17.9548 9.90339 18.0266 9.7247 18.1545 9.59296C18.2824 9.46122 18.4558 9.38721 18.6366 9.38721H19.3185C19.6281 9.37984 19.9353 9.44501 20.2169 9.5778C20.4985 9.71059 20.7472 9.90752 20.9441 10.1538C21.1411 10.4 21.2812 10.6891 21.354 10.9993C21.4267 11.3094 21.4301 11.6326 21.364 11.9443L20.2526 17.213C20.1518 17.6886 19.8944 18.1136 19.524 18.4158C19.1536 18.718 18.6931 18.8788 18.2207 18.8709Z" fill="#F6F6F6"/>
<path id="Vector_2" d="M11.8189 24.1398C11.4144 24.1398 11.0189 24.0162 10.6825 23.7846C10.3461 23.553 10.084 23.2239 9.92914 22.8388C9.77432 22.4537 9.73382 22.0299 9.81274 21.6211C9.89167 21.2123 10.0865 20.8368 10.3725 20.5421C10.6586 20.2473 11.0231 20.0466 11.4199 19.9653C11.8167 19.884 12.2279 19.9257 12.6017 20.0852C12.9755 20.2447 13.2949 20.5149 13.5197 20.8614C13.7445 21.208 13.8644 21.6155 13.8644 22.0323C13.8644 22.5912 13.6489 23.1273 13.2653 23.5225C12.8817 23.9177 12.3614 24.1398 11.8189 24.1398ZM11.8189 21.3298C11.6841 21.3298 11.5523 21.371 11.4401 21.4482C11.328 21.5254 11.2406 21.6351 11.189 21.7635C11.1374 21.8918 11.1239 22.0331 11.1502 22.1693C11.1765 22.3056 11.2414 22.4308 11.3368 22.529C11.4322 22.6273 11.5537 22.6942 11.6859 22.7213C11.8182 22.7484 11.9553 22.7345 12.0799 22.6813C12.2044 22.6281 12.3109 22.5381 12.3859 22.4226C12.4608 22.307 12.5008 22.1712 12.5008 22.0323C12.5008 21.846 12.4289 21.6673 12.3011 21.5355C12.1732 21.4038 11.9998 21.3298 11.8189 21.3298Z" fill="#F6F6F6"/>
<path id="Vector_3" d="M17.9557 24.1398C17.5511 24.1398 17.1556 24.0162 16.8192 23.7846C16.4829 23.553 16.2207 23.2239 16.0659 22.8388C15.911 22.4537 15.8705 22.0299 15.9495 21.6211C16.0284 21.2123 16.2232 20.8368 16.5093 20.5421C16.7953 20.2473 17.1598 20.0466 17.5566 19.9653C17.9534 19.884 18.3647 19.9257 18.7384 20.0852C19.1122 20.2447 19.4317 20.5149 19.6564 20.8614C19.8812 21.208 20.0011 21.6155 20.0011 22.0323C20.0011 22.5912 19.7856 23.1273 19.402 23.5225C19.0184 23.9177 18.4982 24.1398 17.9557 24.1398ZM17.9557 21.3298C17.8208 21.3298 17.689 21.371 17.5768 21.4482C17.4647 21.5254 17.3773 21.6351 17.3257 21.7635C17.2741 21.8918 17.2606 22.0331 17.2869 22.1693C17.3132 22.3056 17.3782 22.4308 17.4735 22.529C17.5689 22.6273 17.6904 22.6942 17.8226 22.7213C17.9549 22.7484 18.092 22.7345 18.2166 22.6813C18.3412 22.6281 18.4477 22.5381 18.5226 22.4226C18.5975 22.307 18.6375 22.1712 18.6375 22.0323C18.6375 21.846 18.5656 21.6673 18.4378 21.5355C18.3099 21.4038 18.1365 21.3298 17.9557 21.3298Z" fill="#F6F6F6"/>
<path id="Vector_4" d="M16.5912 13.6003H12.5002C12.3194 13.6003 12.1459 13.5263 12.0181 13.3945C11.8902 13.2628 11.8184 13.0841 11.8184 12.8978C11.8184 12.7115 11.8902 12.5328 12.0181 12.4011C12.1459 12.2693 12.3194 12.1953 12.5002 12.1953H16.5912C16.772 12.1953 16.9454 12.2693 17.0733 12.4011C17.2012 12.5328 17.273 12.7115 17.273 12.8978C17.273 13.0841 17.2012 13.2628 17.0733 13.3945C16.9454 13.5263 16.772 13.6003 16.5912 13.6003Z" fill="#F6F6F6"/>
<path id="Vector_5" d="M14.5451 15.7098C14.3643 15.7098 14.1909 15.6358 14.063 15.504C13.9351 15.3723 13.8633 15.1936 13.8633 15.0073V10.7923C13.8633 10.606 13.9351 10.4273 14.063 10.2956C14.1909 10.1639 14.3643 10.0898 14.5451 10.0898C14.7259 10.0898 14.8994 10.1639 15.0272 10.2956C15.1551 10.4273 15.2269 10.606 15.2269 10.7923V15.0073C15.2269 15.1936 15.1551 15.3723 15.0272 15.504C14.8994 15.6358 14.7259 15.7098 14.5451 15.7098Z" fill="#F6F6F6"/>
</g>
</g>
</svg>
