<svg width="117" height="110" viewBox="0 0 117 110" fill="none" xmlns="http://www.w3.org/2000/svg">
<g id="Placed">
<path id="Vector" d="M61.5589 109.527C91.804 109.527 116.322 85.0086 116.322 54.7635C116.322 24.5185 91.804 0 61.5589 0C31.3138 0 6.79538 24.5185 6.79538 54.7635C6.79538 85.0086 31.3138 109.527 61.5589 109.527Z" fill="#D6DCEA"/>
<path id="Vector_2" d="M14.0824 43.8861C21.476 38.6729 40.378 25.8365 60.2064 16.3445C61.7392 15.615 63.5671 16.115 64.4851 17.5412C70.4689 26.8365 91.5677 60.3291 98.3958 81.1738C98.9286 82.8132 98.1498 84.5838 96.5842 85.2887C89.3546 88.5265 69.2803 98.0267 57.1735 108.715C55.5177 110.183 52.9357 109.715 51.9357 107.74C46.2962 96.5758 29.7139 65.1653 13.6479 48.9436C12.1971 47.4764 12.4102 45.0747 14.0906 43.8861H14.0824Z" fill="#3C50A0"/>
<g id="Group">
<path id="Vector_3" d="M41.1403 23.6399C50.6323 19.9513 62.3129 15.8529 74.0837 12.8036C75.723 12.3774 77.428 13.2299 78.051 14.8037C82.1412 25.0744 96.4202 61.9933 99.1088 83.7643C99.3219 85.4774 98.2154 87.0594 96.535 87.4529C88.8135 89.248 67.2966 94.7153 53.3537 102.879C51.4438 103.994 49.0011 103.043 48.4027 100.912C45.0174 88.8709 34.7631 54.862 22.1153 35.8533C20.9759 34.1402 21.6399 31.8123 23.5169 30.9762C26.4023 29.6811 30.8532 27.7466 36.3205 25.5334" fill="white"/>
<path id="Vector_4" d="M51.6487 104.707C51.0504 104.707 50.452 104.593 49.8782 104.363C48.5257 103.814 47.5175 102.691 47.1241 101.289C43.3945 88.0348 33.386 55.2144 21.0087 36.6156C20.2464 35.4681 20.0251 34.0418 20.4021 32.7221C20.7874 31.4024 21.7218 30.3204 22.9842 29.7548C25.7793 28.5007 30.2794 26.5416 35.8369 24.2957C36.5337 24.017 37.3206 24.3531 37.5993 25.0416C37.8779 25.7301 37.5419 26.5252 36.8533 26.8039C31.3368 29.0335 26.8695 30.9762 24.0989 32.2221C23.558 32.4598 23.1727 32.9024 23.0088 33.468C22.8448 34.0254 22.9432 34.632 23.2629 35.1156C35.8533 54.0341 45.9683 87.1824 49.7307 100.552C49.9028 101.15 50.3209 101.625 50.8946 101.855C51.4848 102.093 52.1406 102.043 52.698 101.715C66.6409 93.5432 87.8053 88.1004 96.2563 86.1332C97.2563 85.9036 97.9121 84.9528 97.7891 83.9282C95.1251 62.4277 81.0593 25.9679 76.8133 15.3037C76.4444 14.3692 75.428 13.861 74.4362 14.1151C64.4523 16.6972 53.4193 20.3284 41.6403 24.9023C40.9436 25.1728 40.1649 24.8285 39.8862 24.1317C39.6157 23.435 39.96 22.6481 40.6567 22.3776C52.534 17.7628 63.6736 14.1069 73.7558 11.4921C76.0509 10.9019 78.4444 12.1069 79.3215 14.2955C83.6003 25.0334 97.7646 61.7637 100.47 83.5921C100.765 85.9938 99.2154 88.2152 96.8629 88.7644C88.5266 90.6988 67.6819 96.0596 54.0586 104.043C53.3127 104.478 52.4848 104.707 51.6487 104.707Z" fill="#3C50A0"/>
</g>
<g id="Group_2">
<path id="Vector_5" d="M12.2381 29.6892C11.943 29.6892 11.6479 29.5909 11.3938 29.3941L7.45109 26.2465C6.86911 25.7793 6.77075 24.9268 7.23797 24.3448C7.7052 23.7628 8.55767 23.6645 9.13965 24.1317L13.0824 27.2793C13.6643 27.7465 13.7627 28.599 13.2955 29.181C13.025 29.5171 12.6315 29.6892 12.2381 29.6892Z" fill="#3C50A0"/>
</g>
<g id="Group_3">
<path id="Vector_6" d="M10.4839 34.7795C10.4839 34.7795 10.4675 34.7795 10.4593 34.7795L1.32798 34.591C0.582065 34.5746 -0.00811255 33.9598 8.43576e-05 33.2139C0.0164782 32.4762 0.614852 31.886 1.35257 31.886C1.36077 31.886 1.36897 31.886 1.37716 31.886L10.5085 32.0745C11.2544 32.0909 11.8446 32.7057 11.8364 33.4516C11.82 34.1893 11.2217 34.7795 10.4839 34.7795Z" fill="#3C50A0"/>
</g>
<g id="Group_4">
<path id="Vector_7" d="M99.8549 69.5834C100.248 72.5753 100.593 75.5262 100.863 78.3951L84.8709 95.5184C75.7396 96.8955 61.8868 102.191 53.4522 105.576C51.403 106.396 49.1324 105.101 48.8537 102.904C47.2881 90.5019 42.1732 55.3454 32.4681 34.6646C31.591 32.8039 32.5911 30.5989 34.5747 30.0497C37.8125 29.1481 42.8946 27.7792 49.1242 26.3037C59.6818 23.8037 73.5428 20.984 87.3054 19.5413C88.9776 19.3692 90.5104 20.4757 90.8875 22.1069C92.4613 28.8038 96.4122 46.3042 99.0352 63.8538" fill="white"/>
<path id="Vector_8" d="M52.1734 107.174C51.3456 107.174 50.5177 106.953 49.7799 106.519C48.5176 105.781 47.6979 104.519 47.5094 103.068C45.7799 89.4117 40.7388 55.4601 31.2467 35.2384C30.6566 33.9842 30.6566 32.5498 31.2303 31.2957C31.8041 30.0415 32.8943 29.1153 34.2222 28.7464C37.4108 27.853 42.5257 26.4759 48.8291 24.9922C58.4031 22.7299 72.8297 19.7052 87.1824 18.197C89.5186 17.9511 91.6907 19.5003 92.2235 21.7954C93.8055 28.5251 97.7646 46.0747 100.396 63.657C100.502 64.3948 99.9942 65.0833 99.2565 65.1981C98.5188 65.3128 97.8302 64.7964 97.7155 64.0587C95.1006 46.5747 91.1579 29.1153 89.5841 22.4184C89.3546 21.443 88.4366 20.7872 87.4529 20.8856C73.2395 22.3774 58.9359 25.3693 49.4357 27.6152C43.1814 29.0989 38.0993 30.4596 34.9353 31.3448C34.3698 31.5006 33.9189 31.8858 33.673 32.4186C33.4271 32.9514 33.4353 33.558 33.6812 34.0826C43.3372 54.6568 48.4356 88.9363 50.1816 102.724C50.2554 103.338 50.6078 103.871 51.1406 104.183C51.6898 104.502 52.3374 104.551 52.9357 104.314C66.9852 98.6742 77.215 95.3791 84.1824 94.2479L99.445 77.9115C99.1909 75.3376 98.8712 72.5999 98.5024 69.7473C98.404 69.0096 98.9286 68.3293 99.6663 68.2309C100.404 68.1326 101.084 68.6572 101.183 69.3949C101.593 72.5015 101.929 75.477 102.199 78.2557C102.232 78.641 102.109 79.0262 101.838 79.3049L85.8463 96.4283C85.6414 96.6496 85.3627 96.7971 85.0594 96.8463C78.3871 97.8545 67.9197 101.207 53.944 106.822C53.362 107.051 52.7554 107.166 52.157 107.166L52.1734 107.174Z" fill="#3C50A0"/>
</g>
<g id="Group_5">
<path id="Vector_9" d="M100.863 78.7148L87.7234 79.1903C85.8791 79.2558 84.4283 80.8051 84.4857 82.6494L84.8709 95.5185L100.863 78.7148Z" fill="white"/>
<path id="Vector_10" d="M84.8709 96.871C84.707 96.871 84.543 96.8383 84.3873 96.7809C83.8791 96.5842 83.5348 96.1005 83.5184 95.5595L83.1332 82.6904C83.0512 80.1084 85.0922 77.9362 87.6742 77.8378L100.814 77.3624C101.363 77.3378 101.871 77.6575 102.093 78.1575C102.322 78.6575 102.216 79.2477 101.838 79.6493L85.8463 96.453C85.584 96.7235 85.2316 96.871 84.8627 96.871H84.8709ZM97.5925 80.1821L87.7644 80.5428C86.666 80.5838 85.7971 81.51 85.8299 82.6084L86.1168 92.2398L97.5843 80.1821H97.5925Z" fill="#3C50A0"/>
</g>
<g id="Group_6">
<path id="Vector_11" d="M86.4118 57.6897L85.7725 61.3127C85.6577 61.9685 86.4692 62.3701 86.92 61.8865L89.4365 59.1979L86.4118 57.6979V57.6897Z" fill="#3C50A0"/>
<path id="Vector_12" d="M109.56 14.9429L110.503 15.3445C111.814 15.9019 112.314 17.6888 111.609 19.3364L107.511 28.9596C107.265 29.5334 106.699 29.8449 106.24 29.6481C105.781 29.4514 105.609 28.8284 105.855 28.2546L109.56 19.5577C109.798 18.9921 109.634 18.3774 109.191 18.1725L108.355 17.7872L109.56 14.9511V14.9429Z" fill="#3C50A0"/>
<path id="Vector_13" d="M106.056 12.7044C105.776 13.3626 106.082 14.1232 106.74 14.4034C107.399 14.6835 108.159 14.3771 108.439 13.719L110.199 9.58604C110.479 8.92792 110.173 8.16729 109.514 7.88712C108.856 7.60696 108.096 7.91334 107.816 8.57146L106.056 12.7044Z" fill="#3C50A0"/>
<path id="Vector_14" d="M86.043 56.3127C84.8217 59.321 89.2808 61.3292 90.6497 58.3865C90.6661 58.3537 90.6825 58.321 90.6989 58.2882L109.568 16.3528C110.552 14.0331 109.97 11.5658 108.257 10.8363C106.543 10.1068 104.363 11.3937 103.371 13.7134L86.043 56.3127Z" fill="#3C50A0"/>
<path id="Vector_15" d="M105.576 18.1151C105.396 18.1151 105.224 18.0823 105.043 18.0085L102.33 16.8527C101.642 16.5576 101.322 15.7625 101.617 15.074C101.912 14.3855 102.707 14.0658 103.396 14.3609L106.109 15.5166C106.798 15.8117 107.117 16.6068 106.822 17.2954C106.601 17.8118 106.101 18.1151 105.576 18.1151Z" fill="#3C50A0"/>
</g>
<g id="Group_7">
<path id="Vector_16" d="M51.2881 46.8288C51.0504 45.7877 51.7062 44.7549 52.7472 44.5172L58.608 43.1893C59.649 42.9516 60.6818 43.6074 60.9195 44.6484L62.2474 50.5092C62.4851 51.5502 61.8293 52.583 60.7883 52.8207L54.9275 54.1486C53.8865 54.3863 52.8537 53.7306 52.616 52.6895L52.1078 50.4682" fill="white"/>
<path id="Vector_17" d="M54.5013 55.5503C53.8865 55.5503 53.2882 55.3781 52.7554 55.0421C52.0095 54.5748 51.5012 53.8453 51.3045 52.9928L50.7963 50.7715C50.6324 50.042 51.0914 49.3206 51.8127 49.1567C52.5422 48.9928 53.2636 49.4518 53.4275 50.1731L53.9357 52.3945C53.9849 52.5994 54.1161 52.7059 54.1898 52.7551C54.2636 52.8043 54.4275 52.8781 54.6243 52.8289L60.4932 51.501C60.8047 51.4272 61.0015 51.1239 60.9277 50.8125L59.5998 44.9435C59.5506 44.7386 59.4195 44.632 59.3457 44.5828C59.2719 44.5336 59.1162 44.4599 58.9112 44.509L53.0423 45.8369C52.7308 45.9107 52.5341 46.214 52.6078 46.5255C52.7718 47.255 52.3127 47.9763 51.5914 48.1403C50.8619 48.3042 50.1406 47.8452 49.9766 47.1239C49.575 45.3615 50.6897 43.5992 52.4521 43.1975L58.3211 41.8696C59.1735 41.6729 60.0588 41.8287 60.7965 42.2959C61.5425 42.7631 62.0507 43.4926 62.2474 44.3451L63.5753 50.2141C63.772 51.0666 63.6163 51.9518 63.149 52.6896C62.6818 53.4355 61.9523 53.9519 61.0998 54.1404L55.2308 55.4683C54.9849 55.5257 54.739 55.5503 54.5013 55.5503Z" fill="#3C50A0"/>
</g>
<g id="Group_8">
<path id="Vector_18" d="M68.6492 48.8372C68.0345 48.8372 67.4771 48.411 67.3295 47.7798C67.1656 47.0503 67.6246 46.329 68.3459 46.165L81.0839 43.2715C81.8135 43.1076 82.5348 43.5666 82.6987 44.2879C82.8627 45.0174 82.4036 45.7388 81.6823 45.9027L68.9443 48.7962C68.846 48.8208 68.7394 48.829 68.641 48.829L68.6492 48.8372Z" fill="#3C50A0"/>
</g>
<g id="Group_9">
<path id="Vector_19" d="M73.5099 69.6736C72.8951 69.6736 72.3378 69.2474 72.1902 68.6162C72.0263 67.8867 72.4853 67.1654 73.2066 67.0014L85.9446 64.1079C86.6741 63.944 87.3955 64.403 87.5594 65.1244C87.7234 65.8539 87.2643 66.5752 86.543 66.7391L73.805 69.6326C73.7066 69.6572 73.6001 69.6654 73.5017 69.6654L73.5099 69.6736Z" fill="#3C50A0"/>
</g>
<g id="Group_10">
<path id="Vector_20" d="M57.4767 73.5178C57.7145 74.5588 58.7473 75.2064 59.7883 74.9769L65.6491 73.649C66.6901 73.4113 67.3376 72.3785 67.1081 71.3375L65.7802 65.4767C65.5425 64.4357 64.5097 63.7881 63.4687 64.0176L57.6079 65.3455C56.5669 65.5832 55.9193 66.616 56.1489 67.657L56.5833 69.5751" fill="white"/>
<path id="Vector_21" d="M59.3539 76.3786C58.7391 76.3786 58.1408 76.2065 57.608 75.8704C56.862 75.4032 56.3456 74.6737 56.1571 73.8212C55.9932 73.0917 56.4522 72.3704 57.1735 72.2064C57.9031 72.0425 58.6244 72.5015 58.7883 73.2228C58.8621 73.5343 59.1572 73.731 59.4769 73.6573L65.3458 72.3294C65.6573 72.2556 65.8541 71.9523 65.7803 71.6408L64.4524 65.7719C64.4032 65.5669 64.2721 65.4604 64.1983 65.4112C64.1245 65.362 63.9688 65.2882 63.7638 65.3374L57.8949 66.6653C57.5834 66.7391 57.3866 67.0424 57.4604 67.3539L57.8949 69.2719C58.0588 70.0015 57.5998 70.7228 56.8784 70.8867C56.1489 71.0507 55.4276 70.5916 55.2636 69.8703L54.8292 67.9522C54.4276 66.1899 55.5423 64.4276 57.3047 64.0259L63.1737 62.698C64.0261 62.5013 64.9114 62.657 65.6491 63.1242C66.395 63.5915 66.9033 64.321 67.1 65.1735L68.4279 71.0425C68.6246 71.8949 68.4689 72.7802 68.0016 73.5179C67.5344 74.2638 66.8049 74.7803 65.9524 74.9688L60.0834 76.2967C59.8375 76.3541 59.5916 76.3786 59.3539 76.3786Z" fill="#3C50A0"/>
</g>
</g>
</svg>
