<svg width="117" height="110" viewBox="0 0 117 110" fill="none" xmlns="http://www.w3.org/2000/svg">
<path d="M51.6487 104.707C51.0504 104.707 50.452 104.592 49.8782 104.363C48.5257 103.814 47.5175 102.691 47.1241 101.289C43.3945 88.0347 33.386 55.2143 21.0087 36.6155C20.2464 35.468 20.0251 34.0417 20.4021 32.722C20.7874 31.4023 21.7218 30.3203 22.9842 29.7547C25.7793 28.5006 30.2794 26.5415 35.8369 24.2956C36.5337 24.0169 37.3206 24.3529 37.5993 25.0415C37.8779 25.73 37.5419 26.5251 36.8533 26.8038C31.3368 29.0334 26.8695 30.976 24.0989 32.222C23.558 32.4597 23.1727 32.9023 23.0088 33.4679C22.8448 34.0253 22.9432 34.6319 23.2629 35.1155C35.8533 54.0339 45.9683 87.1822 49.7307 100.551C49.9028 101.15 50.3209 101.625 50.8946 101.855C51.4848 102.092 52.1406 102.043 52.698 101.715C66.6409 93.543 87.8053 88.1003 96.2563 86.133C97.2563 85.9035 97.9121 84.9527 97.7891 83.9281C95.1251 62.4276 81.0593 25.9677 76.8133 15.3036C76.4444 14.3691 75.428 13.8609 74.4362 14.115C64.4523 16.697 53.4193 20.3283 41.6403 24.9021C40.9436 25.1726 40.1649 24.8284 39.8862 24.1316C39.6157 23.4349 39.96 22.648 40.6567 22.3775C52.534 17.7626 63.6736 14.1068 73.7558 11.492C76.0509 10.9018 78.4444 12.1068 79.3215 14.2953C83.6003 25.0333 97.7646 61.7636 100.47 83.592C100.765 85.9937 99.2154 88.215 96.8629 88.7642C88.5266 90.6987 67.6819 96.0595 54.0586 104.043C53.3127 104.478 52.4848 104.707 51.6487 104.707Z" fill="#72A114"/>
<path d="M53.0995 104.643C52.5092 104.544 51.9378 104.333 51.4095 104.012C50.1655 103.249 49.3554 101.975 49.1974 100.528C47.6947 86.8412 43.211 52.8229 34.0554 32.4443C33.4919 31.1871 33.5078 29.7439 34.0964 28.504C34.6931 27.2655 35.7925 26.3516 37.1306 26.0009C40.0937 25.2228 50.4795 22.813 56.3303 21.51C57.0633 21.3495 57.7844 21.8102 57.9462 22.5352C58.1081 23.2602 57.646 23.9893 56.9211 24.1511C51.1134 25.4447 40.7627 27.8436 37.8251 28.6178C37.2524 28.7634 36.7997 29.1368 36.5452 29.6678C36.2919 30.1907 36.2894 30.8052 36.5253 31.3347C45.8386 52.0637 50.3736 86.4229 51.8898 100.228C51.9613 100.847 52.2956 101.384 52.824 101.705C53.3671 102.036 54.022 102.096 54.6257 101.864C69.7212 96.0917 91.4921 94.1978 100.151 93.6449C101.176 93.5827 101.978 92.7524 102.025 91.7215C102.928 70.0754 95.0393 31.8009 92.6019 20.5843C92.3915 19.6019 91.4723 18.9337 90.4522 19.0215C80.1799 19.9293 68.7004 21.6997 56.3303 24.2774C55.5986 24.4299 54.887 23.9624 54.7265 23.2294C54.5741 22.4977 55.0429 21.778 55.7746 21.6255C68.2484 19.0235 79.8371 17.2463 90.2118 16.3224C92.5727 16.1171 94.7358 17.6987 95.2416 20.0016C97.6993 31.2963 105.64 69.8538 104.725 91.8301C104.621 94.2476 102.728 96.1845 100.318 96.34C91.777 96.8794 70.3349 98.7449 55.5857 104.383C54.7785 104.69 53.9242 104.78 53.0995 104.643Z" fill="#72A114"/>
<path d="M12.2381 29.6891C11.943 29.6891 11.6479 29.5907 11.3938 29.394L7.45109 26.2464C6.86911 25.7792 6.77075 24.9267 7.23797 24.3447C7.7052 23.7627 8.55767 23.6644 9.13965 24.1316L13.0824 27.2792C13.6643 27.7464 13.7627 28.5989 13.2955 29.1809C13.025 29.517 12.6315 29.6891 12.2381 29.6891Z" fill="#72A114"/>
<path d="M10.4839 34.7794C10.4839 34.7794 10.4675 34.7794 10.4593 34.7794L1.32798 34.5908C0.582065 34.5744 -0.00811255 33.9597 8.43576e-05 33.2138C0.0164782 32.476 0.614852 31.8859 1.35257 31.8859C1.36077 31.8859 1.36897 31.8859 1.37716 31.8859L10.5085 32.0744C11.2544 32.0908 11.8446 32.7056 11.8364 33.4515C11.82 34.1892 11.2217 34.7794 10.4839 34.7794Z" fill="#72A114"/>
<path d="M86.4118 57.6897L85.7725 61.3127C85.6577 61.9685 86.4692 62.3701 86.92 61.8865L89.4365 59.1979L86.4118 57.6979V57.6897Z" fill="#72A114"/>
<path d="M109.56 14.9429L110.503 15.3445C111.814 15.9019 112.314 17.6888 111.609 19.3364L107.511 28.9596C107.265 29.5334 106.699 29.8449 106.24 29.6481C105.781 29.4514 105.609 28.8284 105.855 28.2546L109.56 19.5577C109.798 18.9921 109.634 18.3774 109.191 18.1725L108.355 17.7872L109.56 14.9511V14.9429Z" fill="#72A114"/>
<path d="M106.056 12.7044C105.776 13.3626 106.082 14.1232 106.74 14.4034C107.399 14.6835 108.159 14.3771 108.439 13.719L110.199 9.58604C110.479 8.92792 110.173 8.16729 109.514 7.88712C108.856 7.60696 108.096 7.91334 107.816 8.57146L106.056 12.7044Z" fill="#72A114"/>
<path d="M86.043 56.3127C84.8217 59.321 89.2808 61.3292 90.6497 58.3865C90.6661 58.3537 90.6825 58.321 90.6989 58.2882L109.568 16.3528C110.552 14.0331 109.97 11.5658 108.257 10.8363C106.543 10.1068 104.363 11.3937 103.371 13.7134L86.043 56.3127Z" fill="#72A114"/>
<path d="M105.576 18.1151C105.396 18.1151 105.224 18.0823 105.043 18.0085L102.33 16.8527C101.642 16.5576 101.322 15.7625 101.617 15.074C101.912 14.3855 102.707 14.0658 103.396 14.3609L106.109 15.5166C106.798 15.8117 107.117 16.6068 106.822 17.2954C106.601 17.8118 106.101 18.1151 105.576 18.1151Z" fill="#72A114"/>
<path d="M54.5013 55.5503C53.8865 55.5503 53.2882 55.3781 52.7554 55.0421C52.0095 54.5748 51.5012 53.8453 51.3045 52.9928L50.7963 50.7715C50.6324 50.042 51.0914 49.3206 51.8127 49.1567C52.5422 48.9928 53.2636 49.4518 53.4275 50.1731L53.9357 52.3945C53.9849 52.5994 54.1161 52.7059 54.1898 52.7551C54.2636 52.8043 54.4275 52.8781 54.6243 52.8289L60.4932 51.501C60.8047 51.4272 61.0015 51.1239 60.9277 50.8125L59.5998 44.9435C59.5506 44.7386 59.4195 44.632 59.3457 44.5828C59.2719 44.5336 59.1162 44.4599 58.9112 44.509L53.0423 45.8369C52.7308 45.9107 52.5341 46.214 52.6078 46.5255C52.7718 47.255 52.3127 47.9763 51.5914 48.1403C50.8619 48.3042 50.1406 47.8452 49.9766 47.1239C49.575 45.3615 50.6897 43.5992 52.4521 43.1975L58.3211 41.8696C59.1735 41.6729 60.0588 41.8287 60.7965 42.2959C61.5425 42.7631 62.0507 43.4926 62.2474 44.3451L63.5753 50.2141C63.772 51.0666 63.6163 51.9518 63.149 52.6896C62.6818 53.4355 61.9523 53.9519 61.0998 54.1404L55.2308 55.4683C54.9849 55.5257 54.739 55.5503 54.5013 55.5503Z" fill="#72A114"/>
<path d="M68.6492 48.8371C68.0345 48.8371 67.4771 48.4108 67.3295 47.7797C67.1656 47.0502 67.6246 46.3288 68.3459 46.1649L81.0839 43.2714C81.8135 43.1074 82.5348 43.5665 82.6987 44.2878C82.8627 45.0173 82.4036 45.7387 81.6823 45.9026L68.9443 48.7961C68.846 48.8207 68.7394 48.8289 68.641 48.8289L68.6492 48.8371Z" fill="#72A114"/>
<path d="M73.5099 69.6736C72.8951 69.6736 72.3378 69.2474 72.1902 68.6162C72.0263 67.8867 72.4853 67.1654 73.2066 67.0014L85.9446 64.1079C86.6741 63.944 87.3955 64.403 87.5594 65.1244C87.7234 65.8539 87.2643 66.5752 86.543 66.7391L73.805 69.6326C73.7066 69.6572 73.6001 69.6654 73.5017 69.6654L73.5099 69.6736Z" fill="#72A114"/>
<path d="M59.3539 76.3786C58.7391 76.3786 58.1408 76.2065 57.608 75.8704C56.862 75.4032 56.3456 74.6737 56.1571 73.8212C55.9932 73.0917 56.4522 72.3704 57.1735 72.2064C57.9031 72.0425 58.6244 72.5015 58.7883 73.2228C58.8621 73.5343 59.1572 73.731 59.4769 73.6573L65.3458 72.3294C65.6573 72.2556 65.8541 71.9523 65.7803 71.6408L64.4524 65.7719C64.4032 65.5669 64.2721 65.4604 64.1983 65.4112C64.1245 65.362 63.9688 65.2882 63.7638 65.3374L57.8949 66.6653C57.5834 66.7391 57.3866 67.0424 57.4604 67.3539L57.8949 69.2719C58.0588 70.0015 57.5998 70.7228 56.8784 70.8867C56.1489 71.0507 55.4276 70.5916 55.2636 69.8703L54.8292 67.9522C54.4276 66.1899 55.5423 64.4276 57.3047 64.0259L63.1737 62.698C64.0261 62.5013 64.9114 62.657 65.6491 63.1242C66.395 63.5915 66.9033 64.321 67.1 65.1735L68.4279 71.0425C68.6246 71.8949 68.4689 72.7802 68.0016 73.5179C67.5344 74.2638 66.8049 74.7803 65.9524 74.9688L60.0834 76.2967C59.8375 76.3541 59.5916 76.3786 59.3539 76.3786Z" fill="#72A114"/>
</svg>
