<svg width="20" height="20" viewBox="0 0 20 20" fill="none" xmlns="http://www.w3.org/2000/svg">
<g id="fi:eye-off" clip-path="url(#clip0_1693_201)">
<path id="Vector" d="M8.3172 3.59003C8.86875 3.46093 9.43344 3.39639 9.99989 3.39773C15.6089 3.39773 18.814 9.80798 18.814 9.80798C18.3276 10.7179 17.7475 11.5746 17.0832 12.3641M11.6986 11.5067C11.4785 11.7429 11.2132 11.9323 10.9183 12.0637C10.6234 12.1951 10.3051 12.2657 9.98234 12.2714C9.65957 12.2771 9.33897 12.2177 9.03964 12.0968C8.74032 11.9759 8.46842 11.796 8.24015 11.5677C8.01189 11.3395 7.83194 11.0676 7.71104 10.7682C7.59014 10.4689 7.53076 10.1483 7.53646 9.82554C7.54215 9.50277 7.6128 9.18446 7.74419 8.88959C7.87557 8.59472 8.065 8.32933 8.30118 8.10926M14.7595 14.5676C13.3898 15.6117 11.7219 16.1901 9.99989 16.2182C4.39092 16.2182 1.18579 9.80798 1.18579 9.80798C2.1825 7.95053 3.56491 6.3277 5.24028 5.04837L14.7595 14.5676Z" stroke="black" stroke-width="1.44231" stroke-linecap="round" stroke-linejoin="round"/>
<path id="Vector_2" d="M1.18579 0.993896L18.814 18.6221" stroke="black" stroke-width="1.44231" stroke-linecap="round" stroke-linejoin="round"/>
</g>
<defs>
<clipPath id="clip0_1693_201">
<rect width="19.2308" height="19.2308" fill="white" transform="translate(0.384766 0.192596)"/>
</clipPath>
</defs>
</svg>
