<svg width="22" height="23" viewBox="0 0 22 23" fill="none" xmlns="http://www.w3.org/2000/svg">
<g id="Home">
<g id="Group">
<path id="Vector" d="M5.20442 2.83374H7.32942C8.89421 2.83374 10.1627 4.10227 10.1627 5.66706V7.79206C10.1627 9.35686 8.89421 10.6254 7.32942 10.6254H5.20442C3.63962 10.6254 2.37109 9.35689 2.37109 7.79206V5.66706C2.37109 4.10227 3.63962 2.83374 5.20442 2.83374Z" fill="#4A74EA"/>
<path id="Vector_2" d="M14.4134 2.83374H16.5384C18.1032 2.83374 19.3717 4.10227 19.3717 5.66706V7.79206C19.3717 9.35686 18.1032 10.6254 16.5384 10.6254H14.4134C12.8486 10.6254 11.5801 9.35686 11.5801 7.79206V5.66706C11.58 4.10227 12.8486 2.83374 14.4134 2.83374Z" fill="#4A74EA"/>
<path id="Vector_3" d="M5.20442 12.0427H7.32942C8.89421 12.0427 10.1627 13.3112 10.1627 14.876V17.001C10.1627 18.5658 8.89421 19.8344 7.32942 19.8344H5.20442C3.63962 19.8344 2.37109 18.5659 2.37109 17.0011V14.8761C2.37109 13.3112 3.63962 12.0427 5.20442 12.0427Z" fill="#4A74EA"/>
<path id="Vector_4" d="M14.4134 12.0427H16.5384C18.1032 12.0427 19.3717 13.3112 19.3717 14.876V17.001C19.3717 18.5659 18.1032 19.8344 16.5384 19.8344H14.4134C12.8486 19.8344 11.5801 18.5659 11.5801 17.0011V14.8761C11.58 13.3112 12.8486 12.0427 14.4134 12.0427Z" fill="#4A74EA"/>
</g>
</g>
</svg>
