<svg width="18" height="18" viewBox="0 0 18 18" fill="none" xmlns="http://www.w3.org/2000/svg">
<g id="left 1" opacity="0.4">
<g id="17">
<path id="ic_Arrow down" d="M14.25 6.75C14.2506 6.8487 14.2317 6.94655 14.1944 7.03793C14.157 7.12931 14.102 7.21242 14.0325 7.2825L9.53252 11.7825C9.392 11.9222 9.20191 12.0006 9.00377 12.0006C8.80563 12.0006 8.61554 11.9222 8.47502 11.7825L3.97502 7.2825C3.85215 7.13902 3.78795 6.95447 3.79524 6.76571C3.80253 6.57695 3.88078 6.3979 4.01435 6.26433C4.14792 6.13076 4.32697 6.05251 4.51573 6.04522C4.70449 6.03793 4.88904 6.10213 5.03252 6.225L9.00002 10.1925L12.9675 6.225C13.072 6.11968 13.2053 6.04771 13.3507 6.01817C13.496 5.98863 13.6469 6.00285 13.7842 6.05905C13.9214 6.11524 14.039 6.21088 14.1219 6.33387C14.2048 6.45686 14.2494 6.60167 14.25 6.75Z" fill="#858585"/>
</g>
</g>
</svg>
