<svg width="19" height="19" viewBox="0 0 19 19" fill="none" xmlns="http://www.w3.org/2000/svg">
<g id="share-3 1">
<path id="Vector" d="M16.625 1.58334H11.875C11.665 1.58334 11.4637 1.66675 11.3152 1.81522C11.1667 1.96368 11.0833 2.16505 11.0833 2.37501C11.0833 2.58497 11.1667 2.78634 11.3152 2.9348C11.4637 3.08327 11.665 3.16668 11.875 3.16668H14.7139L8.14861 9.73197C8.073 9.805 8.01268 9.89235 7.97119 9.98894C7.9297 10.0855 7.90786 10.1894 7.90695 10.2945C7.90604 10.3996 7.92607 10.5039 7.96587 10.6012C8.00568 10.6985 8.06446 10.7869 8.1388 10.8612C8.21313 10.9355 8.30152 10.9943 8.39881 11.0341C8.4961 11.0739 8.60035 11.094 8.70547 11.093C8.81058 11.0921 8.91447 11.0703 9.01105 11.0288C9.10764 10.9873 9.195 10.927 9.26802 10.8514L15.8333 4.28609V7.12501C15.8333 7.33497 15.9167 7.53634 16.0652 7.6848C16.2137 7.83327 16.415 7.91668 16.625 7.91668C16.8349 7.91668 17.0363 7.83327 17.1848 7.6848C17.3332 7.53634 17.4167 7.33497 17.4167 7.12501V2.37501C17.4167 2.16505 17.3332 1.96368 17.1848 1.81522C17.0363 1.66675 16.8349 1.58334 16.625 1.58334Z" fill="black"/>
<path id="Vector_2" d="M15.0416 8.38216C14.8317 8.38216 14.6303 8.46556 14.4819 8.61403C14.3334 8.7625 14.25 8.96386 14.25 9.17382V14.8445C14.2498 15.1067 14.1455 15.3581 13.9601 15.5435C13.7747 15.7289 13.5234 15.8331 13.2612 15.8333H4.15544C3.89326 15.8331 3.64188 15.7289 3.45649 15.5435C3.2711 15.3581 3.16686 15.1067 3.16665 14.8445V5.73878C3.16686 5.4766 3.2711 5.22522 3.45649 5.03983C3.64188 4.85444 3.89326 4.7502 4.15544 4.74999H9.08119C9.29115 4.74999 9.49251 4.66658 9.64098 4.51812C9.78945 4.36965 9.87285 4.16829 9.87285 3.95832C9.87285 3.74836 9.78945 3.547 9.64098 3.39853C9.49251 3.25006 9.29115 3.16666 9.08119 3.16666H4.15544C3.47353 3.16749 2.81978 3.43875 2.3376 3.92094C1.85541 4.40313 1.58415 5.05687 1.58331 5.73878V14.8429C1.58373 15.5251 1.85481 16.1793 2.33704 16.6618C2.81927 17.1443 3.47325 17.4158 4.15544 17.4167H13.2596C13.9418 17.4162 14.5959 17.1452 15.0785 16.6629C15.561 16.1807 15.8325 15.5267 15.8333 14.8445V9.17382C15.8333 8.96386 15.7499 8.7625 15.6014 8.61403C15.453 8.46556 15.2516 8.38216 15.0416 8.38216Z" fill="black"/>
</g>
</svg>
