<svg width="18" height="18" viewBox="0 0 18 18" fill="none" xmlns="http://www.w3.org/2000/svg">
<g id="left 1" opacity="0.4">
<g id="17">
<path id="Vector" d="M14.25 6.75001C14.2506 6.84872 14.2317 6.94657 14.1944 7.03794C14.157 7.12932 14.102 7.21243 14.0325 7.28251L9.53252 11.7825C9.392 11.9222 9.20191 12.0006 9.00377 12.0006C8.80563 12.0006 8.61554 11.9222 8.47502 11.7825L3.97502 7.28252C3.85215 7.13904 3.78795 6.95448 3.79524 6.76573C3.80253 6.57697 3.88078 6.39791 4.01435 6.26434C4.14792 6.13077 4.32697 6.05252 4.51573 6.04523C4.70449 6.03794 4.88904 6.10215 5.03252 6.22502L9.00002 10.1925L12.9675 6.22501C13.072 6.1197 13.2053 6.04772 13.3507 6.01818C13.496 5.98864 13.6469 6.00287 13.7842 6.05906C13.9214 6.11526 14.039 6.2109 14.1219 6.33388C14.2048 6.45687 14.2494 6.60169 14.25 6.75001Z" fill="black"/>
</g>
</g>
</svg>
