<svg width="22" height="22" viewBox="0 0 22 22" fill="none" xmlns="http://www.w3.org/2000/svg">
<path d="M14.3469 15.2326V19.4826H17.1802C18.3538 19.4826 19.3052 18.5312 19.3052 17.3576V10.8969C19.3053 10.5289 19.1623 10.1753 18.9064 9.91088L12.887 3.4034C11.8249 2.25424 10.0323 2.18368 8.88315 3.24579C8.82856 3.29625 8.77597 3.34882 8.72553 3.4034L2.71673 9.90876C2.45303 10.1742 2.30508 10.5333 2.30518 10.9075V17.3576C2.30518 18.5312 3.25658 19.4826 4.43018 19.4826H7.2635V15.2326C7.27675 13.3011 8.8362 11.7238 10.719 11.6784C12.6649 11.6314 14.332 13.2356 14.3469 15.2326Z" fill="#4A74EA"/>
<path d="M10.8052 13.1084C9.63158 13.1084 8.68018 14.0598 8.68018 15.2334V19.4834H12.9302V15.2334C12.9302 14.0598 11.9788 13.1084 10.8052 13.1084Z" fill="#4A74EA"/>
</svg>
