<svg width="22" height="22" viewBox="0 0 22 22" fill="none" xmlns="http://www.w3.org/2000/svg">
<g id="back 1">
<path id="Vector" d="M20.1667 10.0833H4.04617L8.89809 5.23141C8.98564 5.14685 9.05548 5.0457 9.10352 4.93386C9.15156 4.82203 9.17685 4.70174 9.1779 4.58003C9.17896 4.45831 9.15577 4.33761 9.10968 4.22495C9.06359 4.1123 8.99552 4.00995 8.90945 3.92388C8.82338 3.83781 8.72104 3.76975 8.60838 3.72366C8.49573 3.67757 8.37502 3.65437 8.25331 3.65543C8.13159 3.65649 8.01131 3.68178 7.89947 3.72982C7.78763 3.77786 7.68648 3.84769 7.60192 3.93524L1.18526 10.3519C1.01341 10.5238 0.91687 10.7569 0.91687 11C0.91687 11.2431 1.01341 11.4762 1.18526 11.6481L7.60192 18.0647C7.77481 18.2317 8.00636 18.3241 8.24671 18.322C8.48706 18.3199 8.71697 18.2235 8.88692 18.0536C9.05688 17.8836 9.15329 17.6537 9.15538 17.4134C9.15746 17.173 9.06507 16.9415 8.89809 16.7686L4.04617 11.9167H20.1667C20.4098 11.9167 20.6429 11.8201 20.8149 11.6482C20.9868 11.4763 21.0833 11.2431 21.0833 11C21.0833 10.7569 20.9868 10.5237 20.8149 10.3518C20.6429 10.1799 20.4098 10.0833 20.1667 10.0833Z" fill="black"/>
</g>
</svg>
