<svg width="17" height="19" viewBox="0 0 17 19" fill="none" xmlns="http://www.w3.org/2000/svg">
<path d="M0.94545 15.4806V6.80898C0.94545 5.91442 1.17748 5.23791 1.64153 4.77945C2.10558 4.31539 2.79048 4.08337 3.69623 4.08337H4.88711C4.90388 3.45717 5.07441 2.88409 5.39869 2.36413C5.72856 1.84417 6.16465 1.43043 6.70698 1.12293C7.2549 0.80983 7.86153 0.653282 8.52686 0.653282C9.18659 0.653282 9.78763 0.80983 10.33 1.12293C10.8779 1.43043 11.3168 1.84417 11.6466 2.36413C11.9765 2.88409 12.147 3.45717 12.1582 4.08337H13.3575C14.2576 4.08337 14.9397 4.31539 15.4038 4.77945C15.8734 5.23791 16.1083 5.91442 16.1083 6.80898V15.4806C16.1083 16.3752 15.8846 17.0517 15.4373 17.5102C14.9901 17.9742 14.3667 18.2062 13.5671 18.2062H3.69623C2.79048 18.2062 2.10558 17.9742 1.64153 17.5102C1.17748 17.0517 0.94545 16.3752 0.94545 15.4806ZM2.59759 15.3381C2.59759 15.7462 2.69823 16.0509 2.89951 16.2522C3.10637 16.4535 3.40549 16.5541 3.79686 16.5541H13.4581C13.7433 16.5541 13.9809 16.4535 14.171 16.2522C14.3611 16.0509 14.4561 15.7462 14.4561 15.3381V6.95155C14.4561 6.54341 14.3499 6.2387 14.1374 6.03742C13.9306 5.83615 13.6342 5.73551 13.2485 5.73551H3.79686C3.40549 5.73551 3.10637 5.83615 2.89951 6.03742C2.69823 6.2387 2.59759 6.54341 2.59759 6.95155V15.3381ZM6.48893 4.08337H10.5564C10.5508 3.71995 10.4585 3.39008 10.2796 3.09376C10.1007 2.79743 9.85751 2.56261 9.55001 2.38929C9.2481 2.21038 8.90704 2.12092 8.52686 2.12092C8.14108 2.12092 7.79723 2.21038 7.49531 2.38929C7.1934 2.56261 6.95019 2.79743 6.76569 3.09376C6.58678 3.39008 6.49452 3.71995 6.48893 4.08337Z" fill="#999999"/>
</svg>
