<svg width="30" height="30" viewBox="0 0 30 30" fill="none" xmlns="http://www.w3.org/2000/svg">
<g clip-path="url(#clip0_2736_5332)">
<path d="M15 6.39502C10.2551 6.39502 6.39502 10.2551 6.39502 15C6.39502 19.745 10.2551 23.605 15 23.605C19.745 23.605 23.605 19.745 23.605 15C23.605 10.2551 19.745 6.39502 15 6.39502ZM12.1317 21.5714V20.0196C12.1317 19.6238 12.4537 19.3025 12.8488 19.3025H17.1513C17.5464 19.3025 17.8684 19.6238 17.8684 20.0196V21.5714C16.9892 21.9564 16.0197 22.1709 15 22.1709C13.9803 22.1709 13.0108 21.9564 12.1317 21.5714ZM19.3025 20.7331V20.0196C19.3025 18.8335 18.3373 17.8684 17.1513 17.8684H12.8488C11.6627 17.8684 10.6975 18.8335 10.6975 20.0196V20.7331C8.95716 19.4237 7.82919 17.3413 7.82919 15C7.82919 11.046 11.046 7.82919 15 7.82919C18.954 7.82919 22.1709 11.046 22.1709 15C22.1709 17.3406 21.0429 19.4237 19.3025 20.7331ZM15 10.6975C13.4181 10.6975 12.1317 11.984 12.1317 13.5659C12.1317 15.1477 13.4181 16.4342 15 16.4342C16.5819 16.4342 17.8684 15.1477 17.8684 13.5659C17.8684 11.984 16.5819 10.6975 15 10.6975ZM15 15C14.2091 15 13.5659 14.3568 13.5659 13.5659C13.5659 12.7749 14.2091 12.1317 15 12.1317C15.791 12.1317 16.4342 12.7749 16.4342 13.5659C16.4342 14.3568 15.791 15 15 15Z" fill="#8C8C8C"/>
</g>
<defs>
<clipPath id="clip0_2736_5332">
<rect width="17.21" height="17.21" fill="white" transform="translate(6.39502 6.39502)"/>
</clipPath>
</defs>
</svg>
