<svg width="110" height="111" viewBox="0 0 110 111" fill="none" xmlns="http://www.w3.org/2000/svg">
<g id="Delivered">
<path id="Vector" d="M55.1796 110.347C85.4247 110.347 109.943 85.8284 109.943 55.5834C109.943 25.3383 85.4247 0.819824 55.1796 0.819824C24.9345 0.819824 0.416077 25.3383 0.416077 55.5834C0.416077 85.8284 24.9345 110.347 55.1796 110.347Z" fill="#D6DCEA"/>
<g id="Group">
<g id="Group_2">
<path id="Vector_2" d="M68.7783 44.2304V32.6646L39.6465 46.9845C39.0481 47.2796 38.3432 47.2796 37.7366 46.9845L8.61301 32.6727V72.4851C8.61301 74.1491 9.55565 75.6655 11.0557 76.4032L35.2038 88.2724C37.4087 89.3544 39.999 89.3544 42.2039 88.2724L66.3438 76.4032C67.8357 75.6655 68.7865 74.1491 68.7865 72.4851V50.7059" fill="white"/>
<path id="Vector_3" d="M38.6957 90.4283C37.2858 90.4283 35.8841 90.1168 34.5972 89.4857L10.4491 77.6165C8.48186 76.6493 7.25232 74.682 7.25232 72.4853V32.6729C7.25232 32.2057 7.49003 31.7712 7.89168 31.5253C8.28513 31.2794 8.78514 31.2548 9.20318 31.4597L38.335 45.7797C38.5645 45.8945 38.8186 45.8945 39.0481 45.7797L68.1799 31.4597C68.598 31.2548 69.098 31.2794 69.4914 31.5253C69.8849 31.7712 70.1308 32.2057 70.1308 32.6729V44.2387C70.1308 44.9846 69.5242 45.5912 68.7783 45.5912C68.0324 45.5912 67.4258 44.9846 67.4258 44.2387V34.8451L40.2449 48.206C39.2776 48.6814 38.1137 48.6814 37.1464 48.206L9.9655 34.8451V72.4853C9.9655 73.641 10.6131 74.6738 11.6459 75.1902L35.7939 87.0594C37.6137 87.9528 39.7776 87.9528 41.5974 87.0594L65.7454 75.1902C66.7865 74.682 67.4258 73.641 67.4258 72.4853V50.7061C67.4258 49.9602 68.0324 49.3536 68.7783 49.3536C69.5242 49.3536 70.1308 49.9602 70.1308 50.7061V72.4853C70.1308 74.682 68.9095 76.6493 66.934 77.6165L42.7859 89.4857C41.5072 90.1168 40.0973 90.4283 38.6875 90.4283H38.6957Z" fill="#3C50A0"/>
</g>
<g id="Group_3">
<path id="Vector_4" d="M20.0969 76.8381C19.8919 76.8381 19.6952 76.7971 19.4985 76.6987L13.0721 73.5429C12.4 73.215 12.1213 72.4035 12.4573 71.7314C12.7852 71.0593 13.5967 70.7888 14.2689 71.1166L20.6952 74.2724C21.3674 74.6003 21.6461 75.4118 21.31 76.084C21.0723 76.5594 20.5969 76.8381 20.0969 76.8381Z" fill="#3C50A0"/>
</g>
<g id="Group_4">
<path id="Vector_5" d="M67.9341 33.2307L40.54 46.69C39.3761 47.2638 38.0072 47.2638 36.8432 46.69L9.45736 33.2307C8.3098 32.6651 8.34258 31.0093 9.52294 30.5011L37.0318 18.5664C38.0974 18.1074 39.3023 18.1074 40.3679 18.5664L67.8767 30.5011C69.0571 31.0093 69.0899 32.6651 67.9423 33.2307H67.9341Z" fill="white"/>
<path id="Vector_6" d="M38.6957 48.4685C37.8596 48.4685 37.0153 48.28 36.253 47.9029L8.85896 34.4436C7.85074 33.9436 7.23598 32.9354 7.26057 31.8124C7.28516 30.6894 7.94911 29.7058 8.98192 29.2632L36.4907 17.3285C37.8924 16.7219 39.499 16.7219 40.9007 17.3285L68.4095 29.2632C69.4423 29.714 70.0981 30.6894 70.1308 31.8124C70.1554 32.9436 69.5489 33.9518 68.5325 34.4436L41.1384 47.9029C40.3761 48.28 39.5318 48.4685 38.6957 48.4685ZM38.6957 19.5744C38.3104 19.5744 37.9252 19.6482 37.5645 19.8121L10.0557 31.7468C10.0557 31.7468 9.96555 31.7878 9.96555 31.8862C9.96555 31.9845 10.0229 32.0091 10.0475 32.0255L37.4416 45.4848C38.2285 45.8701 39.1629 45.8701 39.9416 45.4848L67.3357 32.0255C67.3357 32.0255 67.4259 31.9845 67.4177 31.8862C67.4177 31.7878 67.3521 31.7632 67.3275 31.7468L39.8187 19.8121C39.458 19.6564 39.0728 19.5744 38.6875 19.5744H38.6957Z" fill="#3C50A0"/>
</g>
<path id="Vector_7" d="M50.8927 82.7646V72.1414C50.8927 71.666 51.3599 71.4201 51.6304 71.7643L53.155 73.6742C53.3763 73.9529 53.7616 73.8464 53.8682 73.4775L54.7452 70.461C54.86 70.0676 55.278 69.9774 55.4829 70.3053L56.8108 72.3463C57.0076 72.6496 57.3928 72.6004 57.5322 72.248L58.6469 69.4692C58.8519 68.961 59.4666 69.1413 59.4666 69.7069V78.5514L50.8927 82.7646Z" fill="#3C50A0"/>
<path id="Vector_8" d="M38.6957 89.732C37.9498 89.732 37.3432 89.1254 37.3432 88.3795V56.8706C37.3432 56.1246 37.9498 55.5181 38.6957 55.5181C39.4416 55.5181 40.0482 56.1246 40.0482 56.8706V88.3795C40.0482 89.1254 39.4416 89.732 38.6957 89.732Z" fill="#3C50A0"/>
<path id="Vector_9" d="M49.8517 23.9516L20.2034 37.2387C19.8264 37.4109 19.5805 37.7879 19.5805 38.1978V48.1406C19.5805 48.616 20.0477 48.862 20.3182 48.5177L21.851 46.6078C22.0723 46.3291 22.4576 46.4357 22.5641 46.8045L23.4412 49.821C23.556 50.2144 23.974 50.3046 24.1789 49.9767L25.5068 47.9357C25.7036 47.6324 26.0888 47.6816 26.2282 48.0341L27.3429 50.8128C27.5479 51.321 28.1626 51.1407 28.1626 50.5751V42.3864C28.1626 41.9848 28.3922 41.6159 28.761 41.4356L57.819 27.3943L49.8599 23.9434L49.8517 23.9516Z" fill="#3C50A0"/>
</g>
<g id="Group_5">
<g id="Group_6">
<path id="Vector_10" d="M50.8926 65.1161V57.4028L73.6062 68.567L96.3199 57.4028V87.9855C96.3199 88.9199 95.7871 89.7724 94.951 90.1823L74.803 100.084C74.0489 100.453 73.1718 100.453 72.4177 100.084L52.2697 90.1823C51.4336 89.7724 50.9008 88.9199 50.9008 87.9855V72.1327" fill="white"/>
<path id="Vector_11" d="M73.6063 101.724C72.9997 101.724 72.3849 101.584 71.8194 101.306L51.6714 91.4036C50.3599 90.7561 49.5484 89.4528 49.5484 87.9855V72.1327C49.5484 71.3868 50.1549 70.7802 50.9008 70.7802C51.6468 70.7802 52.2533 71.3868 52.2533 72.1327V87.9855C52.2533 88.4118 52.491 88.7888 52.8681 88.9692L73.0161 98.871C73.3932 99.0513 73.8276 99.0595 74.2047 98.871L94.3527 88.9692C94.7297 88.7806 94.9674 88.4036 94.9674 87.9855V59.575L74.2047 69.7802C73.8276 69.9687 73.385 69.9687 73.0079 69.7802L52.2451 59.575V65.1162C52.2451 65.8621 51.6386 66.4686 50.8926 66.4686C50.1467 66.4686 49.5402 65.8621 49.5402 65.1162V57.4029C49.5402 56.9356 49.7779 56.5012 50.1795 56.2553C50.573 56.0094 51.073 55.9848 51.491 56.1897L73.6063 67.0588L95.7215 56.1897C96.1396 55.9848 96.6396 56.0094 97.033 56.2553C97.4265 56.5012 97.6724 56.9356 97.6724 57.4029V87.9855C97.6724 89.4446 96.8609 90.7561 95.5494 91.4036L75.4014 101.306C74.8358 101.584 74.221 101.724 73.6145 101.724H73.6063Z" fill="#3C50A0"/>
</g>
<g id="Group_7">
<path id="Vector_12" d="M87.6394 91.0842C87.1394 91.0842 86.6557 90.8055 86.4262 90.3301C86.0984 89.6579 86.3689 88.8464 87.041 88.5186L91.8936 86.1333C92.5657 85.8054 93.3772 86.0841 93.7051 86.748C94.033 87.4202 93.7625 88.2317 93.0903 88.5595L88.2377 90.9448C88.0492 91.0432 87.8443 91.0842 87.6394 91.0842Z" fill="#3C50A0"/>
</g>
<g id="Group_8">
<path id="Vector_13" d="M51.5484 58.1572L72.2374 68.3214C73.0981 68.7476 74.1145 68.7476 74.9752 68.3214L95.6642 58.1572C96.5248 57.731 96.4921 56.5015 95.615 56.1162L74.844 47.1078C74.0571 46.7635 73.1637 46.7635 72.3686 47.1078L51.5976 56.1162C50.7205 56.4933 50.6877 57.731 51.5484 58.1572Z" fill="white"/>
<path id="Vector_14" d="M73.6064 69.9933C72.9343 69.9933 72.2539 69.8458 71.6392 69.5425L50.9502 59.3701C50.0731 58.9357 49.5485 58.0668 49.5649 57.0914C49.5895 56.116 50.1633 55.2717 51.0567 54.8782L71.8277 45.8698C72.9589 45.378 74.2458 45.378 75.3769 45.8698L96.1479 54.8782C97.0414 55.2635 97.6152 56.116 97.6397 57.0914C97.6643 58.0668 97.1315 58.9439 96.2545 59.3701L75.5655 69.5343C74.9507 69.8376 74.2704 69.9851 73.5982 69.9851L73.6064 69.9933ZM52.5895 57.1652L72.8277 67.1162C73.3113 67.3539 73.8933 67.3539 74.3769 67.1162L94.6151 57.1652L74.295 48.3535C73.8523 48.165 73.3441 48.165 72.9015 48.3535L52.5813 57.1652H52.5895Z" fill="#3C50A0"/>
</g>
<path id="Vector_15" d="M73.6063 101.519C72.8604 101.519 72.2538 100.912 72.2538 100.166V75.6738C72.2538 74.9279 72.8604 74.3213 73.6063 74.3213C74.3522 74.3213 74.9588 74.9279 74.9588 75.6738V100.166C74.9588 100.912 74.3522 101.519 73.6063 101.519Z" fill="#3C50A0"/>
<path id="Vector_16" d="M87.9017 60.9931L66.5651 51.124L60.5568 53.7306L81.4589 64.1653C81.8032 64.3292 82.0163 64.6735 82.0163 65.0588V71.1163C82.0163 71.5425 82.4835 71.6819 82.6311 71.2966L83.4753 69.1982C83.5819 68.9359 83.8688 68.8949 84.0163 69.1244L85.0164 70.6655C85.1721 70.9114 85.4918 70.8458 85.5738 70.5507L86.2377 68.272C86.3197 67.9933 86.6066 67.9113 86.7705 68.1244L87.9263 69.5671C88.1312 69.8212 88.4837 69.6408 88.4837 69.2802V61.903C88.4837 61.5095 88.2541 61.157 87.9017 61.0013V60.9931Z" fill="#3C50A0"/>
</g>
<g id="Group_9">
<path id="Vector_17" d="M19.4821 17.5169C18.8673 17.5169 18.3181 17.0989 18.1706 16.4841L16.9902 11.5823C16.8181 10.8528 17.2607 10.1233 17.9902 9.95117C18.7116 9.77903 19.4493 10.2217 19.6214 10.9512L20.8018 15.8529C20.9739 16.5825 20.5313 17.312 19.8018 17.4841C19.6952 17.5087 19.5886 17.5251 19.4821 17.5251V17.5169Z" fill="#3C50A0"/>
</g>
<g id="Group_10">
<path id="Vector_18" d="M14.9656 20.4678C14.6623 20.4678 14.3672 20.3694 14.1131 20.1645L7.01461 14.4185C6.43263 13.9513 6.34247 13.0988 6.81789 12.5168C7.29331 11.9348 8.14579 11.8447 8.71957 12.3201L15.8181 18.0661C16.4001 18.5333 16.4902 19.3858 16.0148 19.9678C15.7443 20.2957 15.3591 20.4678 14.9656 20.4678Z" fill="#3C50A0"/>
</g>
<g id="Group_11">
<g id="Group_12">
<path id="Vector_19" d="M57.9584 35.2137V32.4678L73.5243 40.1155L89.0902 32.4678V53.4273C89.0902 54.0666 88.7296 54.6568 88.1476 54.9355L74.3358 61.7225C73.8194 61.9766 73.221 61.9766 72.7046 61.7225L58.8928 54.9355C58.319 54.6568 57.9502 54.0666 57.9502 53.4273V41.2303" fill="white"/>
<path id="Vector_20" d="M73.5243 63.2636C73.0407 63.2636 72.5571 63.157 72.1144 62.9357L58.3026 56.1487C57.2698 55.6405 56.6059 54.5749 56.6059 53.4273V41.2303C56.6059 40.4844 57.2124 39.8778 57.9584 39.8778C58.7043 39.8778 59.3108 40.4844 59.3108 41.2303V53.4273C59.3108 53.5503 59.3846 53.665 59.4912 53.7224L73.303 60.5094C73.4423 60.575 73.6063 60.575 73.7456 60.5094L87.5574 53.7224C87.6721 53.665 87.7377 53.5503 87.7377 53.4273V34.64L74.1227 41.3369C73.7456 41.5254 73.303 41.5254 72.9259 41.3369L59.3108 34.64V35.2138C59.3108 35.9597 58.7043 36.5663 57.9584 36.5663C57.2124 36.5663 56.6059 35.9597 56.6059 35.2138V32.4678C56.6059 32.0006 56.8436 31.5661 57.2452 31.3202C57.6387 31.0743 58.1387 31.0497 58.5567 31.2547L73.5243 38.6155L88.4918 31.2547C88.9099 31.0497 89.4099 31.0743 89.8033 31.3202C90.1968 31.5661 90.4427 32.0006 90.4427 32.4678V53.4273C90.4427 54.5749 89.7788 55.6405 88.7459 56.1487L74.9342 62.9357C74.4915 63.157 74.0079 63.2636 73.5243 63.2636Z" fill="#3C50A0"/>
</g>
<g id="Group_13">
<path id="Vector_21" d="M83.1474 55.9765C82.6474 55.9765 82.1638 55.6978 81.9343 55.2224C81.6064 54.5503 81.8769 53.7388 82.5491 53.4109L85.877 51.7797C86.5491 51.4518 87.3606 51.7223 87.6885 52.3945C88.0164 53.0666 87.7459 53.8781 87.0738 54.206L83.7458 55.8372C83.5573 55.9355 83.3524 55.9765 83.1474 55.9765Z" fill="#3C50A0"/>
</g>
<g id="Group_14">
<path id="Vector_22" d="M58.4092 32.9843L72.5899 39.9516C73.18 40.2467 73.8768 40.2467 74.467 39.9516L88.6476 32.9843C89.2378 32.6974 89.2132 31.8449 88.6148 31.5908L74.3768 25.4185C73.8358 25.1808 73.221 25.1808 72.68 25.4185L58.442 31.5908C57.8436 31.8531 57.819 32.6974 58.4092 32.9843Z" fill="white"/>
<path id="Vector_23" d="M73.5245 41.5174C72.9999 41.5174 72.4671 41.4026 71.9834 41.1649L57.811 34.1975C57.0569 33.8287 56.606 33.0746 56.6306 32.2467C56.647 31.4106 57.1388 30.6811 57.9093 30.3532L72.1474 24.1727C73.0244 23.7875 74.0409 23.7875 74.9179 24.1727L89.156 30.345C89.9265 30.6811 90.4183 31.4024 90.4347 32.2385C90.4511 33.0746 90.0002 33.8205 89.2461 34.1894L75.0655 41.1567C74.5819 41.3944 74.0573 41.5092 73.5327 41.5092L73.5245 41.5174ZM60.1389 32.3205L73.1884 38.7304C73.4015 38.837 73.6556 38.837 73.8687 38.7304L86.9182 32.3205L73.8359 26.6482C73.6392 26.5662 73.4097 26.5662 73.2212 26.6482L60.1389 32.3205Z" fill="#3C50A0"/>
</g>
<path id="Vector_24" d="M73.5243 63.1329C72.7784 63.1329 72.1718 62.5263 72.1718 61.7804V44.9931C72.1718 44.2472 72.7784 43.6406 73.5243 43.6406C74.2702 43.6406 74.8768 44.2472 74.8768 44.9931V61.7804C74.8768 62.5263 74.2702 63.1329 73.5243 63.1329Z" fill="#3C50A0"/>
</g>
</g>
</svg>
