<svg width="76" height="76" viewBox="0 0 76 76" fill="none" xmlns="http://www.w3.org/2000/svg">
<g id="delivery-cancelled 1">
<g id="g1606">
<path id="path1562" d="M6.38586 3.97681C4.62925 3.97681 3.16663 5.43972 3.16663 7.19604V13.1861C3.16663 14.7482 4.32508 16.0715 5.81685 16.3466V52.6705C5.74253 55.8239 8.63776 57.4267 11.2967 57.4267H32.4274C33.3018 57.4267 34.0107 56.7178 34.0107 55.8433C34.0107 54.9689 33.3018 54.26 32.4274 54.26H11.2967C10.031 54.26 8.99558 53.8001 8.98352 52.6705V16.4054H24.4396V36.129C24.4399 37.5288 26.1233 38.2397 27.1269 37.2639L32.5665 31.9604L38.0061 37.2639C39.0097 38.2449 40.6989 37.5323 40.6966 36.129V16.4054H56.1526V31.7223C56.1526 32.5967 56.8615 33.3056 57.736 33.3056C58.6104 33.3056 59.3193 32.5967 59.3193 31.7223V16.3466C60.8102 16.0703 61.9695 14.7472 61.9695 13.1861V7.19604C61.9695 5.43972 60.5038 3.97681 58.7472 3.97681H6.38586ZM24.4396 7.14384V13.2391H6.38586C6.26414 11.3888 6.33329 9.16231 6.33329 7.19604C12.4489 7.08632 18.5263 7.14289 24.4396 7.14384ZM27.6062 7.14384H37.5299V32.3782L33.6736 28.6178C33.0586 28.018 32.0775 28.018 31.4625 28.6178L27.6062 32.3751V7.14384ZM40.6966 7.14384H58.7472C58.8899 9.22279 58.8098 11.4951 58.7472 13.239H40.6966V7.14384Z" fill="#72A114"/>
<path id="circle1574" d="M55.0302 36.4166C45.2166 36.4166 37.2269 44.4061 37.2269 54.2198C37.2269 64.0336 45.2166 72.0231 55.0302 72.0231C64.8437 72.0231 72.8334 64.0336 72.8334 54.2198C72.8334 44.4061 64.8437 36.4166 55.0302 36.4166ZM55.0302 39.5833C63.1322 39.5833 69.6667 46.1175 69.6667 54.2198C69.6667 62.3222 63.1322 68.8564 55.0302 68.8564C46.9281 68.8564 40.3936 62.3222 40.3936 54.2198C40.3936 46.1175 46.9281 39.5833 55.0302 39.5833Z" fill="#72A114"/>
<path id="Deliveredk" d="M52.4001 63C51.8625 63 51.3256 62.7907 50.9154 62.3721L44.6154 55.9436C43.795 55.1064 43.795 53.7507 44.6154 52.9136C45.4358 52.0764 46.7644 52.0764 47.5848 52.9136L52.4001 57.8271L61.4154 48.6279C62.2358 47.7907 63.5644 47.7907 64.3848 48.6279C65.2052 49.465 65.2052 50.8207 64.3848 51.6579L53.8848 62.3721C53.4746 62.7907 52.9377 63 52.4001 63Z" fill="#72A114"/>
</g>
</g>
</svg>
