<svg width="22" height="22" viewBox="0 0 22 22" fill="none" xmlns="http://www.w3.org/2000/svg">
<g id="heart-2 1">
<path id="Vector" d="M11 19.7936C10.7153 19.7936 10.4408 19.6904 10.2268 19.5031C9.41888 18.7966 8.63992 18.1327 7.95267 17.547L7.94916 17.544C5.93423 15.8269 4.19427 14.3441 2.98364 12.8833C1.63034 11.2503 1 9.70203 1 8.01059C1 6.36722 1.56351 4.8511 2.58661 3.74133C3.62192 2.61844 5.04251 2 6.58716 2C7.74164 2 8.79892 2.36499 9.72955 3.08475C10.1992 3.44806 10.6249 3.8927 11 4.41135C11.3752 3.8927 11.8008 3.44806 12.2706 3.08475C13.2012 2.36499 14.2585 2 15.413 2C16.9575 2 18.3782 2.61844 19.4135 3.74133C20.4366 4.8511 21 6.36722 21 8.01059C21 9.70203 20.3698 11.2503 19.0165 12.8832C17.8059 14.3441 16.0661 15.8268 14.0515 17.5437C13.363 18.1302 12.5828 18.7952 11.773 19.5034C11.5592 19.6904 11.2846 19.7936 11 19.7936ZM6.58716 3.17157C5.37363 3.17157 4.25882 3.65588 3.44781 4.5354C2.62476 5.42819 2.17142 6.66232 2.17142 8.01059C2.17142 9.43317 2.70013 10.7054 3.88559 12.1358C5.03137 13.5184 6.73563 14.9707 8.70889 16.6524L8.71255 16.6555C9.4024 17.2434 10.1844 17.9099 10.9983 18.6216C11.8171 17.9085 12.6003 17.2409 13.2916 16.6521C15.2647 14.9704 16.9688 13.5184 18.1146 12.1358C19.2999 10.7054 19.8286 9.43317 19.8286 8.01059C19.8286 6.66232 19.3752 5.42819 18.5522 4.5354C17.7413 3.65588 16.6264 3.17157 15.413 3.17157C14.524 3.17157 13.7078 3.45416 12.9872 4.01141C12.3449 4.50824 11.8975 5.13629 11.6352 5.57574C11.5003 5.80173 11.2629 5.93661 11 5.93661C10.7371 5.93661 10.4997 5.80173 10.3648 5.57574C10.1026 5.13629 9.65524 4.50824 9.01285 4.01141C8.29218 3.45416 7.47598 3.17157 6.58716 3.17157Z" fill="black"/>
</g>
</svg>
