<svg width="117" height="110" viewBox="0 0 117 110" fill="none" xmlns="http://www.w3.org/2000/svg">
<g id="LogIn / Logout">
<path id="Vector" d="M61.5589 109.527C91.804 109.527 116.322 85.0086 116.322 54.7635C116.322 24.5184 91.804 -3.05176e-05 61.5589 -3.05176e-05C31.3139 -3.05176e-05 6.79541 24.5184 6.79541 54.7635C6.79541 85.0086 31.3139 109.527 61.5589 109.527Z" fill="#D6DCEA"/>
<g id="Group 3183">
<g id="enter 1" clip-path="url(#clip0_2671_10180)">
<path id="Vector_2" d="M41.7085 26.5C41.7085 21.2624 45.9709 17 51.2085 17H82.875C83.9169 17 84.8922 17.5132 85.4842 18.3713C86.0762 19.2295 86.2061 20.3248 85.8327 21.2971L62.8742 81.4636C62.4086 82.6894 61.2309 83.5 59.9164 83.5H51.2085C45.9709 83.5 41.7085 79.2376 41.7085 74V26.5Z" fill="white"/>
<path id="Vector_3" d="M60.7085 29.6665V86.6665C60.7085 88.8519 62.4816 90.625 64.6664 90.625C65.11 90.625 65.5217 90.5618 65.9334 90.4348L84.9334 84.1019C86.485 83.5632 87.625 82.0748 87.625 80.3335V23.3335C87.625 21.1481 85.8518 19.375 83.6664 19.375C83.2234 19.375 82.8118 19.4382 82.4001 19.5652L63.4001 25.8981C61.8484 26.4368 60.7085 27.9252 60.7085 29.6665Z" fill="white"/>
<path id="Vector_4" d="M58.3335 29.6665C58.3335 26.9592 60.0562 24.5431 62.6208 23.6565L81.6463 17.3137C85.9435 15.9928 90 19.1628 90 23.3335V80.3335C90 83.0408 88.2773 85.4569 85.7121 86.3435L66.6872 92.6863C65.9873 92.902 65.3443 93 64.6664 93C61.1735 93 58.3335 90.1594 58.3335 86.6665M83.6664 21.75C83.467 21.75 83.2896 21.7755 83.0999 21.8352L64.1539 28.1531C63.5329 28.3653 63.0835 28.9921 63.0835 29.6665V86.6665C63.0835 87.7403 64.2072 88.4779 65.2335 88.1648L84.1796 81.8469C84.8 81.6347 85.25 81.0079 85.25 80.3335V23.3335C85.25 22.4591 84.5408 21.75 83.6664 21.75Z" fill="#3C50A0"/>
<path id="Vector_5" d="M46.4585 52.625H16.375C15.064 52.625 14 51.561 14 50.25C14 48.939 15.064 47.875 16.375 47.875H46.4585C47.7695 47.875 48.8335 48.939 48.8335 50.25C48.8335 51.561 47.7695 52.625 46.4585 52.625Z" fill="#3C50A0"/>
<path id="Vector_6" d="M34.5835 64.5C33.9753 64.5 33.3676 64.2686 32.9049 63.8036C31.9772 62.8753 31.9772 61.3712 32.9049 60.4435L43.1019 50.2471L32.9049 40.0536C31.9772 39.1253 31.9772 37.6212 32.9049 36.6935C33.8326 35.7657 35.3367 35.7657 36.265 36.6935L48.14 48.5685C49.0678 49.4962 49.0678 51.0003 48.14 51.9286L36.265 63.8036C35.7994 64.2686 35.1912 64.5 34.5835 64.5Z" fill="#3C50A0"/>
<path id="Vector_7" d="M64.6664 93C61.1735 93 58.3335 90.1594 58.3335 86.6665V29.6665C58.3335 26.9592 60.0562 24.5431 62.6208 23.653L81.6463 17.3102C85.9023 16.0056 90 19.1628 90 23.3335V80.3335C90 83.0379 88.2773 85.4506 85.7156 86.3435L66.6837 92.6898C65.9902 92.9049 65.3477 93 64.6664 93ZM83.6664 21.75C83.4606 21.75 83.2867 21.7755 83.0999 21.8323L64.1539 28.1496C63.5329 28.3653 63.0835 28.9921 63.0835 29.6665V86.6665C63.0835 87.7467 64.2548 88.475 65.2335 88.1677L84.1796 81.8504C84.7971 81.6347 85.25 81.0079 85.25 80.3335V23.3335C85.25 22.4626 84.5408 21.75 83.6664 21.75Z" fill="#3C50A0"/>
<path id="Vector_8" d="M41.7085 32.8335C40.3975 32.8335 39.3335 31.7695 39.3335 30.4585V25.7085C39.3335 20.9046 43.2375 17 48.0414 17H83.6664C84.9774 17 86.0414 18.064 86.0414 19.375C86.0414 20.686 84.9774 21.75 83.6664 21.75H48.0414C45.8595 21.75 44.0835 23.5266 44.0835 25.7085V30.4585C44.0835 31.7695 43.0195 32.8335 41.7085 32.8335Z" fill="#3C50A0"/>
<path id="Vector_9" d="M60.7085 83.5H48.0414C43.2375 83.5 39.3335 79.5954 39.3335 74.7915V70.0415C39.3335 68.7305 40.3975 67.6665 41.7085 67.6665C43.0195 67.6665 44.0835 68.7305 44.0835 70.0415V74.7915C44.0835 76.9734 45.8595 78.75 48.0414 78.75H60.7085C62.0195 78.75 63.0835 79.814 63.0835 81.125C63.0835 82.436 62.0195 83.5 60.7085 83.5Z" fill="#3C50A0"/>
</g>
</g>
</g>
<defs>
<clipPath id="clip0_2671_10180">
<rect width="76" height="76" fill="white" transform="translate(14 17)"/>
</clipPath>
</defs>
</svg>
