<svg width="235" height="200" viewBox="0 0 235 200" fill="none" xmlns="http://www.w3.org/2000/svg">
<path d="M156.875 148H177.901M60.3124 148H80.4257H60.3124ZM48.2449 148H54.6874H48.2449ZM182.307 148H185H182.307Z" stroke="#3A7997" stroke-width="2.5" stroke-linecap="round" stroke-linejoin="round"/>
<path d="M92.1875 43.3027L102.593 55.7559M141.031 43.3027L130.625 55.7559L141.031 43.3027ZM116.562 39V55.7559V39Z" stroke="#3A7997" stroke-width="2.5" stroke-linecap="round" stroke-linejoin="round"/>
<path d="M84.6875 124.463V86.8853C84.6875 85.337 85.8786 84.082 87.3479 84.082H148.214C149.17 84.082 149.946 84.9187 149.946 85.9508V154.164C149.946 156.228 148.395 157.902 146.481 157.902H88.1522C86.2387 157.902 84.6875 156.228 84.6875 154.164V140.199V136.41M84.6875 132.576V128.368" stroke="#3A7997" stroke-width="2.5" stroke-linecap="round"/>
<path d="M86.4341 84.082V72.8689C86.4341 71.8367 87.1381 71 88.0065 71H146.184C147.052 71 147.756 71.8367 147.756 72.8689V84.082" stroke="#3A7997" stroke-width="2.5"/>
<path d="M102.641 103.705C104.334 103.705 105.707 102.241 105.707 100.434C105.707 98.6282 104.334 97.1639 102.641 97.1639C100.947 97.1639 99.5745 98.6282 99.5745 100.434C99.5745 102.241 100.947 103.705 102.641 103.705Z" fill="#3A7997" stroke="#3A7997" stroke-width="2.5" stroke-linecap="round"/>
<path d="M131.549 103.705C133.243 103.705 134.616 102.241 134.616 100.434C134.616 98.6282 133.243 97.1639 131.549 97.1639C129.856 97.1639 128.483 98.6282 128.483 100.434C128.483 102.241 129.856 103.705 131.549 103.705Z" fill="#3A7997" stroke="#3A7997" stroke-width="2.5" stroke-linecap="round"/>
<path d="M131.111 103.705C131.111 111.962 124.836 118.656 117.095 118.656C109.354 118.656 103.079 111.962 103.079 103.705" stroke="#3A7997" stroke-width="2.5" stroke-linecap="round"/>
<path d="M87.3636 71.9315L93.5308 78.4251C93.8993 78.8131 93.9032 79.4463 93.5394 79.8393C93.4765 79.9073 93.4047 79.9654 93.3263 80.0117L86.4341 84.082" stroke="#3A7997" stroke-width="2.5" stroke-linecap="round"/>
<path d="M146.975 71.9992L141.074 78.4197C140.711 78.814 140.717 79.4472 141.087 79.8338C141.148 79.8984 141.218 79.9535 141.294 79.9977L148.313 84.082" stroke="#3A7997" stroke-width="2.5" stroke-linecap="round"/>
</svg>
