<svg width="30" height="30" viewBox="0 0 30 30" fill="none" xmlns="http://www.w3.org/2000/svg">
<path d="M19.3025 16.7211C19.3025 16.9493 19.2118 17.1682 19.0505 17.3295C18.8891 17.4909 18.6702 17.5816 18.442 17.5816H11.558C11.3298 17.5816 11.1109 17.4909 10.9495 17.3295C10.7882 17.1682 10.6975 16.9493 10.6975 16.7211C10.6975 16.4929 10.7882 16.274 10.9495 16.1126C11.1109 15.9512 11.3298 15.8606 11.558 15.8606H18.442C18.6702 15.8606 18.8891 15.9512 19.0505 16.1126C19.2118 16.274 19.3025 16.4929 19.3025 16.7211ZM15.8605 19.3026H11.558C11.3298 19.3026 11.1109 19.3932 10.9495 19.5546C10.7882 19.716 10.6975 19.9349 10.6975 20.1631C10.6975 20.3913 10.7882 20.6102 10.9495 20.7715C11.1109 20.9329 11.3298 21.0236 11.558 21.0236H15.8605C16.0887 21.0236 16.3076 20.9329 16.469 20.7715C16.6303 20.6102 16.721 20.3913 16.721 20.1631C16.721 19.9349 16.6303 19.716 16.469 19.5546C16.3076 19.3932 16.0887 19.3026 15.8605 19.3026ZM23.605 13.6964V21.0236C23.6036 22.1642 23.1499 23.2578 22.3433 24.0644C21.5367 24.871 20.4432 25.3247 19.3025 25.3261H10.6975C9.55684 25.3247 8.46328 24.871 7.6567 24.0644C6.85012 23.2578 6.39639 22.1642 6.39502 21.0236V8.97659C6.39639 7.83591 6.85012 6.74235 7.6567 5.93577C8.46328 5.12919 9.55684 4.67546 10.6975 4.67409H14.5827C15.374 4.67206 16.1579 4.82691 16.889 5.12969C17.6201 5.43248 18.284 5.87719 18.8421 6.43811L21.8401 9.43781C22.4014 9.99562 22.8463 10.6593 23.1493 11.3903C23.4522 12.1213 23.6071 12.9051 23.605 13.6964ZM17.6254 7.65486C17.3546 7.39255 17.0505 7.16689 16.721 6.98367V10.6976C16.721 10.9258 16.8117 11.1447 16.973 11.306C17.1344 11.4674 17.3533 11.5581 17.5815 11.5581H21.2954C21.1121 11.2287 20.8861 10.9249 20.6234 10.6546L17.6254 7.65486ZM21.884 13.6964C21.884 13.5544 21.8565 13.4185 21.8436 13.2791H17.5815C16.8968 13.2791 16.2402 13.0071 15.7561 12.523C15.272 12.0389 15 11.3822 15 10.6976V6.43553C14.8606 6.42263 14.7238 6.39509 14.5827 6.39509H10.6975C10.0129 6.39509 9.35624 6.66707 8.87212 7.15119C8.388 7.63532 8.11602 8.29193 8.11602 8.97659V21.0236C8.11602 21.7082 8.388 22.3648 8.87212 22.849C9.35624 23.3331 10.0129 23.6051 10.6975 23.6051H19.3025C19.9872 23.6051 20.6438 23.3331 21.1279 22.849C21.612 22.3648 21.884 21.7082 21.884 21.0236V13.6964Z" fill="#8C8C8C"/>
</svg>
