<svg width="127" height="110" viewBox="0 0 127 110" fill="none" xmlns="http://www.w3.org/2000/svg">
<g id="Dipatched">
<path id="Vector" d="M60.7749 109.527C91.0199 109.527 115.538 85.0086 115.538 54.7635C115.538 24.5185 91.0199 0 60.7749 0C30.5298 0 6.01132 24.5185 6.01132 54.7635C6.01132 85.0086 30.5298 109.527 60.7749 109.527Z" fill="#D6DCEA"/>
<g id="Group">
<path id="Vector_2" d="M55.5534 92.0759C60.6192 92.0759 64.7258 87.9693 64.7258 82.9035C64.7258 77.8378 60.6192 73.7312 55.5534 73.7312C50.4877 73.7312 46.3811 77.8378 46.3811 82.9035C46.3811 87.9693 50.4877 92.0759 55.5534 92.0759Z" fill="#3C50A0"/>
<path id="Vector_3" d="M111.26 92.0759C116.325 92.0759 120.432 87.9693 120.432 82.9035C120.432 77.8378 116.325 73.7312 111.26 73.7312C106.194 73.7312 102.087 77.8378 102.087 82.9035C102.087 87.9693 106.194 92.0759 111.26 92.0759Z" fill="#3C50A0"/>
<g id="Group_2">
<path id="Vector_4" d="M80.9228 83.4855H23.8641C20.7985 83.4855 18.3148 81.0018 18.3148 77.9362V32.1728C18.3148 29.1072 20.7985 26.6235 23.8641 26.6235H80.9228V83.4855Z" fill="white"/>
<path id="Vector_5" d="M80.9228 84.8461H23.8641C20.0608 84.8461 16.9623 81.7477 16.9623 77.9443V32.1728C16.9623 28.3694 20.0608 25.271 23.8641 25.271H80.9228C81.6687 25.271 82.2753 25.8776 82.2753 26.6235V83.4854C82.2753 84.2314 81.6687 84.8379 80.9228 84.8379V84.8461ZM23.8641 27.976C21.5526 27.976 19.6673 29.8613 19.6673 32.1728V77.9443C19.6673 80.2558 21.5526 82.1411 23.8641 82.1411H79.5703V27.976H23.8641Z" fill="#3C50A0"/>
</g>
<g id="Group_3">
<path id="Vector_6" d="M70.2013 26.6235H88.1607C90.4313 26.6235 92.2674 28.4678 92.2674 30.7302V82.9035H70.2013V26.6235Z" fill="white"/>
<path id="Vector_7" d="M92.2674 84.2559H70.2013C69.4554 84.2559 68.8488 83.6494 68.8488 82.9035V26.6235C68.8488 25.8776 69.4554 25.271 70.2013 25.271H88.1607C91.169 25.271 93.6199 27.7219 93.6199 30.7301V82.9035C93.6199 83.6494 93.0133 84.2559 92.2674 84.2559ZM71.5538 81.551H90.9149V30.7301C90.9149 29.2137 89.6772 27.976 88.1607 27.976H71.5538V81.551Z" fill="#3C50A0"/>
</g>
<path id="Vector_8" d="M104.882 60.157H76.4883V43.2468H100.759L104.882 60.157Z" fill="#3C50A0"/>
<g id="Group_4">
<path id="Vector_9" d="M75.5047 38.6731H102.038C103.3 38.6731 104.325 39.6977 104.325 40.96C104.325 42.2224 103.3 43.247 102.038 43.247H75.5047V38.6731Z" fill="white"/>
<path id="Vector_10" d="M102.038 44.5994H75.5047C74.7588 44.5994 74.1522 43.9928 74.1522 43.2469V38.673C74.1522 37.9271 74.7588 37.3206 75.5047 37.3206H102.038C104.046 37.3206 105.677 38.9517 105.677 40.96C105.677 42.9682 104.046 44.5994 102.038 44.5994ZM76.8572 41.8944H102.038C102.554 41.8944 102.973 41.4764 102.973 40.96C102.973 40.4436 102.554 40.0255 102.038 40.0255H76.8572V41.8944Z" fill="#3C50A0"/>
</g>
<g id="Group_5">
<path id="Vector_11" d="M87.2755 61.5096C86.6525 61.5096 86.0951 61.0834 85.9558 60.4522L82.9311 46.9273C82.7672 46.1978 83.2262 45.4764 83.9557 45.3125C84.6852 45.1486 85.4066 45.6076 85.5705 46.3371L88.5952 59.862C88.7591 60.5915 88.3001 61.3129 87.5705 61.4768C87.4722 61.5014 87.3738 61.5096 87.2755 61.5096Z" fill="#3C50A0"/>
</g>
<g id="Group_6">
<path id="Vector_12" d="M75.5047 83.4854H104.612V67.6572L87.2755 60.157H75.5047V83.4854Z" fill="white"/>
<path id="Vector_13" d="M104.612 84.8461H75.5047C74.7588 84.8461 74.1522 84.2395 74.1522 83.4936V60.1652C74.1522 59.4193 74.7588 58.8127 75.5047 58.8127H87.2754C87.464 58.8127 87.6443 58.8537 87.8082 58.9275L105.136 66.4195C105.628 66.6326 105.956 67.1244 105.956 67.6572V83.4936C105.956 84.2395 105.35 84.8461 104.604 84.8461H104.612ZM76.8572 82.1411H103.259V68.5507L87.0049 61.5177H76.8654V82.1411H76.8572Z" fill="#3C50A0"/>
</g>
<g id="Group_7">
<path id="Vector_14" d="M104.612 83.4854H120.555C123.284 83.4854 125.498 81.2722 125.498 78.5426V72.0834C125.498 69.6326 123.514 67.6489 121.063 67.6489H104.62V83.4854H104.612Z" fill="white"/>
<path id="Vector_15" d="M120.555 84.8461H104.612C103.866 84.8461 103.259 84.2395 103.259 83.4936V67.6572C103.259 66.9113 103.866 66.3047 104.612 66.3047H121.055C124.252 66.3047 126.842 68.9031 126.842 72.0999V78.5591C126.842 82.0264 124.022 84.8543 120.547 84.8543L120.555 84.8461ZM105.964 82.1411H120.555C122.53 82.1411 124.145 80.5345 124.145 78.5509V72.0917C124.145 70.3867 122.76 69.0097 121.063 69.0097H105.973V82.1411H105.964Z" fill="#3C50A0"/>
</g>
<g id="Group_8">
<path id="Vector_16" d="M104.612 67.6572H121.055C122.448 67.6572 123.227 68.2063 123.227 68.2063L104.645 60.157H87.2754L104.604 67.649L104.612 67.6572Z" fill="white"/>
<path id="Vector_17" d="M123.227 69.5588C123.047 69.5588 122.866 69.526 122.694 69.444L121.916 69.108C121.694 69.0506 121.407 69.0096 121.055 69.0096H104.612C104.423 69.0096 104.243 68.9686 104.079 68.8948L86.7508 61.4029C86.1607 61.1488 85.8328 60.5176 85.9639 59.8864C86.0951 59.2553 86.6443 58.8044 87.2918 58.8044H104.661C104.85 58.8044 105.03 58.8454 105.202 58.9192L122.866 66.5669C123.555 66.78 123.957 67.0505 124.03 67.0997C124.596 67.5014 124.768 68.2637 124.432 68.8702C124.186 69.3129 123.727 69.5588 123.252 69.5588H123.227ZM104.891 66.3046H115.432L104.366 61.5176H93.8166L104.891 66.3046Z" fill="#3C50A0"/>
</g>
<path id="Vector_18" d="M46.8647 44.5993H37.1268C36.3808 44.5993 35.7743 43.9927 35.7743 43.2468C35.7743 42.5009 36.3808 41.8943 37.1268 41.8943H46.8647C47.6106 41.8943 48.2172 42.5009 48.2172 43.2468C48.2172 43.9927 47.6106 44.5993 46.8647 44.5993Z" fill="#3C50A0"/>
<path id="Vector_19" d="M31.5692 44.5993H2.14235C1.39643 44.5993 0.789856 43.9927 0.789856 43.2468C0.789856 42.5009 1.39643 41.8943 2.14235 41.8943H31.5692C32.3152 41.8943 32.9217 42.5009 32.9217 43.2468C32.9217 43.9927 32.3152 44.5993 31.5692 44.5993Z" fill="#3C50A0"/>
<path id="Vector_20" d="M31.5693 55.1898H12.618C11.8721 55.1898 11.2655 54.5833 11.2655 53.8374C11.2655 53.0914 11.8721 52.4849 12.618 52.4849H31.5693C32.3152 52.4849 32.9218 53.0914 32.9218 53.8374C32.9218 54.5833 32.3152 55.1898 31.5693 55.1898Z" fill="#3C50A0"/>
<path id="Vector_21" d="M34.3808 92.0759C39.4465 92.0759 43.5531 87.9693 43.5531 82.9035C43.5531 77.8378 39.4465 73.7312 34.3808 73.7312C29.315 73.7312 25.2084 77.8378 25.2084 82.9035C25.2084 87.9693 29.315 92.0759 34.3808 92.0759Z" fill="#3C50A0"/>
<g id="Group_9">
<path id="Vector_22" d="M34.3808 86.6494C36.4497 86.6494 38.1268 84.9723 38.1268 82.9035C38.1268 80.8346 36.4497 79.1575 34.3808 79.1575C32.312 79.1575 30.6348 80.8346 30.6348 82.9035C30.6348 84.9723 32.312 86.6494 34.3808 86.6494Z" fill="white"/>
<path id="Vector_23" d="M34.3808 88.0019C31.5693 88.0019 29.2823 85.7149 29.2823 82.9034C29.2823 80.0919 31.5693 77.8049 34.3808 77.8049C37.1923 77.8049 39.4793 80.0919 39.4793 82.9034C39.4793 85.7149 37.1923 88.0019 34.3808 88.0019ZM34.3808 80.5017C33.0611 80.5017 31.9873 81.5755 31.9873 82.8952C31.9873 84.2149 33.0611 85.2887 34.3808 85.2887C35.7005 85.2887 36.7743 84.2149 36.7743 82.8952C36.7743 81.5755 35.7005 80.5017 34.3808 80.5017Z" fill="#3C50A0"/>
</g>
<path id="Vector_24" d="M90.5624 92.0759C95.6282 92.0759 99.7348 87.9693 99.7348 82.9035C99.7348 77.8378 95.6282 73.7312 90.5624 73.7312C85.4967 73.7312 81.3901 77.8378 81.3901 82.9035C81.3901 87.9693 85.4967 92.0759 90.5624 92.0759Z" fill="#3C50A0"/>
<g id="Group_10">
<path id="Vector_25" d="M90.5625 86.6494C92.6313 86.6494 94.3084 84.9723 94.3084 82.9035C94.3084 80.8346 92.6313 79.1575 90.5625 79.1575C88.4936 79.1575 86.8165 80.8346 86.8165 82.9035C86.8165 84.9723 88.4936 86.6494 90.5625 86.6494Z" fill="white"/>
<path id="Vector_26" d="M90.5624 88.0019C87.7509 88.0019 85.4639 85.7149 85.4639 82.9034C85.4639 80.0919 87.7509 77.8049 90.5624 77.8049C93.3739 77.8049 95.6609 80.0919 95.6609 82.9034C95.6609 85.7149 93.3739 88.0019 90.5624 88.0019ZM90.5624 80.5017C89.2427 80.5017 88.1689 81.5755 88.1689 82.8952C88.1689 84.2149 89.2427 85.2887 90.5624 85.2887C91.8821 85.2887 92.9559 84.2149 92.9559 82.8952C92.9559 81.5755 91.8821 80.5017 90.5624 80.5017Z" fill="#3C50A0"/>
</g>
<path id="Vector_27" d="M75.5047 63.6326C74.7588 63.6326 74.1522 63.026 74.1522 62.2801V43.2551C74.1522 42.5092 74.7588 41.9026 75.5047 41.9026C76.2506 41.9026 76.8572 42.5092 76.8572 43.2551V62.2801C76.8572 63.026 76.2506 63.6326 75.5047 63.6326Z" fill="#3C50A0"/>
</g>
</g>
</svg>
