<svg width="127" height="68" viewBox="0 0 127 68" fill="none" xmlns="http://www.w3.org/2000/svg">
<g id="Dipatched">
<g id="Group">
<path id="Vector" d="M55.5534 67.5008C60.6192 67.5008 64.7258 63.3942 64.7258 58.3285C64.7258 53.2627 60.6192 49.1561 55.5534 49.1561C50.4877 49.1561 46.3811 53.2627 46.3811 58.3285C46.3811 63.3942 50.4877 67.5008 55.5534 67.5008Z" fill="#72A114"/>
<path id="Vector_2" d="M111.26 67.5009C116.325 67.5009 120.432 63.3943 120.432 58.3285L111.26 58.3285L102.087 58.3285C102.087 63.3943 106.194 67.5009 111.26 67.5009Z" fill="#72A114"/>
<g id="Group_2">
<path id="Vector_3" d="M69.9228 60.2712H23.8642C20.0608 60.2712 16.9624 57.1727 16.9624 53.3694V7.59784C16.9624 3.79447 20.0608 0.696045 23.8642 0.696045H69.9228C70.6687 0.696045 71.2753 1.30261 71.2753 2.04853V58.9105C71.2753 59.6564 70.6687 60.263 69.9228 60.263V60.2712ZM23.8642 3.40102C21.5526 3.40102 19.6673 5.28631 19.6673 7.59784V53.3694C19.6673 55.6809 21.5526 57.5662 23.8642 57.5662H68.5703V3.40102H23.8642Z" fill="#72A114"/>
</g>
<g id="Group_3">
<g id="Vector_4">
<path d="M92.2675 14.681H70.2014C69.4555 14.681 68.849 14.0744 68.849 13.3285V2.04853C68.849 1.30261 69.4555 0.696045 70.2014 0.696045H88.1609C91.1691 0.696045 93.62 3.14692 93.62 6.15519V13.3285C93.62 14.0744 93.0134 14.681 92.2675 14.681ZM71.5539 11.976H90.915V6.15519C90.915 4.63876 89.6773 3.40102 88.1609 3.40102H71.5539V11.976Z" fill="#72A114"/>
<path d="M92.2675 14.681H70.2014C69.4555 14.681 68.849 14.0744 68.849 13.3285V2.04853C68.849 1.30261 69.4555 0.696045 70.2014 0.696045H88.1609C91.1691 0.696045 93.62 3.14692 93.62 6.15519V13.3285C93.62 14.0744 93.0134 14.681 92.2675 14.681ZM71.5539 11.976H90.915V6.15519C90.915 4.63876 89.6773 3.40102 88.1609 3.40102H71.5539V11.976Z" fill="#72A114"/>
</g>
</g>
<path id="Vector_5" d="M104.882 35.5821H76.4883V18.6719H100.759L104.882 35.5821Z" fill="#72A114"/>
<g id="Group_4">
<path id="Vector_6" d="M101.886 19.2789H75.3523C74.6064 19.2789 73.9999 18.6723 73.9999 17.9264V13.3525C73.9999 12.6066 74.6064 12 75.3523 12H101.886C103.894 12 105.525 13.6312 105.525 15.6394C105.525 17.6477 103.894 19.2789 101.886 19.2789ZM76.7048 16.5739H101.886C102.402 16.5739 102.82 16.1558 102.82 15.6394C102.82 15.123 102.402 14.705 101.886 14.705H76.7048V16.5739Z" fill="#72A114"/>
</g>
<g id="Group_5">
<path id="Vector_7" d="M87.2754 36.9345C86.6525 36.9345 86.0951 36.5083 85.9557 35.8771L82.9311 22.3522C82.7672 21.6227 83.2262 20.9014 83.9557 20.7374C84.6852 20.5735 85.4066 21.0325 85.5705 21.762L88.5952 35.2869C88.7591 36.0165 88.3001 36.7378 87.5705 36.9017C87.4722 36.9263 87.3738 36.9345 87.2754 36.9345Z" fill="#72A114"/>
</g>
<g id="Group_6">
<path id="Vector_8" d="M104.612 60.2712H75.5047C74.7588 60.2712 74.1522 59.6646 74.1522 58.9187V35.5903C74.1522 34.8444 74.7588 34.2378 75.5047 34.2378H87.2754C87.464 34.2378 87.6443 34.2788 87.8082 34.3525L105.137 41.8445C105.628 42.0576 105.956 42.5495 105.956 43.0823V58.9187C105.956 59.6646 105.35 60.2712 104.604 60.2712H104.612ZM76.8572 57.5662H103.259V43.9757L87.0049 36.9428H76.8654V57.5662H76.8572Z" fill="#72A114"/>
</g>
<g id="Group_7">
<path id="Vector_9" d="M120.555 60.2711H104.612C103.866 60.2711 103.259 59.6646 103.259 58.9187V43.0822C103.259 42.3363 103.866 41.7297 104.612 41.7297H121.055C124.252 41.7297 126.842 44.3282 126.842 47.5249V53.9841C126.842 57.4514 124.022 60.2793 120.547 60.2793L120.555 60.2711ZM105.964 57.5662H120.555C122.53 57.5662 124.145 55.9596 124.145 53.9759V47.5168C124.145 45.8118 122.76 44.4347 121.063 44.4347H105.973V57.5662H105.964Z" fill="#72A114"/>
</g>
<g id="Group_8">
<path id="Vector_10" d="M123.227 44.984C123.047 44.984 122.866 44.9512 122.694 44.8692L121.916 44.5331C121.694 44.4757 121.407 44.4348 121.055 44.4348H104.612C104.423 44.4348 104.243 44.3938 104.079 44.32L86.7509 36.828C86.1607 36.5739 85.8328 35.9428 85.964 35.3116C86.0951 34.6804 86.6443 34.2296 87.2919 34.2296H104.661C104.85 34.2296 105.03 34.2706 105.202 34.3444L122.866 41.9921C123.555 42.2052 123.957 42.4757 124.03 42.5249C124.596 42.9265 124.768 43.6888 124.432 44.2954C124.186 44.738 123.727 44.984 123.252 44.984H123.227ZM104.891 41.7298H115.432L104.366 36.9428H93.8166L104.891 41.7298Z" fill="#72A114"/>
</g>
<path id="Vector_11" d="M46.8647 20.0243H37.1268C36.3808 20.0243 35.7743 19.4177 35.7743 18.6718C35.7743 17.9259 36.3808 17.3193 37.1268 17.3193H46.8647C47.6106 17.3193 48.2172 17.9259 48.2172 18.6718C48.2172 19.4177 47.6106 20.0243 46.8647 20.0243Z" fill="#72A114"/>
<path id="Vector_12" d="M31.5693 20.0243H2.14237C1.39645 20.0243 0.789883 19.4177 0.789883 18.6718C0.789883 17.9259 1.39645 17.3193 2.14237 17.3193H31.5693C32.3152 17.3193 32.9218 17.9259 32.9218 18.6718C32.9218 19.4177 32.3152 20.0243 31.5693 20.0243Z" fill="#72A114"/>
<path id="Vector_13" d="M31.5692 30.6148H12.618C11.872 30.6148 11.2655 30.0082 11.2655 29.2623C11.2655 28.5164 11.872 27.9098 12.618 27.9098H31.5692C32.3151 27.9098 32.9217 28.5164 32.9217 29.2623C32.9217 30.0082 32.3151 30.6148 31.5692 30.6148Z" fill="#72A114"/>
<path id="Vector_14" d="M85.3036 60.305L63.4999 60.205C62.754 60.205 62.1474 59.5984 62.1474 58.8525C62.1474 58.1066 62.754 57.5 63.4999 57.5L85.3036 57.6C86.0495 57.6 86.6561 58.2065 86.6561 58.9525C86.6561 59.6984 86.0495 60.305 85.3036 60.305Z" fill="#72A114"/>
<path id="Vector_15" d="M34.3808 67.5008C39.4465 67.5008 43.5531 63.3942 43.5531 58.3285C43.5531 53.2627 39.4465 49.1561 34.3808 49.1561C29.315 49.1561 25.2085 53.2627 25.2085 58.3285C25.2085 63.3942 29.315 67.5008 34.3808 67.5008Z" fill="#72A114"/>
<path id="Vector_16" d="M90.5624 67.5008C95.6282 67.5008 99.7348 63.3942 99.7348 58.3285C99.7348 53.2627 95.6282 49.1561 90.5624 49.1561C85.4967 49.1561 81.3901 53.2627 81.3901 58.3285C81.3901 63.3942 85.4967 67.5008 90.5624 67.5008Z" fill="#72A114"/>
<g id="Group_9">
<path id="Vector_17" d="M90.5624 63.4271C87.7509 63.4271 85.4639 61.1401 85.4639 58.3286C85.4639 55.517 87.7509 53.2301 90.5624 53.2301C93.3739 53.2301 95.6609 55.517 95.6609 58.3286C95.6609 61.1401 93.3739 63.4271 90.5624 63.4271ZM90.5624 55.9269C89.2427 55.9269 88.1689 57.0007 88.1689 58.3204C88.1689 59.6401 89.2427 60.7139 90.5624 60.7139C91.8821 60.7139 92.9559 59.6401 92.9559 58.3204C92.9559 57.0007 91.8821 55.9269 90.5624 55.9269Z" fill="#72A114"/>
</g>
<path id="Vector_18" d="M75.5047 39.0575C74.7588 39.0575 74.1522 38.4509 74.1522 37.705V18.68C74.1522 17.9341 74.7588 17.3275 75.5047 17.3275C76.2506 17.3275 76.8572 17.9341 76.8572 18.68V37.705C76.8572 38.4509 76.2506 39.0575 75.5047 39.0575Z" fill="#72A114"/>
</g>
</g>
</svg>
