<svg width="18" height="17" viewBox="0 0 18 17" fill="none" xmlns="http://www.w3.org/2000/svg">
<g id="ic_Cart">
<path id="Vector" d="M8.08138 15.2292C8.47258 15.2292 8.78971 14.912 8.78971 14.5208C8.78971 14.1296 8.47258 13.8125 8.08138 13.8125C7.69018 13.8125 7.37305 14.1296 7.37305 14.5208C7.37305 14.912 7.69018 15.2292 8.08138 15.2292Z" stroke="#F6F6F6" stroke-linecap="round" stroke-linejoin="round"/>
<path id="Vector_2" d="M13.7474 15.2292C14.1386 15.2292 14.4557 14.912 14.4557 14.5208C14.4557 14.1296 14.1386 13.8125 13.7474 13.8125C13.3562 13.8125 13.0391 14.1296 13.0391 14.5208C13.0391 14.912 13.3562 15.2292 13.7474 15.2292Z" stroke="#F6F6F6" stroke-linecap="round" stroke-linejoin="round"/>
<path id="Vector_3" d="M2.76953 1.77075H4.89453L6.80703 10.5541C6.87326 10.8789 7.0513 11.1702 7.31015 11.3773C7.569 11.5844 7.89227 11.6941 8.2237 11.6874H13.6779C14.0093 11.6941 14.3326 11.5844 14.5914 11.3773C14.8503 11.1702 15.0283 10.8789 15.0945 10.5541L16.2279 4.60409H6.02786" stroke="#F6F6F6" stroke-linecap="round" stroke-linejoin="round"/>
</g>
</svg>
