<svg width="22" height="23" viewBox="0 0 22 23" fill="none" xmlns="http://www.w3.org/2000/svg">
<g id="Home">
<path id="Vector" d="M18.8531 9.15714C18.4498 8.6902 17.8626 8.42843 17.2471 8.42843H17.1834C16.8297 5.25182 14.1271 2.76855 10.8585 2.76855C7.58995 2.76855 4.88736 5.25182 4.53362 8.42843H4.49117C3.87566 8.42843 3.28845 8.69727 2.88518 9.15714C2.48192 9.62407 2.30505 10.2396 2.38994 10.848L3.13988 16.0976C3.43702 18.1776 5.24111 19.7411 7.34233 19.7411H14.3959C16.4972 19.7411 18.3013 18.1776 18.5984 16.0976L19.3483 10.848C19.4332 10.2396 19.2564 9.62407 18.8531 9.15714ZM10.8585 4.18352C13.3489 4.18352 15.4077 6.03006 15.7543 8.42843H5.96274C6.30941 6.03006 8.36819 4.18352 10.8585 4.18352Z" fill="#858585"/>
</g>
</svg>
