<svg width="24" height="24" viewBox="0 0 24 24" fill="none" xmlns="http://www.w3.org/2000/svg">
<g id="credit-card-5 1" clip-path="url(#clip0_2009_3778)">
<g id="Group">
<path id="Vector" d="M23.5735 4.53821C23.2625 4.17062 22.827 3.94609 22.3472 3.90601L5.44615 2.4948C4.96625 2.45472 4.49965 2.60393 4.13201 2.91485C3.76588 3.22455 3.54167 3.65781 3.50033 4.13533L3.1603 7.32544H1.80257C0.808637 7.32544 0 8.13408 0 9.12801V19.7077C0 20.7017 0.808637 21.5103 1.80257 21.5103H18.7625C19.7565 21.5103 20.5651 20.7017 20.5651 19.7077V17.9915L21.1669 18.0418C21.2177 18.046 21.2682 18.0481 21.3182 18.0481C22.2449 18.0481 23.0348 17.3352 23.1133 16.3954L23.9936 5.8524C24.0337 5.37254 23.8845 4.90585 23.5735 4.53821ZM1.80257 8.26293H18.7625C19.2395 8.26293 19.6276 8.65101 19.6276 9.12801V10.092H0.937496V9.12801C0.937496 8.65101 1.32557 8.26293 1.80257 8.26293ZM0.937496 11.0295H19.6276V12.9743H0.937496V11.0295ZM18.7625 20.5728H1.80257C1.32557 20.5728 0.937496 20.1847 0.937496 19.7077V13.9118H19.6276V19.7077C19.6276 20.1847 19.2395 20.5728 18.7625 20.5728ZM23.0594 5.77435L22.179 16.3174C22.1393 16.7927 21.7202 17.1474 21.2449 17.1075L20.5651 17.0507V9.12801C20.5651 8.13408 19.7565 7.32544 18.7625 7.32544H4.10314L4.43309 4.22983C4.43347 4.22626 4.43379 4.22275 4.43408 4.21914C4.47378 3.74378 4.89265 3.38922 5.36815 3.42906L22.2692 4.84028C22.4995 4.85949 22.7086 4.96726 22.8578 5.1437C23.007 5.32013 23.0786 5.54405 23.0594 5.77435Z" fill="#070707"/>
<path id="Vector_2" d="M17.6677 15.3049H13.1563C12.8974 15.3049 12.6876 15.5147 12.6876 15.7736V18.7169C12.6876 18.9757 12.8974 19.1856 13.1563 19.1856H17.6677C17.9265 19.1856 18.1364 18.9757 18.1364 18.7169V15.7736C18.1364 15.5147 17.9265 15.3049 17.6677 15.3049ZM17.1989 18.2481H13.6251V16.2424H17.1989V18.2481Z" fill="#070707"/>
</g>
</g>
<defs>
<clipPath id="clip0_2009_3778">
<rect width="24" height="24" fill="white"/>
</clipPath>
</defs>
</svg>
