<svg width="15" height="20" viewBox="0 0 15 20" fill="none" xmlns="http://www.w3.org/2000/svg">
<path d="M3.84418 5.65943C3.62613 5.65943 3.43883 5.58395 3.28228 5.433C3.13133 5.27645 3.05585 5.09195 3.05585 4.87949C3.05585 4.66703 3.13133 4.48532 3.28228 4.33436C3.43883 4.17782 3.62613 4.09954 3.84418 4.09954C4.06223 4.09954 4.24673 4.17782 4.39769 4.33436C4.54865 4.48532 4.62413 4.66703 4.62413 4.87949C4.62413 5.09754 4.54865 5.28204 4.39769 5.433C4.24673 5.58395 4.06223 5.65943 3.84418 5.65943ZM3.84418 8.15861C3.62054 8.15861 3.43324 8.08313 3.28228 7.93218C3.13133 7.78122 3.05585 7.59672 3.05585 7.37867C3.05585 7.16621 3.13133 6.9845 3.28228 6.83354C3.43324 6.68259 3.62054 6.60711 3.84418 6.60711C4.06223 6.60711 4.24673 6.68259 4.39769 6.83354C4.54865 6.97891 4.62413 7.16062 4.62413 7.37867C4.62413 7.59672 4.54865 7.78122 4.39769 7.93218C4.24673 8.08313 4.06223 8.15861 3.84418 8.15861ZM3.84418 10.7836C3.62613 10.7836 3.43883 10.7081 3.28228 10.5572C3.13133 10.4006 3.05585 10.2161 3.05585 10.0036C3.05585 9.79119 3.13133 9.60948 3.28228 9.45852C3.43883 9.30197 3.62613 9.2237 3.84418 9.2237C4.06223 9.2237 4.24673 9.29918 4.39769 9.45014C4.54865 9.60109 4.62413 9.7856 4.62413 10.0036C4.62413 10.2217 4.54865 10.4062 4.39769 10.5572C4.24673 10.7081 4.06223 10.7836 3.84418 10.7836ZM6.14208 5.433C5.99113 5.433 5.86253 5.37988 5.7563 5.27365C5.65567 5.16183 5.60535 5.03044 5.60535 4.87949C5.60535 4.73412 5.65567 4.60832 5.7563 4.50209C5.86253 4.39027 5.99113 4.33436 6.14208 4.33436H11.2075C11.3585 4.33436 11.4871 4.39027 11.5933 4.50209C11.6995 4.60832 11.7527 4.73412 11.7527 4.87949C11.7527 5.03044 11.6995 5.16183 11.5933 5.27365C11.4871 5.37988 11.3585 5.433 11.2075 5.433H6.14208ZM6.14208 7.92379C5.99113 7.92379 5.86253 7.87068 5.7563 7.76445C5.65567 7.65822 5.60535 7.52962 5.60535 7.37867C5.60535 7.22771 5.65567 7.10191 5.7563 7.00127C5.86253 6.89505 5.99113 6.84193 6.14208 6.84193H11.2075C11.3641 6.84193 11.4927 6.89505 11.5933 7.00127C11.6995 7.10191 11.7527 7.22771 11.7527 7.37867C11.7527 7.52962 11.6995 7.65822 11.5933 7.76445C11.4927 7.87068 11.3641 7.92379 11.2075 7.92379H6.14208ZM6.14208 10.5404C5.99113 10.5404 5.86253 10.4901 5.7563 10.3894C5.65567 10.2832 5.60535 10.1546 5.60535 10.0036C5.60535 9.85269 5.65567 9.72409 5.7563 9.61787C5.86253 9.51164 5.99113 9.45852 6.14208 9.45852H11.2075C11.3641 9.45852 11.4927 9.51164 11.5933 9.61787C11.6995 9.72409 11.7527 9.85269 11.7527 10.0036C11.7527 10.1546 11.6995 10.2832 11.5933 10.3894C11.4871 10.4901 11.3585 10.5404 11.2075 10.5404H6.14208ZM0.212821 16.2768V3.62151C0.212821 2.72136 0.442052 2.03926 0.900515 1.5752C1.35898 1.10556 2.03828 0.870735 2.93844 0.870735H11.8701C12.7702 0.870735 13.4495 1.10556 13.908 1.5752C14.3665 2.03926 14.5957 2.72136 14.5957 3.62151V16.2768C14.5957 17.1825 14.3665 17.8674 13.908 18.3314C13.4495 18.7955 12.7702 19.0275 11.8701 19.0275H2.93844C2.03828 19.0275 1.35898 18.7955 0.900515 18.3314C0.442052 17.8674 0.212821 17.1825 0.212821 16.2768ZM1.86496 16.1761C1.86496 16.5619 1.9656 16.8582 2.16688 17.0651C2.36815 17.272 2.67286 17.3754 3.08101 17.3754H11.7359C12.144 17.3754 12.4487 17.272 12.65 17.0651C12.8513 16.8582 12.9519 16.5619 12.9519 16.1761V3.73054C12.9519 3.33916 12.8513 3.04005 12.65 2.83318C12.4487 2.62072 12.144 2.51449 11.7359 2.51449H3.08101C2.67286 2.51449 2.36815 2.62072 2.16688 2.83318C1.9656 3.04005 1.86496 3.33916 1.86496 3.73054V16.1761Z" fill="#007AFF"/>
</svg>
