<svg width="22" height="23" viewBox="0 0 22 23" fill="none" xmlns="http://www.w3.org/2000/svg">
<g id="Home">
<g id="Home_2">
<path id="Vector" d="M14.3469 15.6213V19.8713H17.1802C18.3538 19.8713 19.3052 18.9198 19.3052 17.7463V11.2856C19.3053 10.9176 19.1623 10.5639 18.9064 10.2996L12.887 3.79207C11.8249 2.64291 10.0323 2.57236 8.88315 3.63446C8.82856 3.68493 8.77597 3.73749 8.72553 3.79207L2.71673 10.2974C2.45303 10.5629 2.30508 10.922 2.30518 11.2962V17.7463C2.30518 18.9198 3.25658 19.8713 4.43018 19.8713H7.2635V15.6213C7.27675 13.6898 8.8362 12.1125 10.719 12.0671C12.6649 12.0201 14.332 13.6242 14.3469 15.6213Z" fill="#858585"/>
<path id="Vector_2" d="M10.8052 13.4971C9.63158 13.4971 8.68018 14.4485 8.68018 15.6221V19.8721H12.9302V15.6221C12.9302 14.4485 11.9788 13.4971 10.8052 13.4971Z" fill="#858585"/>
</g>
</g>
</svg>
