<svg width="21" height="19" viewBox="0 0 21 19" fill="none" xmlns="http://www.w3.org/2000/svg">
<path d="M7.84811 17.5353V11.4803C7.84811 11.2846 7.90682 11.128 8.02423 11.0106C8.14723 10.8932 8.30658 10.8345 8.50226 10.8345H12.0246C12.2203 10.8345 12.3768 10.8932 12.4942 11.0106C12.6117 11.128 12.6704 11.2846 12.6704 11.4803V17.5353H7.84811ZM4.56899 18.6256C3.93161 18.6256 3.43401 18.4523 3.07619 18.1056C2.71836 17.759 2.53945 17.2781 2.53945 16.6631V7.36249L4.19159 6.2387V16.1516C4.19159 16.4199 4.26148 16.624 4.40126 16.7638C4.54103 16.9091 4.74231 16.9818 5.00509 16.9818H15.4798C15.7426 16.9818 15.9411 16.9091 16.0753 16.7638C16.2151 16.624 16.2849 16.4199 16.2849 16.1516V6.2387L17.9287 7.36249V16.6631C17.9287 17.2781 17.7526 17.759 17.4003 18.1056C17.0481 18.4523 16.5533 18.6256 15.9159 18.6256H4.56899ZM0.0234984 9.1572C0.0234984 8.89443 0.132523 8.67358 0.350572 8.49467L9.08932 1.15647C9.45273 0.854559 9.8469 0.703601 10.2718 0.703601C10.6967 0.703601 11.0881 0.854559 11.4459 1.15647L20.1763 8.49467C20.3943 8.67358 20.5034 8.90281 20.5034 9.18236C20.5034 9.42278 20.4195 9.61287 20.2518 9.75265C20.0896 9.89242 19.8883 9.96231 19.6479 9.96231C19.5193 9.96231 19.3963 9.93156 19.2789 9.87006C19.1615 9.80856 19.0525 9.73867 18.9519 9.66039L10.6324 2.67443C10.515 2.57379 10.3948 2.52347 10.2718 2.52347C10.1488 2.52347 10.0286 2.57379 9.91119 2.67443L1.58339 9.66039C1.47716 9.73867 1.36534 9.80856 1.24793 9.87006C1.13611 9.93156 1.0159 9.96231 0.887309 9.96231C0.618941 9.96231 0.406482 9.88403 0.249934 9.72749C0.098977 9.56535 0.0234984 9.37525 0.0234984 9.1572ZM15.5553 5.08975V3.03505C15.5553 2.85055 15.6112 2.70239 15.723 2.59057C15.8405 2.47316 15.9914 2.41445 16.1759 2.41445H17.3165C17.501 2.41445 17.6491 2.47316 17.761 2.59057C17.8728 2.70239 17.9287 2.85055 17.9287 3.03505V7.08574L15.5553 5.08975Z" fill="#999999"/>
</svg>
