<svg width="137" height="56" viewBox="0 0 137 56" fill="none" xmlns="http://www.w3.org/2000/svg">
<g id="Logo">
<g id="Vector">
<path d="M17.7228 14.624C19.0828 15.0547 20.1482 15.78 20.9188 16.8C21.6895 17.7973 22.0748 19.0327 22.0748 20.506C22.0748 22.5913 21.2588 24.2007 19.6268 25.334C18.0175 26.4447 15.6602 27 12.5548 27H0.246826V3.2H11.8748C14.7762 3.2 16.9975 3.75534 18.5388 4.86601C20.1028 5.97667 20.8848 7.484 20.8848 9.38801C20.8848 10.544 20.6015 11.5753 20.0348 12.482C19.4908 13.3887 18.7202 14.1027 17.7228 14.624ZM5.72083 7.34801V12.958H11.1948C12.5548 12.958 13.5862 12.72 14.2888 12.244C14.9915 11.768 15.3428 11.0653 15.3428 10.136C15.3428 9.20667 14.9915 8.51534 14.2888 8.06201C13.5862 7.58601 12.5548 7.34801 11.1948 7.34801H5.72083ZM12.1468 22.852C13.5975 22.852 14.6855 22.614 15.4108 22.138C16.1588 21.662 16.5328 20.9253 16.5328 19.928C16.5328 17.956 15.0708 16.97 12.1468 16.97H5.72083V22.852H12.1468Z" fill="black"/>
<path d="M44.2989 8.708V27H39.2669V24.824C38.5642 25.6173 37.7255 26.2293 36.7509 26.66C35.7762 27.068 34.7222 27.272 33.5889 27.272C31.1862 27.272 29.2822 26.5807 27.8769 25.198C26.4715 23.8153 25.7689 21.764 25.7689 19.044V8.708H31.0729V18.262C31.0729 21.2087 32.3082 22.682 34.7789 22.682C36.0482 22.682 37.0682 22.274 37.8389 21.458C38.6095 20.6193 38.9949 19.384 38.9949 17.752V8.708H44.2989Z" fill="black"/>
<path d="M49.2127 8.708H54.5167V27H49.2127V8.708ZM51.8647 6.15801C50.89 6.15801 50.0967 5.87467 49.4847 5.30801C48.8727 4.74134 48.5667 4.03867 48.5667 3.2C48.5667 2.36134 48.8727 1.65867 49.4847 1.09201C50.0967 0.525338 50.89 0.242004 51.8647 0.242004C52.8393 0.242004 53.6327 0.514005 54.2447 1.05801C54.8567 1.60201 55.1627 2.28201 55.1627 3.09801C55.1627 3.98201 54.8567 4.71867 54.2447 5.30801C53.6327 5.87467 52.8393 6.15801 51.8647 6.15801Z" fill="black"/>
<path d="M59.4392 1.772H64.7432V27H59.4392V1.772Z" fill="black"/>
<path d="M88.2978 1.772V27H83.2318V24.892C81.9171 26.4787 80.0131 27.272 77.5198 27.272C75.7971 27.272 74.2331 26.8867 72.8278 26.116C71.4451 25.3453 70.3571 24.246 69.5638 22.818C68.7705 21.39 68.3738 19.7353 68.3738 17.854C68.3738 15.9727 68.7705 14.318 69.5638 12.89C70.3571 11.462 71.4451 10.3627 72.8278 9.59201C74.2331 8.82134 75.7971 8.43601 77.5198 8.43601C79.8545 8.43601 81.6791 9.17267 82.9938 10.646V1.772H88.2978ZM78.4378 22.92C79.7751 22.92 80.8858 22.4667 81.7698 21.56C82.6538 20.6307 83.0958 19.3953 83.0958 17.854C83.0958 16.3127 82.6538 15.0887 81.7698 14.182C80.8858 13.2527 79.7751 12.788 78.4378 12.788C77.0778 12.788 75.9558 13.2527 75.0718 14.182C74.1878 15.0887 73.7458 16.3127 73.7458 17.854C73.7458 19.3953 74.1878 20.6307 75.0718 21.56C75.9558 22.4667 77.0778 22.92 78.4378 22.92Z" fill="black"/>
<path d="M111.635 8.708V27H106.603V24.824C105.9 25.6173 105.061 26.2293 104.087 26.66C103.112 27.068 102.058 27.272 100.925 27.272C98.5221 27.272 96.6181 26.5807 95.2128 25.198C93.8075 23.8153 93.1048 21.764 93.1048 19.044V8.708H98.4088V18.262C98.4088 21.2087 99.6441 22.682 102.115 22.682C103.384 22.682 104.404 22.274 105.175 21.458C105.945 20.6193 106.331 19.384 106.331 17.752V8.708H111.635Z" fill="black"/>
<path d="M127.361 8.43601C129.061 8.43601 130.602 8.83267 131.985 9.62601C133.39 10.3967 134.489 11.496 135.283 12.924C136.076 14.3293 136.473 15.9727 136.473 17.854C136.473 19.7353 136.076 21.39 135.283 22.818C134.489 24.2233 133.39 25.3227 131.985 26.116C130.602 26.8867 129.061 27.272 127.361 27.272C125.026 27.272 123.19 26.5353 121.853 25.062V33.596H116.549V8.708H121.615V10.816C122.929 9.22934 124.845 8.43601 127.361 8.43601ZM126.443 22.92C127.803 22.92 128.913 22.4667 129.775 21.56C130.659 20.6307 131.101 19.3953 131.101 17.854C131.101 16.3127 130.659 15.0887 129.775 14.182C128.913 13.2527 127.803 12.788 126.443 12.788C125.083 12.788 123.961 13.2527 123.077 14.182C122.215 15.0887 121.785 16.3127 121.785 17.854C121.785 19.3953 122.215 20.6307 123.077 21.56C123.961 22.4667 125.083 22.92 126.443 22.92Z" fill="black"/>
<path d="M23.9271 40.1H29.1291C30.3985 40.1 31.5261 40.3493 32.5121 40.848C33.4981 41.3353 34.2631 42.0323 34.8071 42.939C35.3511 43.8343 35.6231 44.8713 35.6231 46.05C35.6231 47.2287 35.3511 48.2713 34.8071 49.178C34.2631 50.0733 33.4981 50.7703 32.5121 51.269C31.5261 51.7563 30.3985 52 29.1291 52H23.9271V40.1ZM29.0271 50.13C29.8998 50.13 30.6648 49.9657 31.3221 49.637C31.9908 49.297 32.5008 48.821 32.8521 48.209C33.2148 47.5857 33.3961 46.866 33.3961 46.05C33.3961 45.234 33.2148 44.52 32.8521 43.908C32.5008 43.2847 31.9908 42.8087 31.3221 42.48C30.6648 42.14 29.8998 41.97 29.0271 41.97H26.1371V50.13H29.0271Z" fill="white"/>
<path d="M46.302 47.512C46.302 47.6593 46.2907 47.869 46.268 48.141H39.145C39.2697 48.8097 39.5927 49.3423 40.114 49.739C40.6467 50.1243 41.304 50.317 42.086 50.317C43.0834 50.317 43.905 49.9883 44.551 49.331L45.69 50.64C45.282 51.1273 44.7664 51.4957 44.143 51.745C43.5197 51.9943 42.817 52.119 42.035 52.119C41.0377 52.119 40.1594 51.9207 39.4 51.524C38.6407 51.1273 38.0514 50.5777 37.632 49.875C37.224 49.161 37.02 48.3563 37.02 47.461C37.02 46.577 37.2184 45.7837 37.615 45.081C38.023 44.367 38.584 43.8117 39.298 43.415C40.012 43.0183 40.8167 42.82 41.712 42.82C42.596 42.82 43.3837 43.0183 44.075 43.415C44.7777 43.8003 45.3217 44.35 45.707 45.064C46.1037 45.7667 46.302 46.5827 46.302 47.512ZM41.712 44.52C41.032 44.52 40.454 44.724 39.978 45.132C39.5134 45.5287 39.23 46.0613 39.128 46.73H44.279C44.1884 46.0727 43.9107 45.54 43.446 45.132C42.9814 44.724 42.4034 44.52 41.712 44.52Z" fill="white"/>
<path d="M59.8012 42.82C60.9459 42.82 61.8526 43.1543 62.5212 43.823C63.1899 44.4803 63.5242 45.472 63.5242 46.798V52H61.3992V47.07C61.3992 46.2767 61.2236 45.6817 60.8722 45.285C60.5209 44.877 60.0166 44.673 59.3592 44.673C58.6452 44.673 58.0729 44.911 57.6422 45.387C57.2116 45.8517 56.9962 46.5203 56.9962 47.393V52H54.8712V47.07C54.8712 46.2767 54.6956 45.6817 54.3442 45.285C53.9929 44.877 53.4886 44.673 52.8312 44.673C52.1059 44.673 51.5279 44.9053 51.0972 45.37C50.6779 45.8347 50.4682 46.509 50.4682 47.393V52H48.3432V42.922H50.3662V44.078C50.7062 43.67 51.1312 43.3583 51.6412 43.143C52.1512 42.9277 52.7179 42.82 53.3412 42.82C54.0212 42.82 54.6219 42.9503 55.1432 43.211C55.6759 43.4603 56.0952 43.8343 56.4012 44.333C56.7752 43.857 57.2569 43.4887 57.8462 43.228C58.4356 42.956 59.0872 42.82 59.8012 42.82Z" fill="white"/>
<path d="M70.4027 52.119C69.4847 52.119 68.6574 51.9207 67.9207 51.524C67.1841 51.1273 66.6061 50.5777 66.1867 49.875C65.7787 49.161 65.5747 48.3563 65.5747 47.461C65.5747 46.5657 65.7787 45.7667 66.1867 45.064C66.6061 44.3613 67.1841 43.8117 67.9207 43.415C68.6574 43.0183 69.4847 42.82 70.4027 42.82C71.3321 42.82 72.1651 43.0183 72.9017 43.415C73.6384 43.8117 74.2107 44.3613 74.6187 45.064C75.0381 45.7667 75.2477 46.5657 75.2477 47.461C75.2477 48.3563 75.0381 49.161 74.6187 49.875C74.2107 50.5777 73.6384 51.1273 72.9017 51.524C72.1651 51.9207 71.3321 52.119 70.4027 52.119ZM70.4027 50.3C71.1847 50.3 71.8307 50.0393 72.3407 49.518C72.8507 48.9967 73.1057 48.311 73.1057 47.461C73.1057 46.611 72.8507 45.9253 72.3407 45.404C71.8307 44.8827 71.1847 44.622 70.4027 44.622C69.6207 44.622 68.9747 44.8827 68.4647 45.404C67.9661 45.9253 67.7167 46.611 67.7167 47.461C67.7167 48.311 67.9661 48.9967 68.4647 49.518C68.9747 50.0393 69.6207 50.3 70.4027 50.3Z" fill="white"/>
<path d="M77.7937 52.119C77.4084 52.119 77.0798 51.9887 76.8077 51.728C76.5357 51.456 76.3997 51.116 76.3997 50.708C76.3997 50.2887 76.5301 49.9487 76.7907 49.688C77.0628 49.4273 77.3971 49.297 77.7937 49.297C78.1904 49.297 78.5191 49.4273 78.7797 49.688C79.0518 49.9487 79.1878 50.2887 79.1878 50.708C79.1878 51.116 79.0518 51.456 78.7797 51.728C78.5077 51.9887 78.1791 52.119 77.7937 52.119Z" fill="white"/>
<path d="M84.8982 42.82C86.2355 42.82 87.2555 43.143 87.9582 43.789C88.6721 44.4237 89.0292 45.387 89.0292 46.679V52H87.0232V50.895C86.7625 51.2917 86.3885 51.5977 85.9012 51.813C85.4252 52.017 84.8472 52.119 84.1672 52.119C83.4872 52.119 82.8922 52.0057 82.3822 51.779C81.8722 51.541 81.4755 51.218 81.1922 50.81C80.9202 50.3907 80.7842 49.9203 80.7842 49.399C80.7842 48.583 81.0845 47.9313 81.6852 47.444C82.2972 46.9453 83.2548 46.696 84.5582 46.696H86.9042V46.56C86.9042 45.9253 86.7115 45.438 86.3262 45.098C85.9522 44.758 85.3912 44.588 84.6432 44.588C84.1332 44.588 83.6288 44.6673 83.1302 44.826C82.6428 44.9847 82.2291 45.2057 81.8892 45.489L81.0562 43.942C81.5322 43.5793 82.1045 43.3017 82.7732 43.109C83.4418 42.9163 84.1502 42.82 84.8982 42.82ZM84.6092 50.572C85.1418 50.572 85.6122 50.453 86.0202 50.215C86.4395 49.9657 86.7342 49.6143 86.9042 49.161V48.107H84.7112C83.4872 48.107 82.8752 48.5093 82.8752 49.314C82.8752 49.6993 83.0282 50.0053 83.3342 50.232C83.6402 50.4587 84.0652 50.572 84.6092 50.572Z" fill="white"/>
<path d="M96.7883 42.82C97.6723 42.82 98.46 43.0127 99.1513 43.398C99.854 43.7833 100.404 44.3273 100.8 45.03C101.197 45.7327 101.395 46.543 101.395 47.461C101.395 48.379 101.197 49.195 100.8 49.909C100.404 50.6117 99.854 51.1557 99.1513 51.541C98.46 51.9263 97.6723 52.119 96.7883 52.119C95.5643 52.119 94.5953 51.711 93.8813 50.895V55.298H91.7563V42.922H93.7793V44.112C94.1307 43.6813 94.5613 43.3583 95.0713 43.143C95.5927 42.9277 96.165 42.82 96.7883 42.82ZM96.5503 50.3C97.3323 50.3 97.9727 50.0393 98.4713 49.518C98.9813 48.9967 99.2363 48.311 99.2363 47.461C99.2363 46.611 98.9813 45.9253 98.4713 45.404C97.9727 44.8827 97.3323 44.622 96.5503 44.622C96.0403 44.622 95.5813 44.741 95.1733 44.979C94.7653 45.2057 94.4423 45.5343 94.2043 45.965C93.9663 46.3957 93.8473 46.8943 93.8473 47.461C93.8473 48.0277 93.9663 48.5263 94.2043 48.957C94.4423 49.3877 94.7653 49.722 95.1733 49.96C95.5813 50.1867 96.0403 50.3 96.5503 50.3Z" fill="white"/>
<path d="M108.443 42.82C109.327 42.82 110.114 43.0127 110.806 43.398C111.508 43.7833 112.058 44.3273 112.455 45.03C112.851 45.7327 113.05 46.543 113.05 47.461C113.05 48.379 112.851 49.195 112.455 49.909C112.058 50.6117 111.508 51.1557 110.806 51.541C110.114 51.9263 109.327 52.119 108.443 52.119C107.219 52.119 106.25 51.711 105.536 50.895V55.298H103.411V42.922H105.434V44.112C105.785 43.6813 106.216 43.3583 106.726 43.143C107.247 42.9277 107.819 42.82 108.443 42.82ZM108.205 50.3C108.987 50.3 109.627 50.0393 110.126 49.518C110.636 48.9967 110.891 48.311 110.891 47.461C110.891 46.611 110.636 45.9253 110.126 45.404C109.627 44.8827 108.987 44.622 108.205 44.622C107.695 44.622 107.236 44.741 106.828 44.979C106.42 45.2057 106.097 45.5343 105.859 45.965C105.621 46.3957 105.502 46.8943 105.502 47.461C105.502 48.0277 105.621 48.5263 105.859 48.957C106.097 49.3877 106.42 49.722 106.828 49.96C107.236 50.1867 107.695 50.3 108.205 50.3Z" fill="white"/>
</g>
</g>
</svg>
