<svg width="22" height="23" viewBox="0 0 22 23" fill="none" xmlns="http://www.w3.org/2000/svg">
<g id="Home">
<g id="Group">
<path id="Vector" d="M12.291 7.7076V3.0751C12.9463 3.32255 13.5414 3.70645 14.0371 4.20135L16.5049 6.6706C17.0004 7.16564 17.3846 7.76065 17.6319 8.41593H12.9993C12.8115 8.41593 12.6313 8.34131 12.4985 8.20847C12.3656 8.07563 12.291 7.89546 12.291 7.7076ZM17.9577 10.1761V16.2076C17.9566 17.1466 17.5831 18.0467 16.9191 18.7107C16.2552 19.3746 15.355 19.7481 14.416 19.7493H7.33268C6.39372 19.7481 5.49354 19.3746 4.82959 18.7107C4.16564 18.0467 3.79214 17.1466 3.79102 16.2076V6.29093C3.79214 5.35197 4.16564 4.45179 4.82959 3.78784C5.49354 3.12389 6.39372 2.75039 7.33268 2.74927L10.5308 2.74927C10.6463 2.74927 10.7603 2.75848 10.8743 2.76627V7.7076C10.8743 8.27119 11.0982 8.81169 11.4967 9.2102C11.8953 9.60872 12.4358 9.8326 12.9993 9.8326H17.9407C17.9485 9.94664 17.9577 10.0607 17.9577 10.1761ZM12.291 16.2076C12.291 16.0197 12.2164 15.8396 12.0835 15.7067C11.9507 15.5739 11.7705 15.4993 11.5827 15.4993H8.04102C7.85315 15.4993 7.67299 15.5739 7.54015 15.7067C7.40731 15.8396 7.33268 16.0197 7.33268 16.2076C7.33268 16.3955 7.40731 16.5756 7.54015 16.7085C7.67299 16.8413 7.85315 16.9159 8.04102 16.9159H11.5827C11.7705 16.9159 11.9507 16.8413 12.0835 16.7085C12.2164 16.5756 12.291 16.3955 12.291 16.2076ZM14.416 13.3743C14.416 13.1864 14.3414 13.0062 14.2086 12.8734C14.0757 12.7406 13.8955 12.6659 13.7077 12.6659H8.04102C7.85315 12.6659 7.67299 12.7406 7.54015 12.8734C7.40731 13.0062 7.33268 13.1864 7.33268 13.3743C7.33268 13.5621 7.40731 13.7423 7.54015 13.8751C7.67299 14.008 7.85315 14.0826 8.04102 14.0826H13.7077C13.8955 14.0826 14.0757 14.008 14.2086 13.8751C14.3414 13.7423 14.416 13.5621 14.416 13.3743Z" fill="#4A74EA"/>
</g>
</g>
</svg>
