<svg width="30" height="31" viewBox="0 0 30 31" fill="none" xmlns="http://www.w3.org/2000/svg">
<g clip-path="url(#clip0_2736_4525)">
<path d="M11.4146 6.85791H9.26335C8.50262 6.85791 7.77305 7.16011 7.23513 7.69803C6.69722 8.23594 6.39502 8.96551 6.39502 9.72624L6.39502 11.8775C6.39502 12.6382 6.69722 13.3678 7.23513 13.9057C7.77305 14.4436 8.50262 14.7458 9.26335 14.7458H11.4146C12.1753 14.7458 12.9049 14.4436 13.4428 13.9057C13.9807 13.3678 14.2829 12.6382 14.2829 11.8775V9.72624C14.2829 8.96551 13.9807 8.23594 13.4428 7.69803C12.9049 7.16011 12.1753 6.85791 11.4146 6.85791ZM12.8488 11.8775C12.8488 12.2579 12.6977 12.6226 12.4287 12.8916C12.1598 13.1606 11.795 13.3117 11.4146 13.3117H9.26335C8.88299 13.3117 8.5182 13.1606 8.24924 12.8916C7.98029 12.6226 7.82919 12.2579 7.82919 11.8775V9.72624C7.82919 9.34588 7.98029 8.98109 8.24924 8.71213C8.5182 8.44318 8.88299 8.29208 9.26335 8.29208H11.4146C11.795 8.29208 12.1598 8.44318 12.4287 8.71213C12.6977 8.98109 12.8488 9.34588 12.8488 9.72624V11.8775Z" fill="#4A74EA"/>
<path d="M20.7366 6.85791H18.5854C17.8246 6.85791 17.0951 7.16011 16.5572 7.69803C16.0192 8.23594 15.717 8.96551 15.717 9.72624V11.8775C15.717 12.6382 16.0192 13.3678 16.5572 13.9057C17.0951 14.4436 17.8246 14.7458 18.5854 14.7458H20.7366C21.4974 14.7458 22.2269 14.4436 22.7648 13.9057C23.3028 13.3678 23.605 12.6382 23.605 11.8775V9.72624C23.605 8.96551 23.3028 8.23594 22.7648 7.69803C22.2269 7.16011 21.4974 6.85791 20.7366 6.85791ZM22.1708 11.8775C22.1708 12.2579 22.0197 12.6226 21.7507 12.8916C21.4818 13.1606 21.117 13.3117 20.7366 13.3117H18.5854C18.205 13.3117 17.8402 13.1606 17.5713 12.8916C17.3023 12.6226 17.1512 12.2579 17.1512 11.8775V9.72624C17.1512 9.34588 17.3023 8.98109 17.5713 8.71213C17.8402 8.44318 18.205 8.29208 18.5854 8.29208H20.7366C21.117 8.29208 21.4818 8.44318 21.7507 8.71213C22.0197 8.98109 22.1708 9.34588 22.1708 9.72624V11.8775Z" fill="#4A74EA"/>
<path d="M11.4146 16.1799H9.26335C8.50262 16.1799 7.77305 16.4821 7.23513 17.02C6.69722 17.558 6.39502 18.2875 6.39502 19.0483L6.39502 21.1995C6.39502 21.9602 6.69722 22.6898 7.23513 23.2277C7.77305 23.7656 8.50262 24.0678 9.26335 24.0678H11.4146C12.1753 24.0678 12.9049 23.7656 13.4428 23.2277C13.9807 22.6898 14.2829 21.9602 14.2829 21.1995V19.0483C14.2829 18.2875 13.9807 17.558 13.4428 17.02C12.9049 16.4821 12.1753 16.1799 11.4146 16.1799ZM12.8488 21.1995C12.8488 21.5799 12.6977 21.9447 12.4287 22.2136C12.1598 22.4826 11.795 22.6337 11.4146 22.6337H9.26335C8.88299 22.6337 8.5182 22.4826 8.24924 22.2136C7.98029 21.9447 7.82919 21.5799 7.82919 21.1995V19.0483C7.82919 18.6679 7.98029 18.3031 8.24924 18.0342C8.5182 17.7652 8.88299 17.6141 9.26335 17.6141H11.4146C11.795 17.6141 12.1598 17.7652 12.4287 18.0342C12.6977 18.3031 12.8488 18.6679 12.8488 19.0483V21.1995Z" fill="#4A74EA"/>
<path d="M20.7366 16.1799H18.5854C17.8246 16.1799 17.0951 16.4821 16.5572 17.02C16.0192 17.558 15.717 18.2875 15.717 19.0483V21.1995C15.717 21.9602 16.0192 22.6898 16.5572 23.2277C17.0951 23.7656 17.8246 24.0678 18.5854 24.0678H20.7366C21.4974 24.0678 22.2269 23.7656 22.7648 23.2277C23.3028 22.6898 23.605 21.9602 23.605 21.1995V19.0483C23.605 18.2875 23.3028 17.558 22.7648 17.02C22.2269 16.4821 21.4974 16.1799 20.7366 16.1799ZM22.1708 21.1995C22.1708 21.5799 22.0197 21.9447 21.7507 22.2136C21.4818 22.4826 21.117 22.6337 20.7366 22.6337H18.5854C18.205 22.6337 17.8402 22.4826 17.5713 22.2136C17.3023 21.9447 17.1512 21.5799 17.1512 21.1995V19.0483C17.1512 18.6679 17.3023 18.3031 17.5713 18.0342C17.8402 17.7652 18.205 17.6141 18.5854 17.6141H20.7366C21.117 17.6141 21.4818 17.7652 21.7507 18.0342C22.0197 18.3031 22.1708 18.6679 22.1708 19.0483V21.1995Z" fill="#4A74EA"/>
</g>
<defs>
<clipPath id="clip0_2736_4525">
<rect width="17.21" height="17.21" fill="white" transform="translate(6.39502 6.85791)"/>
</clipPath>
</defs>
</svg>
