<svg width="24" height="24" viewBox="0 0 24 24" fill="none" xmlns="http://www.w3.org/2000/svg">
<rect width="24" height="24" fill="#1E1E1E"/>
<g id="Call to actions">
<rect width="375" height="812" transform="translate(-99 -482)" fill="white"/>
<g id="Add To cart Button " clip-path="url(#clip0_599_10029)">
<g id="Group 2851">
<g id="Group 2815">
<g id="Rectangle 4456" filter="url(#filter0_d_599_10029)">
<rect x="-99" y="-26" width="375" height="94" fill="white"/>
</g>
<g id="Group 2813">
<rect id="Rectangle 4457" x="-83" y="-13" width="343" height="48" rx="2" fill="#1C2B55"/>
<path id="Can order anyway" d="M28.7129 16.2637C27.7119 16.2637 26.8477 16.0391 26.1201 15.5898C25.3975 15.1406 24.8384 14.5034 24.4429 13.6782C24.0522 12.8481 23.8569 11.8643 23.8569 10.7266V10.7119C23.8569 9.56934 24.0522 8.58545 24.4429 7.76025C24.8384 6.93018 25.3975 6.29053 26.1201 5.84131C26.8428 5.39209 27.7046 5.16748 28.7056 5.16748C29.5063 5.16748 30.229 5.32617 30.8735 5.64355C31.5181 5.95605 32.043 6.39062 32.4482 6.94727C32.8535 7.49902 33.0977 8.13379 33.1807 8.85156L33.1733 8.91016H31.3276L31.3203 8.87354C31.2324 8.4585 31.0664 8.09717 30.8223 7.78955C30.5781 7.47705 30.2754 7.23535 29.9141 7.06445C29.5527 6.88867 29.1499 6.80078 28.7056 6.80078C28.1099 6.80078 27.5923 6.95947 27.1528 7.27686C26.7134 7.59424 26.374 8.0459 26.1348 8.63184C25.9004 9.21289 25.7832 9.90381 25.7832 10.7046V10.7192C25.7832 11.52 25.9004 12.2134 26.1348 12.7993C26.374 13.3853 26.7134 13.8369 27.1528 14.1543C27.5923 14.4717 28.1123 14.6304 28.7129 14.6304C29.1621 14.6304 29.5649 14.5522 29.9214 14.396C30.2827 14.2397 30.583 14.02 30.8223 13.7368C31.0664 13.4487 31.2324 13.1118 31.3203 12.7261L31.335 12.6821H33.1807V12.7407C33.0879 13.4438 32.8413 14.0591 32.4409 14.5864C32.0405 15.1138 31.5229 15.5264 30.8882 15.8242C30.2534 16.1172 29.5283 16.2637 28.7129 16.2637ZM37.2822 16.1318C36.7793 16.1318 36.3276 16.0342 35.9272 15.8389C35.5317 15.6436 35.2192 15.3677 34.9897 15.0112C34.7651 14.6499 34.6528 14.2251 34.6528 13.7368V13.7222C34.6528 13.2485 34.77 12.8408 35.0044 12.499C35.2388 12.1523 35.583 11.8813 36.0371 11.686C36.4912 11.4907 37.043 11.376 37.6924 11.3418L40.6514 11.1587V12.3599L37.9487 12.5356C37.436 12.5649 37.0576 12.6724 36.8135 12.8579C36.5693 13.0435 36.4473 13.3022 36.4473 13.6343V13.6489C36.4473 13.9907 36.5767 14.2568 36.8354 14.4473C37.0991 14.6377 37.4336 14.7329 37.8389 14.7329C38.2051 14.7329 38.5322 14.6597 38.8203 14.5132C39.1084 14.3667 39.3354 14.1689 39.5015 13.9199C39.6675 13.666 39.7505 13.3804 39.7505 13.063V10.5288C39.7505 10.1284 39.6235 9.82324 39.3696 9.61328C39.1157 9.39844 38.7397 9.29102 38.2417 9.29102C37.8267 9.29102 37.4873 9.36426 37.2236 9.51074C36.96 9.65234 36.7817 9.85498 36.689 10.1187L36.6816 10.1479H34.9604L34.9678 10.082C35.0264 9.63281 35.2021 9.23975 35.4951 8.90283C35.7881 8.56592 36.1763 8.30469 36.6597 8.11914C37.1431 7.93359 37.6997 7.84082 38.3296 7.84082C39.0229 7.84082 39.6089 7.94824 40.0874 8.16309C40.5659 8.37305 40.9297 8.68066 41.1787 9.08594C41.4277 9.48633 41.5522 9.96729 41.5522 10.5288V16H39.7505V14.9014H39.626C39.4795 15.1553 39.2891 15.375 39.0547 15.5605C38.8252 15.7461 38.5615 15.8877 38.2637 15.9854C37.9658 16.083 37.6387 16.1318 37.2822 16.1318ZM43.7422 16V7.99463H45.5659V9.2251H45.6904C45.8809 8.79053 46.1689 8.45117 46.5547 8.20703C46.9404 7.96289 47.4214 7.84082 47.9976 7.84082C48.8911 7.84082 49.5747 8.09961 50.0483 8.61719C50.522 9.13477 50.7588 9.86963 50.7588 10.8218V16H48.9351V11.2466C48.9351 10.6216 48.8032 10.1528 48.5396 9.84033C48.2808 9.52783 47.8755 9.37158 47.3237 9.37158C46.9624 9.37158 46.6499 9.45215 46.3862 9.61328C46.1226 9.77441 45.9199 10.0015 45.7783 10.2944C45.6367 10.5874 45.5659 10.9341 45.5659 11.3345V16H43.7422ZM60.3682 16.1611C59.5723 16.1611 58.8862 15.9951 58.3101 15.6631C57.7339 15.3262 57.2896 14.8477 56.9771 14.2275C56.6694 13.6074 56.5156 12.8652 56.5156 12.001V11.9863C56.5156 11.1318 56.6719 10.3945 56.9844 9.77441C57.2969 9.14941 57.7388 8.6709 58.3101 8.33887C58.8862 8.00684 59.5723 7.84082 60.3682 7.84082C61.1641 7.84082 61.8477 8.00684 62.4189 8.33887C62.9951 8.6709 63.4395 9.14697 63.752 9.76709C64.0645 10.3872 64.2207 11.127 64.2207 11.9863V12.001C64.2207 12.8652 64.0645 13.6074 63.752 14.2275C63.4443 14.8477 63.0024 15.3262 62.4263 15.6631C61.855 15.9951 61.1689 16.1611 60.3682 16.1611ZM60.3682 14.6816C60.7881 14.6816 61.1445 14.5767 61.4375 14.3667C61.7354 14.1519 61.9624 13.8467 62.1187 13.4512C62.2749 13.0508 62.353 12.5698 62.353 12.0083V11.9937C62.353 11.4272 62.2749 10.9463 62.1187 10.5508C61.9624 10.1504 61.7354 9.84521 61.4375 9.63525C61.1445 9.42041 60.7881 9.31299 60.3682 9.31299C59.9482 9.31299 59.5894 9.42041 59.2915 9.63525C58.9937 9.84521 58.7666 10.1504 58.6104 10.5508C58.4541 10.9463 58.376 11.4272 58.376 11.9937V12.0083C58.376 12.5698 58.4541 13.0508 58.6104 13.4512C58.7666 13.8516 58.9912 14.1567 59.2842 14.3667C59.582 14.5767 59.9434 14.6816 60.3682 14.6816ZM66.0518 16V7.99463H67.8755V9.2251H68C68.1367 8.79541 68.3809 8.46094 68.7324 8.22168C69.0889 7.98242 69.5308 7.86279 70.0581 7.86279C70.1948 7.86279 70.3291 7.87256 70.4609 7.89209C70.5977 7.90674 70.71 7.92627 70.7979 7.95068V9.58398C70.6514 9.5498 70.5024 9.52539 70.3511 9.51074C70.2046 9.49121 70.0508 9.48145 69.8896 9.48145C69.4844 9.48145 69.1304 9.55713 68.8276 9.7085C68.5249 9.85986 68.2905 10.0771 68.1245 10.3604C67.9585 10.6387 67.8755 10.9683 67.8755 11.3491V16H66.0518ZM74.9727 16.1318C74.3086 16.1318 73.73 15.9658 73.2368 15.6338C72.7437 15.2969 72.3628 14.8184 72.0942 14.1982C71.8257 13.5781 71.6914 12.8481 71.6914 12.0083V11.9937C71.6914 11.144 71.8232 10.4116 72.0869 9.79639C72.3555 9.17627 72.7339 8.7002 73.2222 8.36816C73.7153 8.03125 74.2988 7.86279 74.9727 7.86279C75.3389 7.86279 75.6807 7.92139 75.998 8.03857C76.3154 8.15088 76.5938 8.31201 76.833 8.52197C77.0771 8.73193 77.2676 8.98096 77.4043 9.26904H77.5361V4.89648H79.3525V16H77.5361V14.7476H77.4043C77.2578 15.0356 77.0649 15.2847 76.8257 15.4946C76.5913 15.6997 76.3179 15.8584 76.0054 15.9707C75.6929 16.0781 75.3486 16.1318 74.9727 16.1318ZM75.5439 14.5938C75.959 14.5938 76.3154 14.4912 76.6133 14.2861C76.916 14.0762 77.1479 13.7783 77.3091 13.3926C77.4751 13.002 77.5581 12.5405 77.5581 12.0083V11.9937C77.5581 11.4565 77.4751 10.9951 77.3091 10.6094C77.1479 10.2236 76.916 9.92578 76.6133 9.71582C76.3154 9.50586 75.959 9.40088 75.5439 9.40088C75.1338 9.40088 74.7773 9.50586 74.4746 9.71582C74.1768 9.9209 73.9473 10.2188 73.7861 10.6094C73.625 10.9951 73.5444 11.4565 73.5444 11.9937V12.0083C73.5444 12.5454 73.625 13.0068 73.7861 13.3926C73.9473 13.7783 74.1768 14.0762 74.4746 14.2861C74.7725 14.4912 75.1289 14.5938 75.5439 14.5938ZM85.0801 16.1611C84.2842 16.1611 83.6006 15.9927 83.0293 15.6558C82.4629 15.3188 82.0259 14.8403 81.7183 14.2202C81.4106 13.6001 81.2568 12.8652 81.2568 12.0156V12.0083C81.2568 11.1685 81.4082 10.436 81.7109 9.81104C82.0186 9.18604 82.4531 8.70264 83.0146 8.36084C83.5762 8.01416 84.2354 7.84082 84.9922 7.84082C85.7539 7.84082 86.4082 8.00928 86.9551 8.34619C87.5068 8.67822 87.9316 9.14453 88.2295 9.74512C88.5273 10.3457 88.6763 11.0488 88.6763 11.8545V12.4551H82.1724V11.2319H87.7827L86.9185 12.3745V11.6494C86.9185 11.1172 86.8379 10.6753 86.6768 10.3237C86.5156 9.97217 86.291 9.7085 86.0029 9.53271C85.7197 9.35693 85.3901 9.26904 85.0142 9.26904C84.6382 9.26904 84.3037 9.36182 84.0107 9.54736C83.7227 9.72803 83.4932 9.99658 83.3223 10.353C83.1562 10.7046 83.0732 11.1367 83.0732 11.6494V12.3818C83.0732 12.875 83.1562 13.2974 83.3223 13.6489C83.4883 13.9956 83.7227 14.2642 84.0254 14.4546C84.333 14.6401 84.6968 14.7329 85.1167 14.7329C85.4438 14.7329 85.7246 14.6865 85.959 14.5938C86.1982 14.4961 86.3911 14.3813 86.5376 14.2495C86.6841 14.1128 86.7866 13.9834 86.8452 13.8613L86.8672 13.8101H88.5957L88.5811 13.876C88.5176 14.1348 88.4004 14.3984 88.2295 14.667C88.0635 14.9307 87.8364 15.1772 87.5483 15.4067C87.2651 15.6313 86.9185 15.8145 86.5083 15.9561C86.0981 16.0928 85.6221 16.1611 85.0801 16.1611ZM90.5 16V7.99463H92.3237V9.2251H92.4482C92.585 8.79541 92.8291 8.46094 93.1807 8.22168C93.5371 7.98242 93.979 7.86279 94.5063 7.86279C94.6431 7.86279 94.7773 7.87256 94.9092 7.89209C95.0459 7.90674 95.1582 7.92627 95.2461 7.95068V9.58398C95.0996 9.5498 94.9507 9.52539 94.7993 9.51074C94.6528 9.49121 94.499 9.48145 94.3379 9.48145C93.9326 9.48145 93.5786 9.55713 93.2759 9.7085C92.9731 9.85986 92.7388 10.0771 92.5728 10.3604C92.4067 10.6387 92.3237 10.9683 92.3237 11.3491V16H90.5ZM102.907 16.1318C102.404 16.1318 101.953 16.0342 101.552 15.8389C101.157 15.6436 100.844 15.3677 100.615 15.0112C100.39 14.6499 100.278 14.2251 100.278 13.7368V13.7222C100.278 13.2485 100.395 12.8408 100.629 12.499C100.864 12.1523 101.208 11.8813 101.662 11.686C102.116 11.4907 102.668 11.376 103.317 11.3418L106.276 11.1587V12.3599L103.574 12.5356C103.061 12.5649 102.683 12.6724 102.438 12.8579C102.194 13.0435 102.072 13.3022 102.072 13.6343V13.6489C102.072 13.9907 102.202 14.2568 102.46 14.4473C102.724 14.6377 103.059 14.7329 103.464 14.7329C103.83 14.7329 104.157 14.6597 104.445 14.5132C104.733 14.3667 104.96 14.1689 105.126 13.9199C105.292 13.666 105.375 13.3804 105.375 13.063V10.5288C105.375 10.1284 105.249 9.82324 104.995 9.61328C104.741 9.39844 104.365 9.29102 103.867 9.29102C103.452 9.29102 103.112 9.36426 102.849 9.51074C102.585 9.65234 102.407 9.85498 102.314 10.1187L102.307 10.1479H100.585L100.593 10.082C100.651 9.63281 100.827 9.23975 101.12 8.90283C101.413 8.56592 101.801 8.30469 102.285 8.11914C102.768 7.93359 103.325 7.84082 103.955 7.84082C104.648 7.84082 105.234 7.94824 105.712 8.16309C106.191 8.37305 106.555 8.68066 106.804 9.08594C107.053 9.48633 107.177 9.96729 107.177 10.5288V16H105.375V14.9014H105.251C105.104 15.1553 104.914 15.375 104.68 15.5605C104.45 15.7461 104.187 15.8877 103.889 15.9854C103.591 16.083 103.264 16.1318 102.907 16.1318ZM109.367 16V7.99463H111.191V9.2251H111.315C111.506 8.79053 111.794 8.45117 112.18 8.20703C112.565 7.96289 113.046 7.84082 113.623 7.84082C114.516 7.84082 115.2 8.09961 115.673 8.61719C116.147 9.13477 116.384 9.86963 116.384 10.8218V16H114.56V11.2466C114.56 10.6216 114.428 10.1528 114.165 9.84033C113.906 9.52783 113.5 9.37158 112.949 9.37158C112.587 9.37158 112.275 9.45215 112.011 9.61328C111.748 9.77441 111.545 10.0015 111.403 10.2944C111.262 10.5874 111.191 10.9341 111.191 11.3345V16H109.367ZM119.145 18.8125C119.033 18.8125 118.916 18.8101 118.793 18.8052C118.676 18.8003 118.562 18.793 118.449 18.7832V17.3843C118.522 17.394 118.608 17.3989 118.706 17.3989C118.803 17.4038 118.898 17.4062 118.991 17.4062C119.367 17.4062 119.667 17.3232 119.892 17.1572C120.122 16.9961 120.285 16.7349 120.383 16.3735L120.478 16.0073L117.614 7.99463H119.606L121.716 15.0845L121.218 14.2495H121.848L121.364 15.0845L123.474 7.99463H125.393L122.521 16.1758C122.287 16.8398 122.021 17.3647 121.723 17.7505C121.43 18.1362 121.074 18.4097 120.654 18.5708C120.239 18.7319 119.736 18.8125 119.145 18.8125ZM128.476 16L126.301 7.99463H128.132L129.458 14.0151H129.589L131.127 7.99463H132.863L134.409 14.0151H134.541L135.866 7.99463H137.675L135.5 16H133.596L132.036 10.1992H131.911L130.358 16H128.476ZM141.213 16.1318C140.71 16.1318 140.258 16.0342 139.858 15.8389C139.462 15.6436 139.15 15.3677 138.92 15.0112C138.696 14.6499 138.583 14.2251 138.583 13.7368V13.7222C138.583 13.2485 138.701 12.8408 138.935 12.499C139.169 12.1523 139.514 11.8813 139.968 11.686C140.422 11.4907 140.974 11.376 141.623 11.3418L144.582 11.1587V12.3599L141.879 12.5356C141.367 12.5649 140.988 12.6724 140.744 12.8579C140.5 13.0435 140.378 13.3022 140.378 13.6343V13.6489C140.378 13.9907 140.507 14.2568 140.766 14.4473C141.03 14.6377 141.364 14.7329 141.77 14.7329C142.136 14.7329 142.463 14.6597 142.751 14.5132C143.039 14.3667 143.266 14.1689 143.432 13.9199C143.598 13.666 143.681 13.3804 143.681 13.063V10.5288C143.681 10.1284 143.554 9.82324 143.3 9.61328C143.046 9.39844 142.67 9.29102 142.172 9.29102C141.757 9.29102 141.418 9.36426 141.154 9.51074C140.891 9.65234 140.712 9.85498 140.62 10.1187L140.612 10.1479H138.891L138.898 10.082C138.957 9.63281 139.133 9.23975 139.426 8.90283C139.719 8.56592 140.107 8.30469 140.59 8.11914C141.074 7.93359 141.63 7.84082 142.26 7.84082C142.954 7.84082 143.54 7.94824 144.018 8.16309C144.497 8.37305 144.86 8.68066 145.109 9.08594C145.358 9.48633 145.483 9.96729 145.483 10.5288V16H143.681V14.9014H143.557C143.41 15.1553 143.22 15.375 142.985 15.5605C142.756 15.7461 142.492 15.8877 142.194 15.9854C141.896 16.083 141.569 16.1318 141.213 16.1318ZM148.281 18.8125C148.168 18.8125 148.051 18.8101 147.929 18.8052C147.812 18.8003 147.697 18.793 147.585 18.7832V17.3843C147.658 17.394 147.744 17.3989 147.841 17.3989C147.939 17.4038 148.034 17.4062 148.127 17.4062C148.503 17.4062 148.803 17.3232 149.028 17.1572C149.257 16.9961 149.421 16.7349 149.519 16.3735L149.614 16.0073L146.75 7.99463H148.742L150.852 15.0845L150.354 14.2495H150.983L150.5 15.0845L152.609 7.99463H154.528L151.657 16.1758C151.423 16.8398 151.157 17.3647 150.859 17.7505C150.566 18.1362 150.209 18.4097 149.79 18.5708C149.375 18.7319 148.872 18.8125 148.281 18.8125Z" fill="white"/>
</g>
</g>
</g>
<g id="Group 2841">
<g id="Group 2815_2">
<g id="Rectangle 4456_2" filter="url(#filter1_d_599_10029)">
<rect x="-98" y="-25" width="375" height="94" fill="white"/>
</g>
</g>
<circle id="Ellipse 40" cx="12" cy="12" r="20" fill="#F0780A"/>
<g id="add 1">
<g id="Group">
<g id="Group_2">
<path id="Vector" d="M12 20.6241C11.3527 20.6241 10.8281 20.0996 10.8281 19.4522V4.54785C10.8281 3.90051 11.3527 3.37598 12 3.37598C12.6473 3.37598 13.1719 3.90051 13.1719 4.54785V19.4522C13.1719 20.0996 12.6473 20.6241 12 20.6241Z" fill="#F6F6F6"/>
</g>
<g id="Group_3">
<path id="Vector_2" d="M19.4522 13.1719H4.54785C3.90051 13.1719 3.37598 12.6473 3.37598 12C3.37598 11.3527 3.90051 10.8281 4.54785 10.8281H19.4522C20.0996 10.8281 20.6241 11.3527 20.6241 12C20.6241 12.6473 20.0996 13.1719 19.4522 13.1719Z" fill="#F6F6F6"/>
</g>
</g>
</g>
</g>
</g>
</g>
<defs>
<filter id="filter0_d_599_10029" x="-99" y="-30" width="383" height="102" filterUnits="userSpaceOnUse" color-interpolation-filters="sRGB">
<feFlood flood-opacity="0" result="BackgroundImageFix"/>
<feColorMatrix in="SourceAlpha" type="matrix" values="0 0 0 0 0 0 0 0 0 0 0 0 0 0 0 0 0 0 127 0" result="hardAlpha"/>
<feOffset dx="4"/>
<feGaussianBlur stdDeviation="2"/>
<feComposite in2="hardAlpha" operator="out"/>
<feColorMatrix type="matrix" values="0 0 0 0 0 0 0 0 0 0 0 0 0 0 0 0 0 0 0.25 0"/>
<feBlend mode="normal" in2="BackgroundImageFix" result="effect1_dropShadow_599_10029"/>
<feBlend mode="normal" in="SourceGraphic" in2="effect1_dropShadow_599_10029" result="shape"/>
</filter>
<filter id="filter1_d_599_10029" x="-109" y="-34" width="397" height="116" filterUnits="userSpaceOnUse" color-interpolation-filters="sRGB">
<feFlood flood-opacity="0" result="BackgroundImageFix"/>
<feColorMatrix in="SourceAlpha" type="matrix" values="0 0 0 0 0 0 0 0 0 0 0 0 0 0 0 0 0 0 127 0" result="hardAlpha"/>
<feOffset dy="2"/>
<feGaussianBlur stdDeviation="5.5"/>
<feComposite in2="hardAlpha" operator="out"/>
<feColorMatrix type="matrix" values="0 0 0 0 0.537255 0 0 0 0 0.537255 0 0 0 0 0.537255 0 0 0 0.25 0"/>
<feBlend mode="normal" in2="BackgroundImageFix" result="effect1_dropShadow_599_10029"/>
<feBlend mode="normal" in="SourceGraphic" in2="effect1_dropShadow_599_10029" result="shape"/>
</filter>
<clipPath id="clip0_599_10029">
<rect width="375" height="96" fill="white" transform="translate(-99 -28)"/>
</clipPath>
</defs>
</svg>
