<svg width="24" height="24" viewBox="0 0 24 24" fill="none" xmlns="http://www.w3.org/2000/svg">
<g id="ICON 1" clip-path="url(#clip0_1160_8236)">
<g id="search-4 1" clip-path="url(#clip1_1160_8236)">
<g id="01 align center">
<path id="Vector" d="M20.0001 19.0573L15.8254 14.8826C16.9098 13.5564 17.443 11.864 17.3147 10.1557C17.1863 8.44733 16.4062 6.85366 15.1358 5.70432C13.8654 4.55498 12.2018 3.9379 10.4892 3.98073C8.77656 4.02355 7.1459 4.72299 5.93451 5.93439C4.72311 7.14578 4.02367 8.77644 3.98085 10.4891C3.93803 12.2017 4.55511 13.8653 5.70445 15.1357C6.85379 16.4061 8.44745 17.1862 10.1558 17.3145C11.8642 17.4429 13.5565 16.9097 14.8828 15.8253L19.0574 20L20.0001 19.0573ZM10.6668 16C9.61193 16 8.58079 15.6872 7.70372 15.1011C6.82666 14.5151 6.14308 13.6822 5.73941 12.7076C5.33574 11.7331 5.23012 10.6607 5.43591 9.62616C5.6417 8.5916 6.14965 7.64129 6.89553 6.89541C7.64141 6.14953 8.59172 5.64158 9.62628 5.43579C10.6608 5.23 11.7332 5.33562 12.7077 5.73929C13.6823 6.14295 14.5152 6.82654 15.1013 7.7036C15.6873 8.58066 16.0001 9.61181 16.0001 10.6666C15.9985 12.0806 15.4361 13.4363 14.4362 14.4361C13.4364 15.436 12.0808 15.9984 10.6668 16Z" fill="#858585"/>
</g>
</g>
</g>
<defs>
<clipPath id="clip0_1160_8236">
<rect width="24" height="24" fill="white"/>
</clipPath>
<clipPath id="clip1_1160_8236">
<rect width="16" height="16" fill="white" transform="translate(4 4)"/>
</clipPath>
</defs>
</svg>
