<svg width="16" height="17" viewBox="0 0 16 17" fill="none" xmlns="http://www.w3.org/2000/svg">
<path d="M2.11512 8.04804C1.51129 8.04804 1.05842 7.89709 0.756504 7.59517C0.460181 7.29326 0.312019 6.8292 0.312019 6.20301V2.70584C0.312019 2.07964 0.460181 1.61839 0.756504 1.32206C1.05842 1.02015 1.51129 0.86919 2.11512 0.86919H5.67939C6.28321 0.86919 6.73609 1.02015 7.038 1.32206C7.33991 1.61839 7.49087 2.07964 7.49087 2.70584V6.20301C7.49087 6.8292 7.33991 7.29326 7.038 7.59517C6.73609 7.89709 6.28321 8.04804 5.67939 8.04804H2.11512ZM2.13189 6.66427H5.66261C5.80798 6.66427 5.917 6.62513 5.98969 6.54686C6.06796 6.46858 6.1071 6.35397 6.1071 6.20301V2.69745C6.1071 2.54649 6.06796 2.43467 5.98969 2.36199C5.917 2.28931 5.80798 2.25296 5.66261 2.25296H2.13189C1.98093 2.25296 1.86911 2.28931 1.79643 2.36199C1.72934 2.43467 1.69579 2.54649 1.69579 2.69745V6.20301C1.69579 6.35397 1.72934 6.46858 1.79643 6.54686C1.86911 6.62513 1.98093 6.66427 2.13189 6.66427ZM10.6023 8.04804C9.99844 8.04804 9.54557 7.89709 9.24365 7.59517C8.94174 7.29326 8.79078 6.8292 8.79078 6.20301V2.70584C8.79078 2.07964 8.94174 1.61839 9.24365 1.32206C9.54557 1.02015 9.99844 0.86919 10.6023 0.86919H14.1665C14.7704 0.86919 15.2204 1.02015 15.5168 1.32206C15.8187 1.61839 15.9696 2.07964 15.9696 2.70584V6.20301C15.9696 6.8292 15.8187 7.29326 15.5168 7.59517C15.2204 7.89709 14.7704 8.04804 14.1665 8.04804H10.6023ZM10.619 6.66427H14.1498C14.3007 6.66427 14.4097 6.62513 14.4768 6.54686C14.5495 6.46858 14.5859 6.35397 14.5859 6.20301V2.69745C14.5859 2.54649 14.5495 2.43467 14.4768 2.36199C14.4097 2.28931 14.3007 2.25296 14.1498 2.25296H10.619C10.4681 2.25296 10.3563 2.28931 10.2836 2.36199C10.2109 2.43467 10.1746 2.54649 10.1746 2.69745V6.20301C10.1746 6.35397 10.2109 6.46858 10.2836 6.54686C10.3563 6.62513 10.4681 6.66427 10.619 6.66427ZM2.11512 16.5268C1.51129 16.5268 1.05842 16.3758 0.756504 16.0739C0.460181 15.7776 0.312019 15.3164 0.312019 14.6902V11.1846C0.312019 10.564 0.460181 10.1027 0.756504 9.80082C1.05842 9.49891 1.51129 9.34795 2.11512 9.34795H5.67939C6.28321 9.34795 6.73609 9.49891 7.038 9.80082C7.33991 10.1027 7.49087 10.564 7.49087 11.1846V14.6902C7.49087 15.3164 7.33991 15.7776 7.038 16.0739C6.73609 16.3758 6.28321 16.5268 5.67939 16.5268H2.11512ZM2.13189 15.143H5.66261C5.80798 15.143 5.917 15.1067 5.98969 15.034C6.06796 14.9613 6.1071 14.8495 6.1071 14.6985V11.1846C6.1071 11.0336 6.06796 10.9218 5.98969 10.8491C5.917 10.7709 5.80798 10.7317 5.66261 10.7317H2.13189C1.98093 10.7317 1.86911 10.7709 1.79643 10.8491C1.72934 10.9218 1.69579 11.0336 1.69579 11.1846V14.6985C1.69579 14.8495 1.72934 14.9613 1.79643 15.034C1.86911 15.1067 1.98093 15.143 2.13189 15.143ZM10.6023 16.5268C9.99844 16.5268 9.54557 16.3758 9.24365 16.0739C8.94174 15.7776 8.79078 15.3164 8.79078 14.6902V11.1846C8.79078 10.564 8.94174 10.1027 9.24365 9.80082C9.54557 9.49891 9.99844 9.34795 10.6023 9.34795H14.1665C14.7704 9.34795 15.2204 9.49891 15.5168 9.80082C15.8187 10.1027 15.9696 10.564 15.9696 11.1846V14.6902C15.9696 15.3164 15.8187 15.7776 15.5168 16.0739C15.2204 16.3758 14.7704 16.5268 14.1665 16.5268H10.6023ZM10.619 15.143H14.1498C14.3007 15.143 14.4097 15.1067 14.4768 15.034C14.5495 14.9613 14.5859 14.8495 14.5859 14.6985V11.1846C14.5859 11.0336 14.5495 10.9218 14.4768 10.8491C14.4097 10.7709 14.3007 10.7317 14.1498 10.7317H10.619C10.4681 10.7317 10.3563 10.7709 10.2836 10.8491C10.2109 10.9218 10.1746 11.0336 10.1746 11.1846V14.6985C10.1746 14.8495 10.2109 14.9613 10.2836 15.034C10.3563 15.1067 10.4681 15.143 10.619 15.143Z" fill="#999999"/>
</svg>
