<svg width="22" height="23" viewBox="0 0 22 23" fill="none" xmlns="http://www.w3.org/2000/svg">
<g id="Home">
<g id="Group">
<path id="Vector" d="M5.20442 2.75952H7.32942C8.89421 2.75952 10.1627 4.02805 10.1627 5.59284V7.71784C10.1627 9.28264 8.89421 10.5512 7.32942 10.5512H5.20442C3.63962 10.5512 2.37109 9.28267 2.37109 7.71784V5.59284C2.37109 4.02805 3.63962 2.75952 5.20442 2.75952Z" fill="#858585"/>
<path id="Vector_2" d="M14.4134 2.75952H16.5384C18.1032 2.75952 19.3717 4.02805 19.3717 5.59284V7.71784C19.3717 9.28264 18.1032 10.5512 16.5384 10.5512H14.4134C12.8486 10.5512 11.5801 9.28264 11.5801 7.71784V5.59284C11.58 4.02805 12.8486 2.75952 14.4134 2.75952Z" fill="#858585"/>
<path id="Vector_3" d="M5.20442 11.9685H7.32942C8.89421 11.9685 10.1627 13.237 10.1627 14.8018V16.9268C10.1627 18.4916 8.89421 19.7601 7.32942 19.7601H5.20442C3.63962 19.7602 2.37109 18.4917 2.37109 16.9269V14.8019C2.37109 13.237 3.63962 11.9685 5.20442 11.9685Z" fill="#858585"/>
<path id="Vector_4" d="M14.4134 11.9685H16.5384C18.1032 11.9685 19.3717 13.237 19.3717 14.8018V16.9268C19.3717 18.4917 18.1032 19.7602 16.5384 19.7602H14.4134C12.8486 19.7602 11.5801 18.4917 11.5801 16.9269V14.8019C11.58 13.237 12.8486 11.9685 14.4134 11.9685Z" fill="#858585"/>
</g>
</g>
</svg>
