<svg width="18" height="18" viewBox="0 0 18 18" fill="none" xmlns="http://www.w3.org/2000/svg">
<path d="M8.78165 17.6082C7.59636 17.6082 6.48095 17.3818 5.43543 16.9289C4.38992 16.4816 3.4674 15.8582 2.66789 15.0587C1.87396 14.2592 1.25057 13.3367 0.797695 12.2912C0.344823 11.2456 0.118387 10.1302 0.118387 8.94494C0.118387 7.75965 0.344823 6.64424 0.797695 5.59872C1.25057 4.5532 1.87396 3.63348 2.66789 2.83956C3.4674 2.04005 4.38712 1.41385 5.42705 0.960982C6.47257 0.50811 7.58797 0.281674 8.77327 0.281674C9.96415 0.281674 11.0824 0.50811 12.1279 0.960982C13.1734 1.41385 14.0959 2.04005 14.8954 2.83956C15.6949 3.63348 16.3211 4.5532 16.774 5.59872C17.2269 6.64424 17.4533 7.75965 17.4533 8.94494C17.4533 10.1302 17.2269 11.2456 16.774 12.2912C16.3211 13.3367 15.6949 14.2592 14.8954 15.0587C14.0959 15.8582 13.1734 16.4816 12.1279 16.9289C11.0824 17.3818 9.96695 17.6082 8.78165 17.6082ZM8.78165 15.8974C9.7489 15.8974 10.6518 15.7184 11.4905 15.3606C12.3291 15.0028 13.0672 14.5052 13.7045 13.8678C14.3419 13.2304 14.8395 12.4924 15.1973 11.6538C15.5552 10.8151 15.7341 9.91218 15.7341 8.94494C15.7341 7.98329 15.5552 7.08313 15.1973 6.24448C14.8395 5.40024 14.3419 4.65943 13.7045 4.02206C13.0672 3.38468 12.3264 2.88708 11.4821 2.52926C10.6435 2.17143 9.74051 1.99252 8.77327 1.99252C7.81161 1.99252 6.90867 2.17143 6.06442 2.52926C5.22577 2.88708 4.49055 3.38468 3.85877 4.02206C3.22699 4.65943 2.73218 5.40024 2.37436 6.24448C2.01653 7.08313 1.83762 7.98329 1.83762 8.94494C1.83762 9.91218 2.01653 10.8151 2.37436 11.6538C2.73218 12.4924 3.22699 13.2304 3.85877 13.8678C4.49615 14.5052 5.23416 15.0028 6.07281 15.3606C6.91705 15.7184 7.82 15.8974 8.78165 15.8974ZM14.3755 14.48C13.8443 14.9665 13.2461 15.3746 12.5807 15.7045C11.9154 16.0399 11.2501 16.2943 10.5848 16.4676C9.91942 16.641 9.31839 16.7276 8.78165 16.7276C8.25051 16.7276 7.64947 16.641 6.97855 16.4676C6.31322 16.2943 5.64789 16.0399 4.98256 15.7045C4.31723 15.3746 3.72179 14.9665 3.19624 14.48L3.22978 14.3291C3.40869 13.9209 3.74975 13.5268 4.25294 13.1466C4.76172 12.7608 5.40189 12.4477 6.17345 12.2073C6.94501 11.9613 7.81441 11.8383 8.78165 11.8383C9.76008 11.8383 10.6323 11.9613 11.3982 12.2073C12.1698 12.4477 12.8072 12.7608 13.3104 13.1466C13.8191 13.5268 14.163 13.9237 14.3419 14.3375L14.3755 14.48ZM8.78165 10.4545C8.24492 10.4489 7.7585 10.3091 7.3224 10.0352C6.8863 9.75564 6.53966 9.37824 6.28247 8.90301C6.03088 8.42218 5.90228 7.88265 5.89669 7.28441C5.8911 6.72531 6.0169 6.21094 6.27409 5.74129C6.53127 5.26606 6.87791 4.88587 7.31401 4.60073C7.7557 4.31559 8.24492 4.17302 8.78165 4.17302C9.32398 4.17302 9.8104 4.31559 10.2409 4.60073C10.677 4.88587 11.0236 5.26606 11.2808 5.74129C11.5436 6.21094 11.675 6.72531 11.675 7.28441C11.675 7.88265 11.5464 8.42498 11.2892 8.91139C11.032 9.39222 10.6854 9.77241 10.2493 10.052C9.81319 10.3259 9.32398 10.4601 8.78165 10.4545Z" fill="#999999"/>
</svg>
