<svg width="258" height="258" viewBox="0 0 258 258" fill="none" xmlns="http://www.w3.org/2000/svg">
<path d="M209.61 49.8972L208.495 48.0602C199.093 32.5802 182.091 23.2252 164.171 24.3604C161.865 24.5005 159.573 24.8092 157.313 25.284C141.018 28.7722 126.838 41.0994 120.961 56.8787C117.504 66.1667 116.539 76.8479 109.98 84.2267C101.446 93.814 86.9511 94.1184 74.2111 93.7211C61.4711 93.3238 46.9663 93.6592 38.4729 103.288C33.153 109.315 31.476 117.891 31.8888 125.961C33.024 147.333 47.9209 166.446 66.8581 175.956C85.7953 185.466 108.102 186.307 128.83 182.148C157.87 176.297 185.492 160.218 202.102 135.388C218.712 110.558 222.912 76.6982 209.61 49.8972Z" fill="#F5F5F5"/>
<path d="M81.9821 70.5166C90.8478 70.5166 98.0348 63.3295 98.0348 54.4638C98.0348 45.5981 90.8478 38.411 81.9821 38.411C73.1164 38.411 65.9293 45.5981 65.9293 54.4638C65.9293 63.3295 73.1164 70.5166 81.9821 70.5166Z" fill="#F5F5F5"/>
<path d="M244.821 246.163C244.821 246.235 192.963 246.297 129.005 246.297C65.047 246.297 13.1786 246.235 13.1786 246.163C13.1786 246.091 65.016 246.029 129 246.029C192.984 246.029 244.821 246.086 244.821 246.163Z" fill="#263238"/>
<path d="M217.081 223.464C217.59 223.708 218.045 224.051 218.418 224.474C218.791 224.897 219.075 225.39 219.254 225.925C219.605 227.001 219.704 228.144 219.543 229.264C219.3 231.431 218.067 233.619 216.741 235.348C214.919 233.758 214.496 230.977 214.372 229.558C214.176 227.308 215.187 223.129 217.081 223.464Z" fill="#4A74EA"/>
<path d="M218.861 238.908C218.74 238.289 218.783 237.649 218.985 237.051C219.188 236.454 219.544 235.92 220.017 235.502C220.5 235.097 221.06 234.791 221.662 234.603C222.264 234.416 222.898 234.349 223.526 234.408C223.819 234.403 224.11 234.462 224.377 234.581C224.645 234.701 224.883 234.878 225.074 235.1C225.21 235.335 225.281 235.602 225.281 235.874C225.281 236.146 225.21 236.413 225.074 236.648C224.797 237.12 224.4 237.51 223.923 237.778C222.344 238.769 220.631 239.439 218.846 238.903" fill="#4A74EA"/>
<path d="M216.524 245.564C216.534 245.415 216.554 245.267 216.586 245.121C216.648 244.806 216.72 244.403 216.808 243.918C217.011 242.578 217.431 241.28 218.051 240.074C218.694 238.87 219.645 237.859 220.807 237.143C221.16 236.927 221.538 236.754 221.932 236.627C222.038 236.593 222.147 236.566 222.257 236.545C222.294 236.538 222.333 236.538 222.37 236.545C221.846 236.724 221.341 236.956 220.863 237.236C219.738 237.963 218.817 238.965 218.185 240.146C217.579 241.34 217.151 242.616 216.916 243.934C216.808 244.45 216.72 244.847 216.648 245.126C216.623 245.276 216.581 245.423 216.524 245.564Z" fill="#263238"/>
<path d="M216.591 226.715C216.6 226.78 216.6 226.846 216.591 226.911C216.591 227.055 216.591 227.236 216.627 227.468C216.653 227.953 216.679 228.655 216.71 229.532C216.766 231.266 216.808 233.66 216.797 236.318C216.787 238.975 216.72 241.369 216.648 243.103C216.617 243.97 216.581 244.651 216.55 245.167C216.55 245.394 216.55 245.58 216.514 245.724C216.513 245.79 216.504 245.856 216.488 245.92C216.48 245.855 216.48 245.789 216.488 245.724C216.488 245.58 216.488 245.394 216.488 245.162C216.488 244.646 216.519 243.96 216.539 243.098C216.581 241.364 216.627 238.97 216.637 236.318C216.648 233.665 216.637 231.271 216.596 229.537C216.596 228.681 216.57 227.989 216.565 227.473C216.565 227.246 216.565 227.061 216.565 226.916C216.565 226.848 216.574 226.781 216.591 226.715Z" fill="#263238"/>
<path d="M215.688 240.244C215.467 238.931 214.937 237.689 214.141 236.622C213.345 235.554 212.307 234.691 211.111 234.104C210.502 233.815 209.708 233.624 209.202 234.078C208.696 234.532 208.815 235.342 209.063 235.977C209.601 237.292 210.519 238.416 211.699 239.207C212.879 239.998 214.267 240.42 215.688 240.42" fill="#4A74EA"/>
<path d="M211.426 236.158C211.56 236.201 211.69 236.258 211.813 236.328C211.964 236.396 212.111 236.473 212.251 236.56C212.443 236.667 212.629 236.785 212.809 236.911C213.03 237.058 213.242 237.218 213.443 237.391C213.682 237.583 213.909 237.788 214.125 238.005C214.615 238.506 215.046 239.062 215.409 239.661C215.767 240.266 216.053 240.91 216.261 241.581C216.419 242.131 216.528 242.694 216.586 243.263C216.617 243.506 216.586 243.727 216.617 243.918C216.626 244.09 216.626 244.262 216.617 244.434C216.614 244.575 216.599 244.715 216.57 244.852C216.534 244.852 216.596 244.254 216.488 243.304C216.457 243.067 216.426 242.788 216.364 242.525C216.302 242.262 216.225 241.958 216.137 241.653C215.926 240.997 215.642 240.367 215.291 239.775C214.933 239.186 214.513 238.638 214.037 238.139C213.827 237.922 213.607 237.715 213.376 237.52C213.179 237.347 212.973 237.185 212.757 237.035C211.963 236.442 211.41 236.189 211.426 236.158Z" fill="#263238"/>
<path d="M78.463 246.168C78.3109 245.687 78.1919 245.195 78.1069 244.698C77.573 242.341 76.775 240.053 75.7282 237.876C75.4885 237.431 75.2749 236.973 75.0883 236.503C75.4061 236.899 75.6763 237.33 75.8933 237.788C77.0488 239.947 77.8584 242.273 78.2927 244.682C78.4024 245.17 78.4595 245.668 78.463 246.168Z" fill="#263238"/>
<path d="M83.0399 223.836C83.0174 224.131 82.9743 224.424 82.9109 224.713C82.8077 225.27 82.6683 226.08 82.5084 227.081C82.1781 229.089 81.7963 231.865 81.5589 234.95C81.3216 238.036 81.2803 240.848 81.2958 242.876C81.2958 243.908 81.2958 244.713 81.3371 245.281C81.3594 245.574 81.3594 245.869 81.3371 246.163C81.2802 245.874 81.2474 245.58 81.239 245.286C81.1926 244.718 81.1461 243.898 81.1152 242.881C81.0313 240.229 81.0916 237.575 81.2958 234.93C81.4992 232.287 81.8437 229.656 82.3278 227.05C82.5187 226.049 82.6838 225.244 82.818 224.692C82.8702 224.401 82.9443 224.115 83.0399 223.836Z" fill="#263238"/>
<path d="M90.3877 236.689C90.1222 237.122 89.8346 237.54 89.526 237.943C88.8461 238.951 88.2556 240.016 87.7613 241.127C87.2771 242.242 86.8954 243.399 86.6209 244.584C86.5315 245.083 86.4161 245.578 86.2752 246.065C86.2664 245.553 86.3201 245.042 86.4352 244.543C86.8874 242.111 87.8919 239.816 89.3712 237.835C89.659 237.41 90.0007 237.025 90.3877 236.689Z" fill="#263238"/>
<path d="M180.347 238.392C180.613 238.709 180.842 239.055 181.028 239.424C181.41 240.079 181.905 241.008 182.396 242.056C182.886 243.103 183.278 244.089 183.536 244.801C183.702 245.178 183.82 245.575 183.887 245.982C183.679 245.63 183.507 245.259 183.371 244.873C183.072 244.176 182.654 243.217 182.163 242.169C181.673 241.122 181.209 240.188 180.868 239.512C180.654 239.159 180.48 238.783 180.347 238.392Z" fill="#263238"/>
<path d="M189.842 228.97C189.819 229.197 189.774 229.422 189.707 229.641C189.599 230.121 189.46 230.724 189.289 231.447C188.949 232.995 188.531 235.09 188.216 237.453C187.901 239.816 187.757 241.978 187.7 243.537C187.674 244.28 187.654 244.899 187.638 245.389C187.646 245.617 187.629 245.846 187.587 246.07C187.548 245.845 187.529 245.617 187.53 245.389C187.53 244.95 187.504 244.316 187.53 243.531C187.561 241.488 187.711 239.448 187.979 237.422C188.246 235.394 188.632 233.383 189.135 231.4C189.331 230.642 189.506 230.033 189.651 229.615C189.689 229.393 189.753 229.177 189.842 228.97Z" fill="#263238"/>
<path d="M121.157 233.17C121.329 233.268 121.487 233.39 121.626 233.531C122.033 233.881 122.421 234.254 122.787 234.646C125.23 237.242 126.957 240.428 127.798 243.893C127.929 244.414 128.029 244.943 128.097 245.477C128.136 245.67 128.154 245.868 128.149 246.065C128.102 246.065 127.973 245.239 127.633 243.944C126.692 240.549 124.987 237.414 122.648 234.78C121.776 233.748 121.126 233.232 121.157 233.17Z" fill="#263238"/>
<path d="M130.099 227.68C130.121 227.924 130.121 228.169 130.099 228.413C130.099 228.929 130.099 229.605 130.099 230.404C130.099 232.086 130.166 234.408 130.388 236.968C130.61 239.527 130.95 241.823 131.239 243.48C131.379 244.269 131.497 244.93 131.59 245.441C131.649 245.679 131.683 245.923 131.694 246.168C131.606 245.938 131.537 245.702 131.487 245.461C131.368 245.007 131.219 244.341 131.054 243.516C130.192 239.201 129.808 234.804 129.908 230.404C129.908 229.558 129.96 228.856 130.001 228.407C130.009 228.162 130.042 227.918 130.099 227.68Z" fill="#263238"/>
<path d="M137.994 238.619C138.071 238.66 137.184 240.208 136.575 242.303C135.966 244.398 135.852 246.173 135.77 246.168C135.712 245.78 135.712 245.385 135.77 244.997C135.851 244.059 136.024 243.13 136.286 242.226C136.546 241.323 136.892 240.447 137.318 239.61C137.496 239.25 137.724 238.916 137.994 238.619Z" fill="#263238"/>
<path d="M32.4668 197.071H26.476V244.63H32.4668V197.071Z" fill="#455A64"/>
<path d="M32.4719 244.625C32.4719 244.625 32.4719 244.543 32.4719 244.378V243.666C32.4719 243.031 32.4719 242.118 32.4719 240.931C32.4719 238.552 32.4719 235.115 32.4306 230.848C32.4306 222.308 32.3945 210.44 32.3738 197.071L32.508 197.205H26.476L26.6101 197.071C26.5792 217.902 26.5534 235.941 26.5379 244.625L26.476 244.569L30.9187 244.599H32.0746H32.4719C32.4719 244.599 32.348 244.599 32.0952 244.599H30.9548L26.476 244.63H26.4192V244.569C26.4192 235.884 26.3779 217.845 26.3418 197.014L26.476 196.88H32.606V197.014C32.606 210.43 32.5596 222.324 32.5493 230.889C32.5493 235.141 32.5183 238.567 32.508 240.941C32.508 242.107 32.508 243.005 32.508 243.645V244.341C32.477 244.553 32.4719 244.625 32.4719 244.625Z" fill="#263238"/>
<g opacity="0.3">
<path d="M32.4668 198.227H26.476V200.208H32.4668V198.227Z" fill="black"/>
</g>
<path d="M159.924 197.071H153.933V244.63H159.924V197.071Z" fill="#455A64"/>
<path d="M159.924 244.625C159.924 244.625 159.924 244.543 159.924 244.378V243.666C159.924 243.031 159.924 242.118 159.924 240.931C159.924 238.552 159.924 235.115 159.883 230.848C159.883 222.308 159.852 210.44 159.826 197.071L159.96 197.205H153.933L154.067 197.071C154.031 217.902 154.005 235.941 153.99 244.625L153.933 244.569L158.376 244.599H159.527H159.924C159.924 244.599 159.8 244.599 159.547 244.599H158.412L153.933 244.63H153.871V244.569C153.871 235.884 153.83 217.845 153.799 197.014L153.933 196.88H160.058V197.014C160.058 210.43 160.017 222.324 160.001 230.889C160.001 235.141 159.97 238.567 159.96 240.941C159.96 242.107 159.96 243.005 159.96 243.645V244.341C159.929 244.553 159.924 244.625 159.924 244.625Z" fill="#263238"/>
<path d="M150.533 155.409H144.542V195.053H150.533V155.409Z" fill="#455A64"/>
<path d="M150.538 195.048C150.53 194.978 150.53 194.907 150.538 194.836V194.243C150.538 193.727 150.538 192.948 150.538 191.973C150.538 189.986 150.512 187.133 150.497 183.577C150.497 176.467 150.46 166.58 150.44 155.404L150.574 155.538H144.547C144.81 155.27 144.619 155.471 144.676 155.414V161.704C144.676 163.768 144.676 165.775 144.676 167.736C144.676 171.658 144.676 175.363 144.676 178.773C144.65 185.585 144.635 191.214 144.625 195.048L144.557 194.981L148.99 195.017H150.151H150.553H150.172H149.031L144.557 195.053H144.48V195.048C144.48 191.214 144.454 185.585 144.434 178.773C144.434 175.363 144.434 171.658 144.434 167.736C144.434 165.775 144.434 163.765 144.434 161.704V155.419C144.496 155.357 144.299 155.543 144.573 155.275H150.672V155.409C150.672 166.622 150.631 176.565 150.615 183.681C150.615 187.22 150.584 190.063 150.579 192.04C150.579 193.005 150.579 193.758 150.579 194.284C150.579 194.527 150.579 194.723 150.579 194.862C150.579 195.002 150.538 195.048 150.538 195.048Z" fill="#263238"/>
<path d="M43.9374 155.409H37.9467V195.053H43.9374V155.409Z" fill="#455A64"/>
<path d="M43.9426 195.048C43.9384 194.978 43.9384 194.907 43.9426 194.836C43.9426 194.692 43.9426 194.496 43.9426 194.243C43.9426 193.727 43.9426 192.948 43.9426 191.973C43.9426 189.986 43.9426 187.133 43.9013 183.577C43.9013 176.467 43.8652 166.58 43.8446 155.404L43.9787 155.538H37.9518C38.215 155.27 38.0241 155.471 38.0808 155.414V161.704C38.0808 163.768 38.0808 165.779 38.0808 167.736C38.0808 171.658 38.0808 175.363 38.0808 178.773C38.0808 185.585 38.0396 191.214 38.0292 195.048L37.9622 194.981L42.3946 195.017H43.5556H43.9581H43.5762H42.4359L37.9622 195.053H37.9002V195.048C37.9002 191.214 37.8693 185.585 37.8486 178.773C37.8486 175.363 37.8486 171.658 37.8486 167.736C37.8486 165.775 37.8486 163.765 37.8486 161.704V155.419C37.9106 155.357 37.7145 155.543 37.988 155.275H44.0768V155.409C44.0768 166.622 44.0303 176.565 44.0148 183.681C44.0148 187.22 44.0148 190.063 43.9787 192.04C43.9787 193.005 43.9787 193.758 43.9787 194.284C43.9787 194.527 43.9787 194.723 43.9787 194.862C43.9787 195.002 43.9426 195.048 43.9426 195.048Z" fill="#263238"/>
<path d="M162.096 150.884H26.1251V157.23H162.096V150.884Z" fill="#455A64"/>
<path d="M162.096 157.23C162.096 157.23 162.096 157.101 162.096 156.843C162.096 156.585 162.096 156.198 162.096 155.677C162.096 154.645 162.096 153.051 162.096 150.884L162.132 150.925L26.1664 151.018L26.3006 150.884V157.23L26.1664 157.096L122.504 157.153L151.508 157.194H159.382H161.446H162.148H161.462H159.429H151.591L122.617 157.236L26.1251 157.38H25.991V150.749H26.1303L162.096 150.847H162.138V150.884C162.138 153.061 162.138 154.65 162.138 155.698C162.138 156.214 162.138 156.601 162.138 156.859C162.138 157.117 162.096 157.23 162.096 157.23Z" fill="#263238"/>
<path d="M162.447 160.404H26.476V166.751H162.447V160.404Z" fill="#455A64"/>
<path d="M162.447 166.751C162.447 166.751 162.447 166.622 162.447 166.364C162.447 166.106 162.447 165.719 162.447 165.197C162.447 164.165 162.447 162.571 162.447 160.404L162.483 160.44L26.5224 160.538L26.6566 160.404V166.751L26.5224 166.616L122.808 166.668L151.812 166.704H159.687H161.751H162.452H161.771H159.738H151.895L122.922 166.745L26.4811 166.802H26.347V160.27H26.4915L162.452 160.368H162.494V160.404C162.494 162.581 162.494 164.171 162.494 165.218C162.494 165.734 162.494 166.116 162.494 166.374C162.494 166.632 162.447 166.751 162.447 166.751Z" fill="#263238"/>
<path d="M162.447 170.275H26.476V176.622H162.447V170.275Z" fill="#455A64"/>
<path d="M162.447 176.622C162.447 176.622 162.447 176.493 162.447 176.235C162.447 175.977 162.447 175.59 162.447 175.068C162.447 174.036 162.447 172.442 162.447 170.275L162.483 170.311L26.5224 170.409L26.6566 170.275V176.622L26.5224 176.487L122.865 176.544L151.869 176.586H159.743H161.807H162.509H161.828H159.795H151.952L122.978 176.627L26.5379 176.684H26.4037V170.141H26.5482L162.509 170.239H162.55V170.28C162.55 172.458 162.55 174.047 162.55 175.094C162.55 175.61 162.55 175.992 162.55 176.255C162.55 176.518 162.447 176.622 162.447 176.622Z" fill="#263238"/>
<path d="M162.447 180.146H26.476V186.493H162.447V180.146Z" fill="#455A64"/>
<path d="M162.447 186.493C162.447 186.493 162.447 186.364 162.447 186.106C162.447 185.848 162.447 185.461 162.447 184.94C162.447 183.908 162.447 182.313 162.447 180.146L162.483 180.187L26.5224 180.28L26.6566 180.146V186.493L26.5224 186.359L122.865 186.415L151.869 186.457H159.743H161.807H162.509H161.828H159.795H151.952L122.978 186.498L26.5379 186.555H26.4037V180.012H26.5482L162.509 180.11H162.55V180.146C162.55 182.323 162.55 183.913 162.55 184.96C162.55 185.476 162.55 185.863 162.55 186.121C162.55 186.379 162.447 186.493 162.447 186.493Z" fill="#263238"/>
<path d="M164.924 191.88H20.5729V198.227H164.924V191.88Z" fill="#455A64"/>
<path d="M164.924 198.227C164.924 198.227 164.924 198.098 164.924 197.84C164.924 197.582 164.924 197.195 164.924 196.673C164.924 195.641 164.924 194.047 164.924 191.88L164.965 191.916L20.6194 192.014L20.7535 191.88V198.227L20.6194 198.092L122.88 198.144L153.68 198.185H162.045H164.222C164.712 198.185 164.97 198.185 164.97 198.185H164.238H162.024H153.691L122.927 198.227L20.5626 198.283H20.4285V191.746H20.5678L164.914 191.844H164.95V191.88C164.95 194.057 164.95 195.647 164.95 196.694C164.95 197.21 164.95 197.592 164.95 197.85C164.95 198.108 164.924 198.227 164.924 198.227Z" fill="#263238"/>
<g opacity="0.3">
<path d="M159.924 198.227H153.933V200.208H159.924V198.227Z" fill="black"/>
</g>
<path d="M86.848 118.845L85.5528 127.199L82.2195 134.805L77.2814 131.652L75.5218 127.215L74.0512 123.489C74.0512 123.489 68.8344 124.748 66.755 119.877C65.7539 117.524 64.0821 112.509 62.627 107.947C61.8714 105.58 62.036 103.015 63.0881 100.763C64.1401 98.5118 66.0022 96.7398 68.303 95.8006L68.7725 95.6045C73.9996 93.8036 78.4475 97.235 80.0987 102.503L86.879 118.855" fill="#A2675F"/>
<path d="M74.046 123.489C76.3265 122.6 78.2901 121.052 79.6859 119.041C79.6859 119.041 79.6291 123.195 74.5569 124.764L74.046 123.489Z" fill="#7A4A45"/>
<path d="M65.8106 111.678C65.8833 111.861 66.0251 112.009 66.2055 112.089C66.386 112.169 66.5907 112.175 66.7756 112.106C66.8675 112.077 66.9526 112.029 67.0257 111.966C67.0989 111.903 67.1586 111.825 67.2014 111.739C67.2443 111.652 67.2693 111.558 67.275 111.461C67.2807 111.365 67.2671 111.268 67.2348 111.177C67.1622 110.994 67.0204 110.846 66.8399 110.766C66.6594 110.686 66.4548 110.68 66.2699 110.749C66.1779 110.779 66.0929 110.827 66.0197 110.89C65.9466 110.953 65.8868 111.03 65.844 111.116C65.8012 111.203 65.7762 111.297 65.7704 111.394C65.7647 111.49 65.7784 111.587 65.8106 111.678Z" fill="#263238"/>
<path d="M64.5 109.671C64.6239 109.727 65.016 109.119 65.7488 108.809C66.4815 108.499 67.209 108.649 67.2503 108.525C67.2916 108.401 67.1162 108.339 66.8066 108.262C66.3818 108.162 65.9366 108.197 65.532 108.36C65.14 108.522 64.8093 108.803 64.5878 109.165C64.433 109.449 64.4226 109.65 64.5 109.671Z" fill="#263238"/>
<path d="M72.3793 108.747C72.452 108.931 72.5938 109.078 72.7742 109.158C72.9547 109.239 73.1594 109.245 73.3443 109.175C73.4367 109.146 73.5223 109.099 73.596 109.036C73.6697 108.973 73.73 108.896 73.7733 108.809C73.8167 108.723 73.8421 108.628 73.8482 108.531C73.8543 108.435 73.8408 108.338 73.8087 108.246C73.7349 108.064 73.593 107.917 73.4129 107.837C73.2328 107.757 73.0287 107.75 72.8437 107.818C72.7513 107.847 72.6657 107.895 72.592 107.958C72.5183 108.02 72.458 108.098 72.4146 108.184C72.3713 108.271 72.3459 108.365 72.3398 108.462C72.3337 108.559 72.3472 108.656 72.3793 108.747Z" fill="#263238"/>
<path d="M71.9046 106.373C72.0233 106.44 72.4568 105.857 73.2359 105.646C74.0151 105.434 74.7065 105.646 74.7839 105.527C74.8613 105.408 74.6756 105.331 74.3711 105.218C73.961 105.091 73.5222 105.091 73.1121 105.218C72.7032 105.335 72.342 105.579 72.0801 105.914C71.8788 106.146 71.8479 106.342 71.9046 106.373Z" fill="#263238"/>
<path d="M71.6879 113.706C71.2406 113.743 70.8001 113.839 70.3773 113.99C70.176 114.046 69.98 114.082 69.8922 113.99C69.7926 113.799 69.7547 113.583 69.7839 113.37C69.7839 112.83 69.7735 112.263 69.7529 111.668C69.6807 109.258 69.5465 107.307 69.4536 107.313C69.3608 107.318 69.3298 109.273 69.402 111.683C69.402 112.276 69.4433 112.839 69.4588 113.381C69.4355 113.662 69.5102 113.943 69.6704 114.175C69.7257 114.233 69.7936 114.277 69.8689 114.304C69.9441 114.331 70.0245 114.34 70.1038 114.33C70.2225 114.314 70.3387 114.283 70.4495 114.237C70.8825 114.111 71.2984 113.933 71.6879 113.706Z" fill="#263238"/>
<path d="M70.4598 103.164C70.6198 103.339 71.3319 102.932 72.2607 102.648C73.1895 102.364 74.0047 102.338 74.046 102.132C74.046 102.024 73.8551 101.879 73.4887 101.802C73.0041 101.717 72.5064 101.743 72.0334 101.879C71.5605 102.015 71.1247 102.257 70.7591 102.586C70.4856 102.849 70.3876 103.081 70.4598 103.164Z" fill="#263238"/>
<path d="M63.4061 106.709C63.6125 106.822 64.0563 106.435 64.6755 106.167C65.2947 105.899 65.8777 105.811 65.9242 105.579C65.9242 105.47 65.79 105.336 65.4907 105.269C65.1016 105.193 64.6984 105.244 64.3401 105.414C63.9748 105.57 63.6679 105.837 63.4629 106.177C63.3132 106.44 63.3132 106.647 63.4061 106.709Z" fill="#263238"/>
<path d="M81.1617 106.296C81.2339 106.229 84.1235 103.917 85.3929 107.328C86.6622 110.739 82.9935 111.301 82.9522 111.203C82.9109 111.105 81.1617 106.296 81.1617 106.296Z" fill="#A2675F"/>
<path d="M83.5095 109.506C83.5095 109.506 83.5817 109.506 83.7004 109.531C83.8624 109.536 84.0205 109.481 84.1442 109.377C84.3093 109.158 84.4135 108.9 84.4462 108.628C84.4788 108.356 84.4387 108.08 84.3299 107.829C84.2295 107.534 84.0637 107.266 83.8449 107.044C83.7744 106.949 83.6814 106.873 83.5742 106.823C83.4671 106.772 83.3491 106.749 83.2309 106.755C83.1557 106.762 83.0855 106.796 83.0327 106.85C82.9798 106.903 82.9476 106.974 82.9419 107.049C82.9419 107.163 82.978 107.22 82.9419 107.235C82.9058 107.251 82.849 107.204 82.8232 107.055C82.8114 106.963 82.8314 106.87 82.88 106.791C82.9462 106.685 83.0519 106.609 83.1741 106.58C83.3238 106.556 83.477 106.571 83.6196 106.622C83.7621 106.673 83.8893 106.76 83.9894 106.874C84.242 107.116 84.4331 107.415 84.5467 107.746C84.784 108.437 84.6705 109.211 84.2319 109.536C84.1508 109.597 84.0574 109.638 83.9583 109.658C83.8592 109.677 83.757 109.675 83.6591 109.65C83.5456 109.583 83.4992 109.516 83.5095 109.506Z" fill="#7A4A45"/>
<path d="M59.727 102.441C59.6473 102.089 59.6733 101.721 59.8018 101.383C59.9303 101.045 60.1556 100.753 60.4494 100.543C60.1785 100.285 60.0034 99.9425 59.9529 99.5719C59.9025 99.2014 59.9798 98.8247 60.172 98.5039C60.3643 98.1831 60.66 97.9374 61.0105 97.8071C61.3611 97.6768 61.7455 97.6698 62.1006 97.7872C62.008 97.5343 61.9769 97.263 62.0099 96.9958C62.0428 96.7285 62.1389 96.4729 62.2901 96.2501C62.4413 96.0273 62.6434 95.8436 62.8796 95.7143C63.1158 95.585 63.3794 95.5138 63.6486 95.5064C63.5081 95.2148 63.4708 94.8842 63.5427 94.5686C63.6145 94.253 63.7914 93.9712 64.0444 93.7692C64.2973 93.5672 64.6113 93.457 64.935 93.4567C65.2586 93.4564 65.5728 93.566 65.8261 93.7675C65.9009 93.4053 66.0561 93.0646 66.2803 92.7704C66.5046 92.4763 66.7921 92.2364 67.1215 92.0685C67.451 91.9005 67.8141 91.8088 68.1838 91.8001C68.5536 91.7914 68.9205 91.866 69.2575 92.0183C69.8452 91.5213 70.5949 91.2572 71.3644 91.2763C72.1338 91.2953 72.8695 91.596 73.432 92.1215C73.9972 91.9352 74.6051 91.9212 75.1784 92.081C75.7516 92.2409 76.2645 92.5675 76.6518 93.0193C77.0173 92.9024 77.4072 92.8838 77.7821 92.9656C78.157 93.0473 78.5038 93.2265 78.7874 93.485C79.071 93.7435 79.2815 94.0722 79.3975 94.4379C79.5136 94.8037 79.5312 95.1936 79.4485 95.5684C79.6961 95.6013 79.9327 95.6908 80.14 95.8299C80.3474 95.9691 80.5199 96.1541 80.6441 96.3707C80.7684 96.5873 80.8411 96.8296 80.8566 97.0788C80.872 97.3281 80.8299 97.5775 80.7334 97.8078C81.0319 97.8315 81.3176 97.9391 81.5576 98.1181C81.7976 98.2971 81.9822 98.5403 82.0901 98.8197C82.1979 99.099 82.2247 99.4031 82.1672 99.697C82.1098 99.9909 81.9705 100.263 81.7654 100.481C82.2814 100.336 82.7509 100.909 82.7974 101.446C82.7739 101.981 82.7223 102.515 82.6426 103.045C82.6426 103.489 82.7613 103.922 82.7819 104.366C82.7984 104.783 82.7239 105.198 82.5635 105.583C82.403 105.968 82.1606 106.314 81.8531 106.595L81.9821 106.662C82.2453 107.055 81.7705 107.596 81.2958 107.591C80.824 107.523 80.3835 107.314 80.0316 106.993C79.5664 106.715 79.1469 106.367 78.7881 105.961C78.6126 105.752 78.5096 105.493 78.4948 105.221C78.4799 104.949 78.5538 104.68 78.7055 104.454C78.3748 104.453 78.0502 104.365 77.764 104.2C77.4779 104.034 77.2403 103.796 77.0749 103.51C76.7492 102.935 76.5306 102.305 76.4299 101.652L75.8107 98.7985C75.1922 99.0273 74.5228 99.0824 73.8751 98.9578C73.2275 98.8332 72.6263 98.5336 72.1368 98.0916C71.9783 98.3384 71.769 98.5486 71.5228 98.7082C71.2767 98.8678 70.9994 98.973 70.7093 99.017C70.4193 99.0609 70.1232 99.0425 69.8408 98.963C69.5585 98.8836 69.2963 98.7448 69.0718 98.556C69.1007 99.2389 68.8689 99.9073 68.4233 100.426C67.9778 100.944 67.3519 101.274 66.6724 101.348C67.0903 101.987 66.1099 103.143 65.5011 103.608C65.0003 103.897 64.4186 104.015 63.8447 103.943C63.8447 103.943 62.9572 105.12 62.209 105.13C61.4608 105.14 60.2895 104.676 60.4339 103.845C60.091 103.439 59.8487 102.959 59.727 102.441Z" fill="#263238"/>
<path d="M80.9088 97.7253C80.9004 97.9253 80.8475 98.121 80.754 98.298C80.6986 98.3876 80.6232 98.4631 80.5336 98.5186C80.4441 98.5742 80.3429 98.6081 80.238 98.6179C80.1096 98.6331 79.9795 98.6134 79.8614 98.5607C79.7433 98.508 79.6416 98.4244 79.5672 98.3187L79.4434 98.1329L79.3453 98.3341C79.2599 98.4884 79.1352 98.6174 78.9839 98.708C78.8325 98.7986 78.66 98.8477 78.4836 98.8501C78.2845 98.841 78.0929 98.7715 77.9343 98.6507C77.7758 98.5299 77.6578 98.3637 77.5961 98.1742L77.5393 97.9678L77.3897 98.1174C77.2998 98.2057 77.1934 98.2753 77.0765 98.3222C76.9596 98.3692 76.8345 98.3925 76.7086 98.3909C76.5054 98.3898 76.308 98.3228 76.1461 98.2C75.8675 97.9884 75.8056 97.7665 75.7746 97.7769C75.7436 97.7872 75.7746 98.0349 76.0481 98.2929C76.2256 98.4603 76.455 98.5622 76.6982 98.5818C76.8558 98.5924 77.0139 98.5709 77.1629 98.5186C77.3119 98.4662 77.4488 98.3842 77.5651 98.2774L77.3536 98.2206C77.4166 98.4563 77.5507 98.6668 77.7377 98.8236C77.9247 98.9803 78.1555 99.0755 78.3986 99.0964C78.6416 99.1173 78.8852 99.0627 79.0962 98.9402C79.3072 98.8176 79.4752 98.633 79.5775 98.4115H79.3556C79.4585 98.552 79.5983 98.6612 79.7596 98.7268C79.9209 98.7924 80.0972 98.8119 80.269 98.7831C80.3997 98.7587 80.523 98.7047 80.6295 98.625C80.736 98.5454 80.8227 98.4423 80.883 98.3238C81.0791 97.9678 80.9243 97.7046 80.9088 97.7253Z" fill="#455A64"/>
<path d="M82.7355 100.728C82.7097 100.728 82.6581 100.873 82.4362 101.017C82.2906 101.118 82.1178 101.172 81.9408 101.172C81.7639 101.172 81.5911 101.118 81.4455 101.017L81.3319 100.924L81.2803 101.064C81.2161 101.219 81.1131 101.355 80.9812 101.459C80.8493 101.563 80.6929 101.631 80.527 101.657C80.335 101.678 80.1413 101.64 79.9717 101.547C79.8021 101.455 79.6646 101.314 79.5775 101.141L79.4743 100.924L79.3402 101.121C79.3058 101.171 79.264 101.216 79.2163 101.255C79.1091 101.343 78.977 101.396 78.8384 101.406C78.6997 101.417 78.5613 101.383 78.4423 101.311C78.3371 101.239 78.2535 101.139 78.2008 101.023C78.148 100.906 78.1281 100.778 78.1431 100.651L78.1792 100.393L77.9573 100.527C77.7027 100.678 77.3992 100.725 77.1111 100.656C76.8814 100.605 76.6748 100.48 76.5228 100.3C76.3943 100.13 76.2868 99.9443 76.2029 99.748C76.1907 99.8639 76.2028 99.9811 76.2383 100.092C76.2739 100.203 76.3321 100.306 76.4093 100.393C76.5663 100.614 76.7936 100.776 77.0543 100.852C77.2251 100.904 77.4046 100.92 77.5819 100.901C77.7592 100.881 77.9308 100.826 78.0863 100.739L77.916 100.62C77.89 100.794 77.9134 100.972 77.9836 101.134C78.0539 101.295 78.1681 101.434 78.3133 101.533C78.4774 101.641 78.6713 101.693 78.867 101.683C79.0627 101.673 79.2501 101.6 79.4021 101.477C79.4702 101.419 79.5309 101.353 79.5827 101.28H79.3453C79.4425 101.491 79.6003 101.667 79.7986 101.787C79.9968 101.907 80.2264 101.965 80.4578 101.953C80.6892 101.942 80.9118 101.861 81.0971 101.722C81.2823 101.583 81.4216 101.391 81.4971 101.172L81.3319 101.219C81.432 101.291 81.5458 101.343 81.6664 101.371C81.787 101.398 81.912 101.401 82.0337 101.379C82.2239 101.357 82.4035 101.28 82.5497 101.157C82.7355 100.914 82.7509 100.728 82.7355 100.728Z" fill="#455A64"/>
<path d="M64.0614 95.2278C64.1344 95.0875 64.2323 94.9616 64.3504 94.8563C64.4307 94.7894 64.5241 94.7398 64.6245 94.7107C64.725 94.6816 64.8304 94.6736 64.9341 94.6871C65.0378 94.7007 65.1375 94.7356 65.2271 94.7895C65.3167 94.8435 65.3941 94.9154 65.4546 95.0008L65.5784 95.171L65.6094 94.9595C65.646 94.7383 65.7381 94.5299 65.877 94.354C66.016 94.178 66.1973 94.0401 66.404 93.9533C66.6564 93.8557 66.9331 93.8406 67.1945 93.9101C67.456 93.9797 67.6887 94.1303 67.8592 94.3403L68.014 94.5312L68.0759 94.2938C68.1445 94.0638 68.2635 93.8518 68.4241 93.6733C68.5848 93.4948 68.7831 93.3543 69.0047 93.2618C69.2442 93.1668 69.5037 93.133 69.7597 93.1637C70.0156 93.1943 70.2598 93.2884 70.4701 93.4373C70.6446 93.559 70.7922 93.7153 70.9036 93.8965L70.981 94.0204L71.0996 93.9326C71.3818 93.7315 71.7232 93.6308 72.0694 93.6467C72.4155 93.6626 72.7463 93.7942 73.0088 94.0204C73.2286 94.2304 73.3837 94.4989 73.456 94.7942C73.5282 95.0895 73.5145 95.3993 73.4165 95.687L73.3442 95.878L73.5403 95.8315C73.9769 95.739 74.4323 95.8205 74.8097 96.0586C75.0996 96.2436 75.325 96.514 75.4547 96.8326C75.5591 97.1151 75.6132 97.4137 75.6146 97.7149C75.6146 97.7149 75.6559 97.6375 75.6662 97.4776C75.6867 97.2431 75.655 97.0069 75.5734 96.7861C75.4517 96.4311 75.2181 96.1251 74.9077 95.9141C74.7034 95.7736 74.4733 95.6748 74.2306 95.6234C73.988 95.5721 73.7376 95.5691 73.4939 95.6148L73.6229 95.7644C73.769 95.4084 73.794 95.0142 73.694 94.6425C73.5941 94.2708 73.3746 93.9423 73.0696 93.7077C72.7645 93.473 72.3907 93.3452 72.0058 93.3439C71.621 93.3426 71.2463 93.4679 70.9397 93.7004L71.1358 93.7366C71.0019 93.5302 70.8261 93.3544 70.6198 93.2206C70.3727 93.0446 70.0852 92.9339 69.7839 92.8987C69.4826 92.8635 69.1773 92.905 68.8963 93.0193C68.6381 93.1288 68.4079 93.2952 68.223 93.506C68.038 93.7169 67.9031 93.9668 67.8282 94.2371L68.0501 94.1906C67.8675 93.9637 67.6219 93.7959 67.3442 93.7083C67.0665 93.6208 66.769 93.6173 66.4893 93.6984C66.2096 93.7795 65.9602 93.9415 65.7724 94.1641C65.5846 94.3866 65.4668 94.6598 65.434 94.9492L65.5888 94.9079C65.5004 94.796 65.3873 94.7061 65.2584 94.6453C65.1295 94.5844 64.9882 94.5542 64.8457 94.557C64.6356 94.5648 64.4355 94.6493 64.2833 94.7944C64.19 94.881 64.1191 94.989 64.0769 95.1091C64.0562 95.1814 64.0562 95.2278 64.0614 95.2278Z" fill="#455A64"/>
<path d="M73.9274 112.885C73.8035 112.927 74.1389 113.747 73.6797 114.614C73.2204 115.481 72.3123 115.749 72.3484 115.868C72.3845 115.986 72.6116 115.945 72.9831 115.806C73.4642 115.615 73.8625 115.261 74.108 114.805C74.345 114.367 74.4024 113.855 74.2679 113.376C74.1596 113.004 73.9841 112.854 73.9274 112.885Z" fill="#263238"/>
<path d="M68.9015 127.746L64.8148 139.258L65.7591 151.848L68.3391 173.598C68.3391 173.598 77.9212 170.363 78.3547 170.688C78.7881 171.013 74.1131 148.639 74.1131 148.639L77.4929 130.434L77.2762 125.073L68.9015 127.746Z" fill="#4A74EA"/>
<path d="M68.9015 127.746L64.4071 138.066L55.1191 141.709L45.408 144.717L46.7703 151.704C46.8376 152.043 46.9738 152.365 47.1705 152.65C47.3672 152.934 47.6201 153.175 47.9137 153.358C48.2073 153.541 48.5352 153.661 48.8773 153.712C49.2194 153.763 49.5682 153.744 49.9024 153.654L58.1223 151.446L65.7797 151.095L69.7632 141.838L68.9015 127.746Z" fill="#4A74EA"/>
<path d="M48.5814 141.843L49.2625 140.997C49.9328 140.991 50.5958 141.136 51.2027 141.42C52.0921 142.151 52.7441 143.13 53.0758 144.232C53.1504 145.025 53.1504 145.823 53.0758 146.616L48.4318 141.843" fill="#A2675F"/>
<path d="M39.5256 136.828C39.5256 136.967 48.2976 146.26 48.2976 146.26L49.9488 147.891H55.212L44.9952 136.539L40.5886 135.785L39.5256 136.828Z" fill="#263238"/>
<path d="M75.1038 157.473C75.0257 157.372 74.9582 157.263 74.9026 157.148L74.3866 156.188C73.9428 155.352 73.3133 154.124 72.5806 152.576C71.709 150.787 70.9339 148.953 70.2586 147.081C70.0657 146.535 69.9055 145.979 69.7787 145.414C69.7131 145.118 69.6666 144.818 69.6394 144.516C69.6394 144.217 69.6394 143.912 69.6394 143.608C69.6394 142.385 69.6394 141.121 69.7013 139.826C69.7632 138.185 69.8458 136.601 69.9438 135.094V135.017L70.0161 134.986L72.7354 133.788L72.7664 134.026L70.7024 133.752H70.5269L70.6146 133.603C71.9562 131.301 73.0708 129.377 73.8706 127.999L74.7942 126.451L75.0471 126.048C75.0727 125.999 75.1058 125.954 75.1451 125.914C75.1293 125.967 75.1068 126.017 75.078 126.064L74.8562 126.487L73.9841 128.076L70.8159 133.727L70.7282 133.556L72.7922 133.814L73.2308 133.866L72.8283 134.046L70.1193 135.254L70.1967 135.14C70.1038 136.647 70.0212 138.236 69.9593 139.867C69.9129 141.157 69.8819 142.416 69.8922 143.634C69.8922 143.938 69.8922 144.237 69.8922 144.537C69.9146 144.825 69.9577 145.111 70.0212 145.393C70.1432 145.949 70.2965 146.496 70.4805 147.034C71.208 149.145 72.0285 150.987 72.7457 152.53C73.463 154.072 74.0512 155.301 74.4692 156.142L74.9439 157.122C75.0057 157.235 75.0592 157.352 75.1038 157.473Z" fill="#263238"/>
<path d="M44.7011 141.843C44.7011 141.843 43.3698 142.803 43.4059 143.35C43.4063 143.591 43.4652 143.828 43.5776 144.041C43.6899 144.254 43.8524 144.437 44.0509 144.573C44.3605 144.676 45.279 145.151 45.279 145.151C45.279 145.151 44.4586 145.935 44.7011 146.756C44.7459 146.975 44.8391 147.181 44.9739 147.36C45.1087 147.538 45.2817 147.684 45.4803 147.788C45.4991 148.358 45.6143 148.922 45.8208 149.454C46.1343 149.88 46.5969 150.171 47.116 150.27C47.4054 150.857 47.751 151.415 48.148 151.936C48.5466 152.306 49.0424 152.555 49.5773 152.653C49.5773 152.653 50.8054 152.793 51.4504 152.349C51.8884 152.129 52.2534 151.786 52.5015 151.364C52.7496 150.941 52.8702 150.455 52.8487 149.965C52.8487 149.965 55.7796 148.5 55.8106 147.751C55.8415 147.003 55.5061 146.766 55.5061 146.766L54.0407 147.034C54.0407 147.034 53.8343 146.255 53.3957 146.183C52.9571 146.111 47.6062 147.411 47.6062 147.411C47.6062 147.411 51.2491 146.833 51.3523 146.116C51.4555 145.398 51.4865 144.79 50.9395 144.65C50.3926 144.511 46.5174 144.934 46.5174 144.934L46.311 144.243C46.311 144.243 47.343 144.279 47.343 143.36C47.343 142.442 46.7651 142.235 46.7651 142.235L44.7011 141.843Z" fill="#A2675F"/>
<path d="M75.1038 125.904L75.5476 129.459L72.7973 144.924L75.5889 158.273L90.0575 162.55L95.749 160.094L93.8037 122.622L88.6333 118.99L86.6467 117.653L79.1957 128.933L75.1038 125.904Z" fill="#FAFAFA"/>
<path d="M88.236 118.706L91.848 120.316L104.655 122.039L111.564 158.376L112.431 162.55L125.677 182.37C125.821 182.585 125.919 182.827 125.964 183.082C126.01 183.337 126.003 183.598 125.944 183.85C125.884 184.101 125.773 184.338 125.618 184.545C125.463 184.752 125.267 184.925 125.042 185.053L114.206 191.245C113.804 191.451 113.339 191.502 112.901 191.388C112.464 191.274 112.083 191.003 111.833 190.626L98.04 169.857L91.2082 161.111C91.2082 161.111 87.1163 148.727 86.5642 143.458C86.1344 138.84 86.1344 134.191 86.5642 129.573C86.8841 126.42 88.236 118.706 88.236 118.706Z" fill="#4A74EA"/>
<path d="M104.635 122.039C105.468 122.477 106.192 123.097 106.753 123.854C107.313 124.611 107.695 125.485 107.87 126.41C108.685 130.723 111.141 138.247 112.065 146.281C113.355 157.519 110.331 160.987 108.907 162.927C107.483 164.867 98.6489 168.985 98.6489 168.985L92.008 160.141L99.361 154.114L98.716 138.505C98.716 138.505 96.136 134.955 97.426 129.681C98.716 124.408 102.483 121.719 104.65 122.039H104.635Z" fill="#4A74EA"/>
<g opacity="0.3">
<path d="M111.487 158.082C110.481 160.806 109.33 163.108 106.987 164.403C104.49 165.786 101.017 167.736 98.6489 168.985L100.383 171.678C103.102 171.26 108.123 168.092 109.753 165.879C111.331 163.608 111.954 160.807 111.487 158.082Z" fill="black"/>
</g>
<path d="M98.556 139.32C98.578 139.396 98.5935 139.474 98.6024 139.552C98.6334 139.722 98.6695 139.95 98.7211 140.238C98.814 140.863 98.9533 141.75 99.1288 142.891C99.4796 145.213 99.9802 148.567 100.594 152.695V152.746L100.553 152.782L92.0957 160.233V160.074L98.7418 168.913L98.5766 168.876C100.785 167.762 103.071 166.554 105.331 165.218C105.976 164.831 106.611 164.444 107.225 164.026C107.835 163.633 108.407 163.184 108.933 162.684C109.829 161.573 110.538 160.324 111.033 158.985C111.944 156.427 112.366 153.721 112.276 151.007C112.215 148.546 111.979 146.092 111.57 143.665C111.213 141.379 110.801 139.263 110.393 137.339C109.583 133.484 108.799 130.393 108.252 128.262C107.973 127.23 107.736 126.384 107.607 125.811C107.534 125.538 107.478 125.326 107.442 125.171C107.416 125.1 107.398 125.025 107.39 124.949C107.39 124.949 107.421 125.022 107.467 125.161C107.514 125.3 107.576 125.527 107.658 125.796C107.823 126.348 108.061 127.173 108.355 128.236C108.933 130.362 109.743 133.448 110.579 137.297C111.002 139.222 111.425 141.343 111.791 143.634C112.211 146.069 112.454 148.532 112.519 151.002C112.619 153.75 112.198 156.491 111.281 159.083C110.773 160.452 110.047 161.73 109.129 162.865C108.591 163.383 108.003 163.846 107.374 164.248C106.755 164.666 106.115 165.058 105.47 165.445C103.195 166.792 100.914 167.999 98.6953 169.109L98.5973 169.16L98.5302 169.073L91.8996 160.218L91.8325 160.125L91.9151 160.053L100.403 152.633L100.372 152.721C99.7892 148.593 99.3403 145.249 98.9946 142.917C98.8398 141.776 98.716 140.853 98.6334 140.259C98.5973 139.965 98.5663 139.743 98.5457 139.568C98.544 139.485 98.5475 139.402 98.556 139.32Z" fill="#263238"/>
<path d="M89.1803 152.669C89.1768 152.548 89.1872 152.427 89.2112 152.308C89.2422 152.05 89.2886 151.709 89.3402 151.276C89.4744 150.357 89.655 149.083 89.882 147.524C90.331 144.356 91.0379 139.991 91.7242 135.14C92.0441 132.798 92.3485 130.569 92.622 128.536L92.7046 128.665L90.5167 127.829L90.3 127.746L90.4909 127.622L92.6891 126.198L92.6478 126.296C92.3846 124.475 92.1731 122.983 92.0183 121.91C91.9564 121.394 91.8996 121.017 91.8635 120.713C91.8363 120.574 91.8242 120.432 91.8274 120.29C91.8701 120.425 91.9011 120.563 91.9202 120.703C91.9718 121.007 92.0441 121.399 92.1318 121.895C92.3072 122.963 92.5498 124.449 92.8439 126.265V126.332L92.7923 126.368L90.6096 127.813L90.5838 127.612L92.782 128.432L92.8748 128.469V128.567C92.6065 130.6 92.3072 132.834 91.9925 135.177C91.3114 140.011 90.5735 144.377 90.073 147.561C89.815 149.109 89.6034 150.388 89.4486 151.302L89.268 152.334C89.2494 152.448 89.22 152.56 89.1803 152.669Z" fill="#263238"/>
<path d="M102.684 122.529C102.715 122.571 102.06 123.045 101.177 123.938C100.665 124.476 100.199 125.056 99.7841 125.672C98.7572 127.183 98.0544 128.891 97.7201 130.687C97.5854 131.418 97.5129 132.158 97.5034 132.901C97.5034 134.175 97.6427 134.965 97.5911 134.965C97.5216 134.79 97.4765 134.606 97.457 134.418C97.4129 134.205 97.3819 133.99 97.3641 133.773C97.332 133.483 97.3148 133.192 97.3125 132.901C97.2928 132.144 97.3464 131.387 97.4724 130.641C97.6388 129.729 97.8946 128.835 98.2361 127.973C98.5958 127.117 99.04 126.3 99.5622 125.532C99.9945 124.911 100.485 124.332 101.028 123.804C101.233 123.6 101.448 123.408 101.673 123.226C101.837 123.082 102.009 122.948 102.189 122.823C102.34 122.704 102.507 122.605 102.684 122.529Z" fill="#263238"/>
<path d="M65.7023 151.105C65.63 151.105 65.3927 148.608 65.1863 145.512C64.9799 142.416 64.8509 139.908 64.9283 139.898C65.0057 139.888 65.2379 142.401 65.4443 145.491C65.6507 148.582 65.7745 151.1 65.7023 151.105Z" fill="#263238"/>
<path d="M109.325 173.887L111.312 177.943L120.512 172.055L117.328 168.448L109.325 173.887Z" fill="#4A74EA"/>
<path d="M109.325 173.892C109.499 173.74 109.684 173.6 109.877 173.474L111.497 172.334L117.256 168.35L117.349 168.288L117.421 168.371L120.615 171.983L120.718 172.101L120.584 172.184L120.182 172.442L111.363 178.02L111.27 178.077L111.229 177.979L109.805 174.965C109.655 174.635 109.531 174.367 109.438 174.155C109.393 174.068 109.355 173.976 109.325 173.882C109.39 173.97 109.445 174.065 109.49 174.165C109.598 174.377 109.738 174.645 109.913 174.97L111.399 177.896L111.26 177.86L120.032 172.184L120.434 171.926V172.127C119.31 170.853 118.236 169.635 117.256 168.515H117.421L111.657 172.359L109.975 173.459L109.516 173.753L109.325 173.892Z" fill="#263238"/>
<g opacity="0.3">
<path d="M109.392 174.067C109.433 174.145 111.456 180.296 111.456 180.296L120.037 174.207L119.299 172.86L111.312 177.968L109.392 174.067Z" fill="black"/>
</g>
<g opacity="0.3">
<path d="M92.0854 122.013L93.6334 127.044L92.0854 127.746L94.1236 128.747C94.1236 128.747 90.9141 146.291 90.5116 147.891C90.1091 149.49 89.6138 150.006 89.6138 150.006L92.7459 128.577L90.5581 127.746L92.7459 126.306L92.0854 122.013Z" fill="black"/>
</g>
<path d="M58.1377 149.428C58.0971 148.222 57.9012 147.025 57.5547 145.868C57.1231 144.743 56.551 143.676 55.8519 142.695C56.1457 142.906 56.3977 143.17 56.5949 143.474C57.6453 144.887 58.2247 146.595 58.2513 148.355C58.2782 148.717 58.2398 149.08 58.1377 149.428Z" fill="#263238"/>
<g opacity="0.3">
<path d="M64.8509 139.403C63.3029 143.221 63.8757 147.406 65.6662 151.105C65.3876 146.848 65.2224 143.531 64.8509 139.403Z" fill="black"/>
</g>
<path d="M87.1163 121.884C87.0466 122.066 86.9566 122.239 86.848 122.4L86.0482 123.737C85.3774 124.872 84.5002 126.451 83.6075 128.252C83.0089 129.464 82.4981 130.625 82.0595 131.606L82.0027 131.75L81.8841 131.657C81.202 131.113 80.5605 130.52 79.9645 129.882C79.7256 129.653 79.5143 129.397 79.335 129.119C79.593 129.325 79.8362 129.549 80.0626 129.789C80.687 130.383 81.3414 130.945 82.0234 131.472L81.8479 131.518C82.2453 130.522 82.7458 129.356 83.3443 128.133C84.1005 126.59 84.9411 125.089 85.8624 123.639C86.2185 123.081 86.5229 122.643 86.7396 122.344C86.8459 122.176 86.9724 122.021 87.1163 121.884Z" fill="#263238"/>
<path d="M78.6436 129C78.4406 129.901 78.1521 130.78 77.7819 131.626L77.7148 131.807L77.5703 131.683L77.5033 131.621C76.7527 131.024 76.1074 130.306 75.5941 129.495C75.6508 129.444 76.5022 130.393 77.6581 131.42L77.7251 131.477L77.5136 131.534C77.8083 130.655 78.1867 129.806 78.6436 129Z" fill="#263238"/>
<path d="M80.1607 155.404C80.1319 155.324 80.1179 155.24 80.1194 155.156C80.1194 154.955 80.0781 154.717 80.0523 154.428C80.011 153.753 79.9491 152.85 79.8768 151.75C79.7375 149.49 79.5776 146.369 79.4382 142.917C79.2989 139.464 79.2267 136.338 79.2267 134.072C79.2267 132.937 79.2267 132.008 79.2628 131.389C79.2628 131.1 79.2628 130.873 79.2989 130.662C79.2988 130.576 79.3092 130.491 79.3299 130.409C79.344 130.492 79.344 130.578 79.3299 130.662C79.3299 130.858 79.3299 131.1 79.3299 131.389C79.3299 132.065 79.3608 132.968 79.3815 134.067C79.4279 136.332 79.5363 139.454 79.6704 142.906C79.8046 146.358 79.9336 149.444 80.0265 151.74C80.0678 152.844 80.0987 153.747 80.1245 154.423C80.1245 154.712 80.1245 154.939 80.1245 155.151C80.1444 155.234 80.1565 155.319 80.1607 155.404Z" fill="#263238"/>
<path d="M49.9488 225.09L51.2853 237.685C51.2853 237.685 38.9013 243.279 38.9477 245.626L63.468 243.918L62.1935 224.197L49.9488 225.09Z" fill="#4A74EA"/>
<path d="M58.7931 236.096C59.0311 236.156 59.2399 236.3 59.3818 236.5C59.5236 236.701 59.5893 236.945 59.5671 237.19C59.5205 237.432 59.3827 237.648 59.1821 237.792C58.9815 237.936 58.7333 237.997 58.4886 237.964C58.231 237.91 58.0037 237.76 57.8531 237.544C57.7025 237.328 57.6401 237.063 57.6785 236.803C57.7518 236.555 57.9189 236.345 58.1442 236.218C58.3696 236.09 58.6356 236.056 58.8859 236.122" fill="#E0E0E0"/>
<path d="M63.5248 244.429L63.401 242.52L39.8301 244.316C39.8301 244.316 38.7671 244.868 38.9477 245.626L63.5248 244.429Z" fill="#E0E0E0"/>
<path d="M50.8776 237.592C50.8776 237.711 51.4917 237.721 52.1109 238.067C52.7301 238.413 53.0758 238.893 53.179 238.836C53.2822 238.779 53.0603 238.103 52.307 237.701C51.5536 237.298 50.8467 237.484 50.8776 237.592Z" fill="#263238"/>
<path d="M48.3802 238.836C48.3802 238.949 48.8962 239.12 49.3348 239.599C49.7734 240.079 49.9334 240.6 50.0521 240.59C50.1707 240.58 50.2017 239.894 49.6393 239.31C49.0768 238.727 48.3751 238.717 48.3802 238.836Z" fill="#263238"/>
<path d="M47.1366 242.004C47.245 242.004 47.3688 241.411 47.0179 240.776C46.6671 240.141 46.084 239.919 46.0427 240.023C46.0014 240.126 46.3678 240.456 46.6516 240.977C46.9354 241.498 47.0128 242.004 47.1366 242.004Z" fill="#263238"/>
<path d="M50.8931 234.687C50.9499 234.79 51.4865 234.589 52.1676 234.584C52.8487 234.579 53.3905 234.759 53.4473 234.656C53.5041 234.553 52.9623 234.14 52.1625 234.166C51.3627 234.192 50.826 234.594 50.8931 234.687Z" fill="#263238"/>
<path d="M45.5835 174.248L34.2315 179.862C34.2315 179.862 24.7061 170.203 22.5079 171.039L32.6009 193.448L50.6609 185.425L45.5835 174.248Z" fill="#4A74EA"/>
<path d="M38.3182 186.353C38.3506 186.599 38.2909 186.847 38.1509 187.051C38.0108 187.255 37.8002 187.4 37.5597 187.458C37.3161 187.499 37.0658 187.445 36.8611 187.307C36.6563 187.168 36.5129 186.956 36.4606 186.715C36.4222 186.454 36.4846 186.189 36.6352 185.973C36.7858 185.757 37.0131 185.607 37.2707 185.554C37.5245 185.544 37.7724 185.632 37.964 185.799C38.1556 185.965 38.2767 186.199 38.3027 186.451" fill="#E0E0E0"/>
<path d="M32.1365 193.681L33.8857 192.901L24.0353 171.41C24.0353 171.41 23.1529 170.61 22.4873 171.039L32.1365 193.681Z" fill="#E0E0E0"/>
<path d="M34.1747 179.449C34.0664 179.501 34.2624 180.069 34.1747 180.765C34.087 181.462 33.7361 181.957 33.8238 182.04C33.9116 182.122 34.474 181.673 34.5875 180.827C34.701 179.981 34.2676 179.377 34.1747 179.449Z" fill="#263238"/>
<path d="M32.1416 177.535C32.0281 177.535 32.0539 178.118 31.7598 178.696C31.4657 179.274 31.0219 179.604 31.0735 179.728C31.1251 179.852 31.7804 179.625 32.1313 178.897C32.4822 178.17 32.25 177.504 32.1416 177.535Z" fill="#263238"/>
<path d="M28.7309 177.468C28.7309 177.576 29.3656 177.468 29.8403 176.952C30.315 176.436 30.3202 175.781 30.2066 175.775C30.0931 175.77 29.9177 176.235 29.5204 176.678C29.123 177.122 28.6896 177.354 28.7309 177.468Z" fill="#263238"/>
<path d="M36.9044 178.453C36.827 178.546 37.2036 178.969 37.4204 179.62C37.6371 180.27 37.6784 180.827 37.797 180.837C37.9157 180.848 38.1015 180.213 37.797 179.47C37.4926 178.727 36.9663 178.361 36.9044 178.453Z" fill="#263238"/>
<path d="M51.1253 181.389C49.8977 181.696 48.7838 182.348 47.9166 183.269C47.0493 184.191 46.4651 185.342 46.2336 186.586C45.4029 190.956 48.4112 234.914 48.4112 234.914L63.8396 233.676L62.8953 204.057L62.5134 198.082L63.8396 197.05L90.9554 192.277L86.8274 181.07L82.2917 173.175L61.5227 178.335L51.1253 181.389Z" fill="#263238"/>
<path d="M102.168 173.985C102.168 173.985 90.9502 157.767 87.6684 155.409C84.9646 153.464 80.8985 153.469 78.3804 154.599C75.8623 155.729 36.5844 175.213 36.5844 175.213L42.3481 189.661L79.7375 176.704L85.3103 185.476L90.5013 192.349L105.073 192.463C105.759 192.463 108.892 186.271 108.892 186.271L102.168 173.985Z" fill="#263238"/>
<path d="M46.0891 189.976C46.0814 189.926 46.0814 189.876 46.0891 189.826C46.0891 189.707 46.0891 189.563 46.0891 189.382C46.0891 189.202 46.0891 188.939 46.0891 188.655C46.0891 188.371 46.1562 188.041 46.1975 187.669C46.2388 187.298 46.3574 186.9 46.44 186.451C46.4864 186.23 46.5793 186.008 46.6516 185.775C46.7265 185.53 46.8196 185.29 46.9302 185.058C47.4079 183.94 48.1691 182.965 49.1387 182.231C49.7035 181.801 50.3468 181.485 51.0324 181.302L53.2667 180.92L58.1842 180.099L69.4588 178.232L79.6962 176.555H79.7788L79.8252 176.627C82.8232 181.307 85.2587 185.399 87.3072 188.041C88.2979 189.377 89.0926 190.44 89.6498 191.183C89.913 191.539 90.1194 191.818 90.2742 192.019L90.429 192.236L90.4806 192.313C90.4806 192.313 90.4806 192.313 90.4135 192.251L90.2381 192.045L89.5828 191.235C89.0152 190.523 88.1896 189.475 87.1834 188.139C85.0936 185.497 82.6219 181.431 79.6136 176.787L79.7375 176.844L69.5 178.536L58.2254 180.383L53.3028 181.183L51.0788 181.544C50.4181 181.718 49.7964 182.015 49.247 182.421C48.2981 183.133 47.5482 184.076 47.0695 185.161C46.9551 185.387 46.8602 185.622 46.7857 185.863C46.6994 186.081 46.6254 186.303 46.5638 186.529C46.4557 186.923 46.3696 187.322 46.3058 187.726L46.1665 188.701C46.1665 188.98 46.1356 189.217 46.1252 189.424C46.1149 189.63 46.1252 189.754 46.0943 189.867C46.0954 189.904 46.0936 189.94 46.0891 189.976Z" fill="#455A64"/>
<path d="M85.0884 166.668C85.1273 166.82 85.1464 166.976 85.1452 167.132C85.1796 167.557 85.1796 167.983 85.1452 168.407C85.0869 169.039 84.9712 169.664 84.7995 170.275C84.5817 171.021 84.2949 171.744 83.9429 172.437C83.5728 173.12 83.141 173.768 82.6529 174.372C82.2454 174.859 81.7965 175.309 81.3113 175.719C80.9884 175.994 80.6432 176.243 80.2793 176.462C80.1511 176.554 80.0104 176.627 79.8614 176.678C79.8356 176.637 80.3774 176.286 81.1875 175.574C81.6454 175.156 82.0698 174.702 82.4568 174.217C82.9271 173.62 83.3449 172.982 83.7056 172.313C84.0504 171.635 84.3369 170.929 84.5621 170.203C84.7421 169.609 84.8732 169.001 84.9543 168.386C85.073 167.339 85.0368 166.668 85.0884 166.668Z" fill="#455A64"/>
<path d="M215.12 218.103L147.602 218.067C143.702 218.064 139.963 216.513 137.206 213.754C134.449 210.996 132.901 207.255 132.901 203.356L132.937 34.056C132.937 32.1239 133.318 30.2108 134.057 28.4259C134.797 26.641 135.881 25.0193 137.248 23.6536C138.615 22.2879 140.237 21.2049 142.022 20.4665C143.808 19.728 145.721 19.3486 147.653 19.35L215.172 19.4119C219.072 19.4146 222.811 20.9658 225.568 23.7244C228.324 26.4829 229.873 30.2232 229.873 34.1231L229.842 203.402C229.841 205.334 229.459 207.247 228.718 209.031C227.978 210.815 226.893 212.436 225.526 213.801C224.159 215.166 222.536 216.249 220.751 216.987C218.966 217.725 217.052 218.104 215.12 218.103Z" fill="#263238"/>
<path d="M215.1 25.3975H202.009C201.147 25.4178 200.328 25.779 199.733 26.402C199.137 27.0249 198.812 27.8587 198.83 28.7205V31.0941C198.84 31.5211 198.765 31.9457 198.611 32.3438C198.456 32.7419 198.225 33.1056 197.929 33.4142C197.634 33.7228 197.281 33.9702 196.89 34.1423C196.5 34.3144 196.079 34.4078 195.652 34.4172H170.135C169.709 34.4078 169.288 34.3144 168.897 34.1423C168.506 33.9702 168.153 33.7228 167.858 33.4142C167.563 33.1056 167.331 32.7419 167.177 32.3438C167.022 31.9457 166.947 31.5211 166.957 31.0941V28.6896C166.975 27.8277 166.65 26.9939 166.055 26.371C165.459 25.7481 164.64 25.3869 163.778 25.3665H159.17H147.715C144.978 25.3665 142.353 26.4538 140.418 28.3892C138.483 30.3246 137.395 32.9495 137.395 35.6865L137.364 200.915C137.364 203.647 138.448 206.268 140.378 208.203C142.308 210.138 144.926 211.228 147.659 211.235L215.048 211.271C217.785 211.271 220.41 210.184 222.345 208.248C224.281 206.313 225.368 203.688 225.368 200.951L225.404 35.7227C225.406 32.9874 224.321 30.3635 222.389 28.4275C220.457 26.4914 217.835 25.4016 215.1 25.3975Z" fill="white"/>
<path d="M225.399 35.702C225.399 32.965 224.312 30.3401 222.376 28.4047C220.441 26.4693 217.816 25.382 215.079 25.382H201.988C201.126 25.4023 200.308 25.7636 199.712 26.3865C199.116 27.0094 198.792 27.8432 198.81 28.7051V31.0787C198.819 31.5056 198.745 31.9302 198.59 32.3283C198.435 32.7264 198.204 33.0901 197.909 33.3987C197.614 33.7073 197.261 33.9547 196.87 34.1268C196.479 34.2989 196.058 34.3923 195.631 34.4017H170.115C169.688 34.3923 169.267 34.2989 168.876 34.1268C168.485 33.9547 168.132 33.7073 167.837 33.3987C167.542 33.0901 167.31 32.7264 167.156 32.3283C167.001 31.9302 166.927 31.5056 166.936 31.0787V28.6896C166.954 27.8277 166.63 26.9939 166.034 26.371C165.438 25.7481 164.619 25.3869 163.758 25.3665H159.15H147.695C144.958 25.3665 142.333 26.4538 140.397 28.3892C138.462 30.3246 137.375 32.9495 137.375 35.6865L137.344 51.4865H225.394L225.399 35.702Z" fill="#F5F5F5"/>
<path d="M218.237 41.507C218.237 41.5535 216.658 41.6102 214.713 41.6257C213.538 41.6661 212.361 41.6455 211.188 41.5638C213.535 41.4245 215.888 41.4055 218.237 41.507Z" fill="#263238"/>
<path d="M218.268 43.3079C217.098 43.4089 215.923 43.4485 214.749 43.4266C213.574 43.467 212.398 43.4463 211.225 43.3646C211.225 43.3182 212.798 43.2666 214.749 43.246C216.699 43.2253 218.268 43.2614 218.268 43.3079Z" fill="#263238"/>
<path d="M218.268 45.1139C218.268 45.1603 216.694 45.2119 214.749 45.2274C213.574 45.2678 212.398 45.2489 211.225 45.1706C213.57 45.0313 215.921 45.0124 218.268 45.1139Z" fill="#263238"/>
<path d="M156.921 166.276L157.277 165.528C157.904 166.036 158.688 166.31 159.496 166.302C160.651 166.302 161.152 165.853 161.152 165.27C161.152 163.634 157.086 164.666 157.086 162.174C157.086 161.142 157.891 160.254 159.666 160.254C160.428 160.24 161.177 160.448 161.823 160.853L161.508 161.611C160.957 161.26 160.319 161.07 159.666 161.064C158.525 161.064 158.035 161.544 158.035 162.132C158.035 163.773 162.101 162.746 162.101 165.228C162.101 166.26 161.276 167.138 159.521 167.138C158.58 167.164 157.66 166.859 156.921 166.276Z" fill="#263238"/>
<path d="M162.886 164.501C162.88 164.151 162.947 163.804 163.081 163.481C163.216 163.159 163.416 162.867 163.668 162.625C163.92 162.383 164.22 162.196 164.548 162.074C164.876 161.953 165.225 161.901 165.574 161.921C165.984 161.897 166.393 161.985 166.757 162.176C167.12 162.367 167.425 162.653 167.638 163.004L166.941 163.453C166.792 163.224 166.587 163.037 166.345 162.909C166.103 162.782 165.832 162.719 165.559 162.726C165.101 162.75 164.67 162.949 164.355 163.282C164.04 163.615 163.864 164.055 163.864 164.514C163.864 164.972 164.04 165.413 164.355 165.745C164.67 166.078 165.101 166.277 165.559 166.302C165.832 166.31 166.104 166.248 166.346 166.12C166.588 165.993 166.794 165.805 166.941 165.574L167.638 166.018C167.424 166.369 167.12 166.655 166.756 166.847C166.393 167.039 165.984 167.128 165.574 167.107C165.223 167.126 164.872 167.072 164.542 166.949C164.213 166.826 163.912 166.636 163.66 166.392C163.407 166.147 163.208 165.853 163.075 165.527C162.942 165.202 162.877 164.852 162.886 164.501Z" fill="#263238"/>
<path d="M172.86 163.974V167.04H171.988V166.369C171.794 166.621 171.54 166.82 171.248 166.947C170.957 167.074 170.638 167.126 170.321 167.096C169.171 167.096 168.438 166.482 168.438 165.6C168.438 164.718 168.954 164.114 170.502 164.114H171.962V163.933C171.962 163.159 171.508 162.705 170.6 162.705C170.017 162.7 169.449 162.893 168.99 163.252L168.603 162.561C169.212 162.118 169.95 161.889 170.703 161.91C172.076 161.91 172.86 162.581 172.86 163.974ZM171.942 165.486V164.779H170.523C169.609 164.779 169.351 165.13 169.351 165.564C169.351 165.997 169.774 166.389 170.471 166.389C170.78 166.412 171.088 166.337 171.352 166.175C171.616 166.013 171.822 165.772 171.942 165.486Z" fill="#263238"/>
<path d="M179.393 164.114V167.04H178.469V164.222C178.469 163.226 177.953 162.736 177.101 162.736C176.879 162.719 176.655 162.752 176.447 162.832C176.238 162.912 176.05 163.037 175.895 163.198C175.741 163.36 175.624 163.553 175.553 163.765C175.483 163.977 175.46 164.202 175.486 164.423V167.04H174.568V161.957H175.44V162.726C175.658 162.453 175.938 162.237 176.257 162.095C176.575 161.953 176.924 161.89 177.272 161.91C178.536 161.91 179.393 162.623 179.393 164.114Z" fill="#263238"/>
<path d="M185.92 164.114V167.04H185.001V164.222C185.001 163.226 184.485 162.736 183.629 162.736C183.406 162.719 183.183 162.752 182.975 162.832C182.766 162.912 182.578 163.037 182.424 163.198C182.27 163.36 182.154 163.553 182.084 163.765C182.014 163.977 181.992 164.202 182.019 164.423V167.04H181.116V161.957H181.998V162.726C182.216 162.453 182.496 162.236 182.815 162.094C183.133 161.952 183.482 161.889 183.83 161.91C185.048 161.91 185.92 162.623 185.92 164.114Z" fill="#263238"/>
<path d="M187.468 160.383C187.463 160.258 187.495 160.135 187.561 160.029C187.626 159.923 187.722 159.839 187.836 159.788C187.95 159.737 188.077 159.721 188.199 159.742C188.322 159.764 188.436 159.822 188.526 159.908C188.615 159.995 188.677 160.107 188.703 160.229C188.728 160.351 188.717 160.478 188.67 160.594C188.623 160.709 188.542 160.808 188.438 160.877C188.334 160.946 188.212 160.983 188.087 160.982C188.007 160.984 187.927 160.97 187.853 160.941C187.778 160.912 187.71 160.868 187.652 160.812C187.594 160.757 187.548 160.69 187.517 160.616C187.485 160.543 187.469 160.463 187.468 160.383ZM187.628 161.957H188.552V167.04H187.628V161.957Z" fill="#263238"/>
<path d="M195.131 164.114V167.04H194.207V164.222C194.207 163.226 193.691 162.736 192.834 162.736C192.612 162.719 192.388 162.752 192.18 162.832C191.972 162.912 191.784 163.037 191.63 163.198C191.476 163.36 191.359 163.553 191.289 163.765C191.219 163.977 191.197 164.202 191.224 164.423V167.04H190.306V161.957H191.188V162.726C191.406 162.453 191.686 162.237 192.005 162.095C192.324 161.953 192.672 161.89 193.02 161.91C194.253 161.91 195.131 162.623 195.131 164.114Z" fill="#263238"/>
<path d="M201.725 161.957V166.353C201.725 168.144 200.817 168.959 199.088 168.959C198.216 168.996 197.359 168.727 196.663 168.201L197.102 167.494C197.659 167.931 198.349 168.164 199.057 168.154C200.26 168.154 200.807 167.597 200.807 166.446V166.044C200.578 166.302 200.295 166.506 199.979 166.641C199.662 166.777 199.319 166.841 198.975 166.828C198.642 166.843 198.31 166.791 197.999 166.674C197.687 166.557 197.403 166.379 197.162 166.149C196.921 165.919 196.73 165.643 196.599 165.337C196.468 165.031 196.401 164.702 196.401 164.369C196.401 164.036 196.468 163.707 196.599 163.401C196.73 163.095 196.921 162.819 197.162 162.589C197.403 162.36 197.687 162.181 197.999 162.064C198.31 161.948 198.642 161.895 198.975 161.91C199.331 161.896 199.686 161.964 200.011 162.109C200.337 162.254 200.625 162.472 200.853 162.746V161.957H201.725ZM200.822 164.367C200.842 164.016 200.755 163.667 200.575 163.366C200.394 163.064 200.126 162.824 199.807 162.677C199.488 162.529 199.132 162.48 198.786 162.537C198.439 162.595 198.117 162.754 197.862 162.996C197.607 163.239 197.431 163.552 197.356 163.895C197.281 164.238 197.311 164.596 197.442 164.923C197.573 165.249 197.799 165.528 198.091 165.724C198.383 165.92 198.726 166.025 199.078 166.023C199.304 166.04 199.531 166.01 199.745 165.934C199.958 165.858 200.154 165.738 200.318 165.582C200.482 165.426 200.612 165.237 200.699 165.028C200.786 164.819 200.828 164.593 200.822 164.367Z" fill="#263238"/>
<path d="M203.046 166.436C203.045 166.35 203.061 166.264 203.093 166.184C203.126 166.104 203.174 166.032 203.235 165.971C203.296 165.91 203.369 165.863 203.449 165.831C203.529 165.799 203.615 165.784 203.701 165.786C203.875 165.786 204.042 165.855 204.165 165.978C204.288 166.1 204.357 166.267 204.357 166.441C204.357 166.615 204.288 166.781 204.165 166.904C204.042 167.027 203.875 167.096 203.701 167.096C203.615 167.097 203.529 167.08 203.448 167.047C203.368 167.014 203.296 166.966 203.235 166.904C203.173 166.843 203.125 166.769 203.093 166.689C203.061 166.609 203.045 166.522 203.046 166.436Z" fill="#263238"/>
<path d="M205.224 166.436C205.222 166.35 205.238 166.264 205.271 166.184C205.303 166.104 205.351 166.032 205.413 165.971C205.474 165.91 205.547 165.863 205.627 165.831C205.707 165.799 205.793 165.784 205.879 165.786C206.053 165.786 206.219 165.855 206.342 165.978C206.465 166.1 206.534 166.267 206.534 166.441C206.534 166.615 206.465 166.781 206.342 166.904C206.219 167.027 206.053 167.096 205.879 167.096C205.792 167.097 205.706 167.08 205.626 167.047C205.546 167.014 205.473 166.966 205.412 166.904C205.351 166.843 205.303 166.769 205.271 166.689C205.238 166.609 205.222 166.522 205.224 166.436Z" fill="#263238"/>
<path d="M207.401 166.436C207.4 166.35 207.416 166.264 207.448 166.184C207.481 166.104 207.529 166.032 207.59 165.971C207.651 165.91 207.724 165.863 207.804 165.831C207.884 165.799 207.97 165.784 208.056 165.786C208.23 165.786 208.397 165.855 208.52 165.978C208.643 166.1 208.712 166.267 208.712 166.441C208.712 166.615 208.643 166.781 208.52 166.904C208.397 167.027 208.23 167.096 208.056 167.096C207.97 167.097 207.884 167.08 207.804 167.047C207.723 167.014 207.651 166.966 207.59 166.904C207.529 166.843 207.48 166.769 207.448 166.689C207.416 166.609 207.4 166.522 207.401 166.436Z" fill="#263238"/>
<path d="M207.437 175.605H153.624C148.887 175.605 145.048 179.445 145.048 184.181V186.003C145.048 190.739 148.887 194.578 153.624 194.578H207.437C212.174 194.578 216.013 190.739 216.013 186.003V184.181C216.013 179.445 212.174 175.605 207.437 175.605Z" fill="#EBEBEB"/>
<path d="M158.747 183.376L157.555 186.565H157.003L156.08 184.145L155.151 186.565H154.594L153.412 183.376H153.959L154.883 185.915L155.847 183.376H156.348L157.292 185.93L158.247 183.376H158.747Z" fill="#263238"/>
<path d="M164.088 183.376L162.896 186.565H162.344L161.425 184.145L160.491 186.565H159.96L158.773 183.376H159.32L160.249 185.915L161.209 183.376H161.699L162.643 185.93L163.593 183.376H164.088Z" fill="#263238"/>
<path d="M169.47 183.376L168.283 186.565H167.726L166.807 184.145L165.873 186.565H165.321L164.134 183.376H164.681L165.61 185.915L166.57 183.376H167.06L168.004 185.93L168.954 183.376H169.47Z" fill="#263238"/>
<path d="M169.589 186.188C169.587 186.134 169.597 186.08 169.617 186.03C169.637 185.979 169.666 185.934 169.705 185.895C169.743 185.857 169.788 185.826 169.838 185.806C169.888 185.785 169.942 185.775 169.996 185.775C170.106 185.775 170.211 185.819 170.288 185.896C170.366 185.974 170.409 186.079 170.409 186.188C170.409 186.298 170.366 186.403 170.288 186.48C170.211 186.558 170.106 186.601 169.996 186.601C169.942 186.601 169.889 186.59 169.839 186.57C169.789 186.549 169.744 186.518 169.706 186.48C169.668 186.441 169.638 186.396 169.618 186.346C169.598 186.296 169.588 186.242 169.589 186.188Z" fill="#263238"/>
<path d="M170.822 186.23L171.064 185.77C171.398 185.986 171.787 186.101 172.184 186.101C172.7 186.101 172.937 185.941 172.937 185.667C172.937 184.955 170.925 185.574 170.925 184.305C170.925 183.732 171.441 183.345 172.256 183.345C172.662 183.339 173.062 183.438 173.417 183.634L173.17 184.093C172.894 183.922 172.575 183.834 172.251 183.84C171.735 183.84 171.498 184.026 171.498 184.279C171.498 185.032 173.515 184.418 173.515 185.657C173.515 186.235 172.999 186.601 172.143 186.601C171.675 186.614 171.214 186.484 170.822 186.23Z" fill="#263238"/>
<path d="M174.14 182.391C174.14 182.34 174.15 182.289 174.17 182.243C174.19 182.196 174.219 182.154 174.255 182.119C174.292 182.083 174.335 182.056 174.383 182.038C174.43 182.02 174.481 182.012 174.532 182.014C174.585 182.008 174.638 182.013 174.689 182.029C174.74 182.045 174.786 182.071 174.826 182.106C174.866 182.142 174.898 182.185 174.919 182.234C174.941 182.282 174.952 182.335 174.952 182.388C174.952 182.441 174.941 182.494 174.919 182.542C174.898 182.591 174.866 182.634 174.826 182.669C174.786 182.705 174.74 182.731 174.689 182.747C174.638 182.763 174.585 182.768 174.532 182.762C174.481 182.764 174.431 182.756 174.384 182.738C174.337 182.721 174.294 182.694 174.257 182.659C174.221 182.624 174.191 182.583 174.171 182.537C174.151 182.491 174.14 182.441 174.14 182.391ZM174.243 183.376H174.821V186.565H174.243V183.376Z" fill="#263238"/>
<path d="M177.71 186.379C177.511 186.532 177.265 186.61 177.014 186.601C176.877 186.62 176.738 186.607 176.607 186.564C176.475 186.521 176.356 186.449 176.256 186.353C176.157 186.257 176.081 186.14 176.033 186.011C175.986 185.881 175.968 185.743 175.982 185.605V183.851H175.466V183.376H175.982V182.664H176.56V183.361H177.504V183.835H176.591V185.564C176.584 185.633 176.593 185.703 176.617 185.769C176.641 185.834 176.678 185.894 176.728 185.943C176.777 185.992 176.836 186.03 176.902 186.054C176.967 186.077 177.037 186.086 177.107 186.08C177.271 186.081 177.431 186.026 177.561 185.925L177.71 186.379Z" fill="#263238"/>
<path d="M181.173 185.167H178.593C178.63 185.44 178.771 185.688 178.986 185.861C179.201 186.034 179.474 186.118 179.749 186.095C179.92 186.102 180.091 186.071 180.25 186.005C180.408 185.939 180.55 185.84 180.667 185.714L180.987 186.085C180.751 186.324 180.451 186.489 180.123 186.561C179.796 186.633 179.454 186.609 179.14 186.491C178.826 186.373 178.552 186.167 178.353 185.897C178.153 185.627 178.036 185.305 178.015 184.971C178.004 184.756 178.038 184.542 178.114 184.342C178.19 184.142 178.307 183.959 178.457 183.806C178.608 183.654 178.788 183.534 178.988 183.454C179.187 183.375 179.4 183.338 179.614 183.345C179.828 183.341 180.041 183.382 180.238 183.464C180.436 183.546 180.614 183.668 180.762 183.823C180.91 183.978 181.024 184.161 181.098 184.362C181.171 184.564 181.202 184.778 181.188 184.991C181.183 185.038 181.178 185.11 181.173 185.167ZM178.593 184.749H180.657C180.657 184.475 180.548 184.212 180.354 184.019C180.161 183.825 179.898 183.717 179.625 183.717C179.351 183.717 179.089 183.825 178.895 184.019C178.701 184.212 178.593 184.475 178.593 184.749Z" fill="#263238"/>
<path d="M186.751 183.376L185.559 186.565H185.007L184.088 184.145L183.18 186.565H182.628L181.441 183.376H181.988L182.917 185.915L183.877 183.376H184.367L185.311 185.93L186.26 183.376H186.751Z" fill="#263238"/>
<path d="M190.115 185.167H187.535C187.572 185.44 187.713 185.688 187.928 185.861C188.143 186.034 188.416 186.118 188.691 186.095C188.862 186.102 189.033 186.071 189.192 186.005C189.351 185.939 189.493 185.84 189.609 185.714L189.929 186.085C189.693 186.324 189.393 186.489 189.066 186.561C188.738 186.633 188.396 186.609 188.082 186.491C187.768 186.373 187.494 186.167 187.295 185.897C187.095 185.627 186.978 185.305 186.957 184.971C186.946 184.756 186.98 184.542 187.056 184.342C187.132 184.142 187.249 183.959 187.4 183.806C187.55 183.654 187.731 183.534 187.93 183.454C188.129 183.375 188.342 183.338 188.557 183.345C188.771 183.34 188.984 183.38 189.182 183.462C189.38 183.544 189.559 183.666 189.708 183.821C189.856 183.976 189.971 184.16 190.045 184.361C190.118 184.563 190.149 184.777 190.136 184.991C190.131 185.038 190.12 185.11 190.115 185.167ZM187.535 184.749H189.599C189.599 184.475 189.49 184.212 189.297 184.019C189.103 183.825 188.841 183.717 188.567 183.717C188.293 183.717 188.031 183.825 187.837 184.019C187.644 184.212 187.535 184.475 187.535 184.749Z" fill="#263238"/>
<path d="M194.233 184.971C194.244 185.186 194.211 185.401 194.134 185.603C194.058 185.805 193.94 185.988 193.789 186.142C193.637 186.296 193.455 186.416 193.254 186.495C193.053 186.574 192.838 186.61 192.623 186.601C192.403 186.61 192.184 186.566 191.985 186.471C191.787 186.377 191.614 186.236 191.482 186.059V186.575H190.92V182.112H191.498V183.866C191.63 183.699 191.8 183.565 191.994 183.476C192.187 183.386 192.399 183.343 192.612 183.35C192.828 183.34 193.043 183.375 193.245 183.453C193.446 183.53 193.629 183.649 193.781 183.802C193.934 183.954 194.053 184.137 194.13 184.338C194.208 184.54 194.243 184.755 194.233 184.971ZM193.65 184.971C193.64 184.761 193.568 184.559 193.445 184.389C193.321 184.22 193.15 184.09 192.954 184.017C192.757 183.943 192.544 183.929 192.339 183.976C192.134 184.022 191.948 184.128 191.803 184.279C191.658 184.431 191.56 184.621 191.522 184.828C191.484 185.034 191.507 185.247 191.589 185.44C191.671 185.634 191.807 185.799 191.982 185.915C192.157 186.031 192.361 186.094 192.571 186.095C192.719 186.103 192.866 186.078 193.003 186.024C193.141 185.969 193.265 185.885 193.367 185.779C193.469 185.672 193.547 185.545 193.596 185.405C193.645 185.266 193.663 185.118 193.65 184.971Z" fill="#263238"/>
<path d="M194.692 186.188C194.691 186.134 194.7 186.08 194.72 186.03C194.74 185.979 194.77 185.934 194.808 185.895C194.846 185.857 194.891 185.826 194.942 185.806C194.992 185.785 195.045 185.775 195.1 185.775C195.209 185.775 195.314 185.819 195.391 185.896C195.469 185.974 195.512 186.079 195.512 186.188C195.512 186.298 195.469 186.403 195.391 186.48C195.314 186.558 195.209 186.601 195.1 186.601C195.046 186.601 194.992 186.59 194.942 186.57C194.893 186.549 194.847 186.518 194.81 186.48C194.772 186.441 194.742 186.396 194.722 186.346C194.701 186.296 194.691 186.242 194.692 186.188Z" fill="#263238"/>
<path d="M195.961 184.971C195.957 184.75 195.998 184.532 196.082 184.328C196.166 184.125 196.291 183.941 196.449 183.789C196.608 183.636 196.796 183.518 197.003 183.441C197.209 183.365 197.429 183.332 197.649 183.345C197.906 183.331 198.162 183.387 198.39 183.507C198.618 183.627 198.81 183.806 198.944 184.026L198.505 184.31C198.413 184.164 198.285 184.045 198.133 183.965C197.981 183.884 197.81 183.845 197.638 183.851C197.354 183.87 197.087 183.997 196.893 184.205C196.698 184.413 196.59 184.688 196.59 184.973C196.59 185.258 196.698 185.533 196.893 185.741C197.087 185.949 197.354 186.076 197.638 186.095C197.81 186.101 197.98 186.062 198.132 185.983C198.284 185.903 198.412 185.786 198.505 185.641L198.944 185.915C198.81 186.135 198.619 186.316 198.391 186.437C198.163 186.557 197.906 186.614 197.649 186.601C197.429 186.613 197.209 186.58 197.002 186.503C196.796 186.426 196.607 186.307 196.449 186.154C196.291 186.001 196.165 185.817 196.082 185.613C195.998 185.41 195.957 185.191 195.961 184.971Z" fill="#263238"/>
<path d="M199.351 184.971C199.346 184.642 199.439 184.32 199.618 184.044C199.796 183.768 200.053 183.552 200.355 183.422C200.657 183.293 200.99 183.256 201.313 183.317C201.636 183.377 201.933 183.532 202.168 183.763C202.402 183.993 202.563 184.287 202.63 184.609C202.696 184.93 202.666 185.265 202.542 185.569C202.418 185.873 202.207 186.134 201.934 186.318C201.662 186.501 201.341 186.6 201.013 186.601C200.795 186.611 200.577 186.576 200.373 186.498C200.169 186.42 199.983 186.301 199.827 186.148C199.671 185.995 199.548 185.811 199.467 185.609C199.385 185.406 199.346 185.189 199.351 184.971ZM202.081 184.971C202.081 184.686 201.968 184.413 201.767 184.212C201.565 184.01 201.292 183.897 201.008 183.897C200.723 183.897 200.45 184.01 200.249 184.212C200.048 184.413 199.934 184.686 199.934 184.971C199.934 185.255 200.048 185.528 200.249 185.729C200.45 185.931 200.723 186.044 201.008 186.044C201.292 186.044 201.565 185.931 201.767 185.729C201.968 185.528 202.081 185.255 202.081 184.971Z" fill="#263238"/>
<path d="M208.758 184.728V186.56H208.185V184.79C208.185 184.166 207.881 183.861 207.36 183.861C207.224 183.855 207.088 183.879 206.962 183.932C206.837 183.984 206.724 184.064 206.633 184.165C206.542 184.266 206.474 184.386 206.435 184.516C206.395 184.647 206.385 184.784 206.405 184.919V186.56H205.827V184.79C205.827 184.166 205.523 183.861 205.002 183.861C204.866 183.855 204.73 183.879 204.604 183.932C204.479 183.984 204.366 184.064 204.275 184.165C204.184 184.266 204.116 184.386 204.077 184.516C204.037 184.647 204.027 184.784 204.047 184.919V186.56H203.469V183.371H204.021V183.846C204.148 183.676 204.315 183.54 204.506 183.45C204.698 183.36 204.909 183.319 205.12 183.33C205.342 183.315 205.564 183.362 205.76 183.467C205.956 183.572 206.119 183.73 206.23 183.923C206.369 183.73 206.554 183.575 206.769 183.471C206.983 183.367 207.22 183.319 207.458 183.33C207.641 183.316 207.824 183.344 207.995 183.411C208.166 183.478 208.319 183.582 208.444 183.716C208.569 183.851 208.662 184.011 208.716 184.186C208.771 184.362 208.785 184.547 208.758 184.728Z" fill="#263238"/>
<path d="M208.567 188.66C208.567 188.732 196.395 188.794 181.389 188.794C166.384 188.794 154.207 188.732 154.207 188.66C154.207 188.588 166.374 188.526 181.389 188.526C196.405 188.526 208.567 188.583 208.567 188.66Z" fill="#263238"/>
<path d="M151.776 113.974V117.168H154.97V113.974V110.775H151.776V113.974Z" fill="#263238"/>
<path d="M154.97 94.8047H151.776V97.9987H154.97V94.8047Z" fill="#263238"/>
<path d="M174.712 129.975H171.518V133.169H174.712V129.975Z" fill="#263238"/>
<path d="M154.97 101.193V104.387H151.776V107.581H154.97V110.775H158.164H161.364V113.974H164.558V110.775H167.752V107.581V104.387H164.558V107.581H161.364H158.164V104.387V101.193V97.9987H154.97V101.193Z" fill="#263238"/>
<path d="M161.364 94.8047H158.164V97.9987H161.364H164.558V94.8047H161.364Z" fill="#263238"/>
<path d="M175.739 120.486H177.452V117.292H175.739H174.021V120.486H175.739Z" fill="#263238"/>
<path d="M167.752 97.9987H164.558V101.193H167.752V97.9987Z" fill="#263238"/>
<path d="M190.115 110.775H186.921V113.969H190.115V110.775Z" fill="#263238"/>
<path d="M193.309 75.6353H190.115V78.8293H193.309V75.6353Z" fill="#263238"/>
<path d="M174.14 101.193V97.9987H177.334V94.8047H174.14V91.6106H170.946V94.8047H167.752V97.9987H170.946V101.193V104.387V107.581V110.775H174.14V107.581V104.387H177.334V101.193H174.14Z" fill="#263238"/>
<path d="M190.115 133.138H193.309V129.944H190.115H186.921V133.138H190.115Z" fill="#263238"/>
<path d="M186.921 75.6353H183.727V78.8293H186.921V75.6353Z" fill="#263238"/>
<path d="M186.121 101.193V97.9987H182.927V94.8047H179.733V97.9987V101.193H176.539V104.387H179.733H182.927V101.193H186.121Z" fill="#263238"/>
<path d="M204.15 94.8047H200.956V97.9987H204.15V94.8047Z" fill="#263238"/>
<path d="M171.039 110.775H167.844V113.969H171.039V110.775Z" fill="#263238"/>
<path d="M183.727 91.6106V88.4166H186.921V85.2174H190.115H193.309V82.0234H190.115V78.8293H186.921V82.0234H183.727V85.2174H180.528V88.4166H177.334V91.6106H180.528H183.727Z" fill="#263238"/>
<path d="M183.727 113.974V110.775H186.921V107.581H183.727H180.528V110.775H177.334V113.974H180.528H183.727Z" fill="#263238"/>
<path d="M193.309 126.75V123.551H190.115H186.921V120.357H183.727V123.551H180.528V126.75H177.334H174.14V129.944H177.334H180.528H183.727V126.75H186.921V129.944H190.115V126.75H193.309Z" fill="#263238"/>
<path d="M180.528 78.8293V75.6353H177.334H174.14V78.8293H170.946V82.0234H174.14H177.334V78.8293H180.528Z" fill="#263238"/>
<path d="M180.528 82.0234H177.334V85.2174H180.528V82.0234Z" fill="#263238"/>
<path d="M188.515 94.8047H185.321V97.9987V101.193V104.387H188.515H191.709V101.193H188.515V97.9987H191.709V94.8047H194.904V91.6106H191.709V88.4166H188.515V91.6106V94.8047Z" fill="#263238"/>
<path d="M177.334 85.2174H174.14V88.4114H177.334V85.2174Z" fill="#263238"/>
<path d="M186.921 117.168V120.362H190.115H193.309V117.168H196.503H199.697V113.974H196.503H193.309H190.115V117.168H186.921Z" fill="#263238"/>
<path d="M204.15 104.387H200.956V107.581H204.15V104.387Z" fill="#263238"/>
<path d="M193.309 107.581H190.115V110.775H193.309V107.581Z" fill="#263238"/>
<path d="M201.297 97.9987H198.103H194.904V101.193H198.103V104.387H201.297V101.193V97.9987Z" fill="#263238"/>
<path d="M199.697 107.581H196.503V110.775H199.697V107.581Z" fill="#263238"/>
<path d="M164.558 126.812H174.145V113.969H161.302V117.168H158.169V120.362H161.302V123.556H158.169V126.75H161.302V126.812H161.363V129.944H158.169V136.332H161.363V133.128H164.558V126.812ZM171.683 116.425V124.413H163.696V116.425H171.683Z" fill="#263238"/>
<path d="M206.085 113.974H209.279V110.775H206.085H202.891H199.697V113.974H202.891H206.085Z" fill="#263238"/>
<path d="M206.085 101.193H209.279V97.9987V94.8047H206.085V97.9987V101.193Z" fill="#263238"/>
<path d="M180.652 117.292H177.452V120.486V123.68H180.652V120.486V117.292Z" fill="#263238"/>
<path d="M212.473 113.974H209.279V117.168H212.473V113.974Z" fill="#263238"/>
<path d="M212.478 107.581V104.387H209.279V107.581V110.775H212.478V107.581Z" fill="#263238"/>
<path d="M154.97 129.944H151.776V133.138V136.332H154.97V133.138V129.944Z" fill="#263238"/>
<path d="M212.478 91.6106V75.6146H196.482V91.6106H212.478ZM198.897 89.2112V78.0295H210.079V89.2112H198.897Z" fill="#263238"/>
<path d="M207.685 80.4289H201.297V86.817H207.685V80.4289Z" fill="#263238"/>
<path d="M212.478 120.362H196.482V136.332H212.478V120.362ZM198.897 133.938V122.756H210.079V133.938H198.897Z" fill="#263238"/>
<path d="M207.685 125.151H201.297V131.539H207.685V125.151Z" fill="#263238"/>
<path d="M151.74 75.6353V91.6313H167.7V75.6353H151.74ZM165.316 78.0295V89.2112H154.134V78.0295H165.316Z" fill="#263238"/>
<path d="M162.917 80.4289H156.529V86.817H162.917V80.4289Z" fill="#263238"/>
<path d="M147.184 86.7706V75.4186C147.111 74.377 147.432 73.346 148.082 72.529C148.471 72.0992 148.95 71.7608 149.485 71.5378C150.021 71.3148 150.598 71.2128 151.178 71.239H163.108C163.202 71.239 163.293 71.2015 163.359 71.1347C163.426 71.0679 163.464 70.9774 163.464 70.8829C163.464 70.7885 163.426 70.6979 163.359 70.6312C163.293 70.5644 163.202 70.5269 163.108 70.5269H151.322C150.324 70.4768 149.334 70.7266 148.479 71.2441C147.865 71.6533 147.36 72.2068 147.009 72.8563C146.658 73.5058 146.472 74.2315 146.467 74.9696C146.436 76.8376 146.467 78.7106 146.467 80.5734V86.7654C146.477 86.8531 146.519 86.9339 146.586 86.9925C146.652 87.0511 146.737 87.0835 146.825 87.0835C146.914 87.0835 146.999 87.0511 147.065 86.9925C147.131 86.9339 147.173 86.8531 147.184 86.7654V86.7706Z" fill="#4A74EA"/>
<path d="M162.076 141.73H150.724C149.682 141.8 148.652 141.48 147.834 140.832C147.405 140.442 147.067 139.963 146.844 139.428C146.621 138.893 146.518 138.315 146.544 137.736V125.79C146.544 125.696 146.506 125.605 146.44 125.539C146.373 125.472 146.282 125.434 146.188 125.434C146.094 125.434 146.003 125.472 145.936 125.539C145.869 125.605 145.832 125.696 145.832 125.79V137.591C145.782 138.589 146.032 139.579 146.549 140.435C146.958 141.049 147.512 141.553 148.162 141.903C148.811 142.253 149.537 142.438 150.275 142.442C152.143 142.473 154.01 142.442 155.878 142.442H162.07C162.165 142.442 162.255 142.404 162.322 142.338C162.389 142.271 162.426 142.18 162.426 142.086C162.426 141.991 162.389 141.901 162.322 141.834C162.255 141.767 162.165 141.73 162.07 141.73H162.076Z" fill="#4A74EA"/>
<path d="M216.689 125.677V137.029C216.762 138.071 216.441 139.102 215.791 139.919C215.402 140.349 214.923 140.687 214.388 140.91C213.852 141.133 213.274 141.235 212.695 141.209H200.75C200.655 141.209 200.565 141.246 200.498 141.313C200.431 141.38 200.394 141.47 200.394 141.565C200.394 141.659 200.431 141.75 200.498 141.816C200.565 141.883 200.655 141.921 200.75 141.921H212.551C213.549 141.971 214.539 141.721 215.394 141.203C216.008 140.794 216.512 140.241 216.862 139.591C217.212 138.941 217.397 138.216 217.401 137.478C217.437 135.61 217.401 133.742 217.401 131.874V125.682C217.401 125.588 217.364 125.497 217.297 125.43C217.23 125.364 217.139 125.326 217.045 125.326C216.951 125.326 216.86 125.364 216.793 125.43C216.727 125.497 216.689 125.588 216.689 125.682V125.677Z" fill="#4A74EA"/>
<path d="M200.956 71.2441H212.308C213.35 71.1729 214.381 71.4952 215.198 72.1471C215.629 72.5352 215.968 73.0144 216.191 73.5498C216.415 74.0853 216.516 74.6637 216.488 75.2431V87.204C216.488 87.2984 216.525 87.389 216.592 87.4558C216.659 87.5225 216.749 87.56 216.844 87.56C216.938 87.56 217.029 87.5225 217.096 87.4558C217.162 87.389 217.2 87.2984 217.2 87.204V75.3876C217.25 74.3879 217 73.396 216.483 72.5393C216.074 71.9252 215.52 71.4209 214.87 71.0709C214.221 70.7209 213.495 70.5359 212.757 70.532C210.889 70.5011 209.021 70.532 207.153 70.532H200.961C200.867 70.532 200.776 70.5695 200.71 70.6363C200.643 70.7031 200.605 70.7937 200.605 70.8881C200.605 70.9825 200.643 71.0731 200.71 71.1398C200.776 71.2066 200.867 71.2441 200.961 71.2441H200.956Z" fill="#4A74EA"/>
</svg>
