<svg width="15" height="18" viewBox="0 0 15 18" fill="none" xmlns="http://www.w3.org/2000/svg">
<g id="trash 1" clip-path="url(#clip0_1227_263)">
<g id="Group">
<path id="Vector" d="M3.91829 3.39149H5.27883V1.86036C5.27883 1.47864 5.54584 1.23375 5.95631 1.23375H8.56493C8.97535 1.23375 9.24243 1.47864 9.24243 1.86036V3.39149H10.6029V1.79195C10.6029 0.664646 9.88347 0 8.66193 0H5.8593C4.63778 0 3.91829 0.664646 3.91829 1.79195V3.39149ZM0.652405 4.19355H13.887C14.2502 4.19355 14.5333 3.90502 14.5333 3.54173C14.5333 3.1811 14.2502 2.89861 13.887 2.89861H0.652405C0.295168 2.89861 0 3.1811 0 3.54173C0 3.91105 0.295168 4.19355 0.652405 4.19355ZM3.88172 16.6347H10.6577C11.7861 16.6347 12.5191 15.9439 12.572 14.814L13.0787 4.05216H11.7114L11.2268 14.5945C11.212 15.0368 10.9202 15.3305 10.4999 15.3305H4.02739C3.61914 15.3305 3.32735 15.0295 3.30656 14.5945L2.79776 4.05216H1.45461L1.9674 14.8201C2.02166 15.9499 2.74115 16.6347 3.88172 16.6347ZM5.09587 14.1389C5.40651 14.1389 5.60673 13.9421 5.59936 13.6522L5.37349 5.92358C5.36479 5.63637 5.16192 5.44559 4.86469 5.44559C4.55669 5.44559 4.3578 5.64241 4.36517 5.93094L4.585 13.6562C4.5937 13.9495 4.79789 14.1389 5.09587 14.1389ZM7.26732 14.1389C7.57264 14.1389 7.78763 13.9447 7.78763 13.6576V5.92829C7.78763 5.64109 7.57264 5.44559 7.26732 5.44559C6.96065 5.44559 6.75174 5.64109 6.75174 5.92829V13.6576C6.75174 13.9447 6.96065 14.1389 7.26732 14.1389ZM9.44353 14.1389C9.73672 14.1389 9.93964 13.9495 9.94832 13.6562L10.1681 5.93094C10.1755 5.64241 9.97662 5.44559 9.66863 5.44559C9.37136 5.44559 9.16853 5.63637 9.15985 5.92962L8.94003 13.6522C8.93263 13.9421 9.13282 14.1389 9.44353 14.1389Z" fill="#858585"/>
</g>
</g>
<defs>
<clipPath id="clip0_1227_263">
<rect width="14.5333" height="18" fill="white"/>
</clipPath>
</defs>
</svg>
