<svg width="24" height="24" viewBox="0 0 24 24" fill="none" xmlns="http://www.w3.org/2000/svg">
<g id="money-5 1" clip-path="url(#clip0_2009_3787)">
<g id="Group">
<g id="Group_2">
<g id="Group_3">
<path id="Vector" d="M23.974 13.355C23.9739 13.3548 23.9739 13.3548 23.9739 13.3547L19.4426 1.97697C19.3464 1.73522 19.0724 1.61721 18.8306 1.71337C18.8305 1.71343 18.8303 1.71349 18.8301 1.71361L0.447236 9.0335C0.372268 9.06589 0.307253 9.1176 0.258786 9.18332C0.105905 9.26276 0.00932411 9.42 0.00767517 9.59226V21.8415C0.00767517 22.1017 0.218622 22.3127 0.478802 22.3127H20.2661C20.5263 22.3127 20.7372 22.1017 20.7372 21.8415V15.1515L23.711 13.9671C23.9527 13.8707 24.0704 13.5967 23.974 13.355ZM19.795 21.3704H0.949928V10.0634H19.795V21.3704ZM7.86842 9.12349L15.757 5.98013C16.461 6.72015 17.4365 7.14075 18.4579 7.14475L19.2447 9.12349H7.86842ZM20.7372 14.1396V9.59226C20.7372 9.33208 20.5263 9.12113 20.2661 9.12113H20.2586L19.2603 6.6138C19.2492 6.59289 19.2363 6.57298 19.2216 6.55443C19.1711 6.32753 18.961 6.1727 18.7293 6.19167C17.7789 6.27829 16.8492 5.87795 16.2592 5.12786C16.1124 4.94666 15.8543 4.9016 15.6547 5.02233C15.6323 5.02498 15.6101 5.0291 15.5883 5.03458L5.95753 8.86955C5.84098 8.91525 5.74776 9.00588 5.69888 9.12113H2.77413L18.7415 2.76328L22.9247 13.267L20.7372 14.1396Z" fill="#070707"/>
<path id="Vector_2" d="M2.22857 18.1898C3.14326 18.4601 3.85902 19.175 4.1305 20.0893C4.19004 20.2889 4.3736 20.4257 4.58184 20.4257C4.60628 20.4242 4.63054 20.4206 4.6544 20.4149C4.67554 20.4209 4.69715 20.4253 4.71894 20.4281H16.026C16.0454 20.4256 16.0646 20.4216 16.0835 20.4163C16.3188 20.4736 16.556 20.3292 16.6133 20.0938C16.6135 20.0929 16.6138 20.0921 16.6139 20.0912C16.8847 19.176 17.6006 18.4601 18.5159 18.1893C18.7378 18.1215 18.8758 17.9003 18.8391 17.6711C18.8454 17.6482 18.8499 17.6249 18.8527 17.6013V13.8323C18.85 13.8087 18.8453 13.7854 18.8386 13.7626C18.8755 13.5333 18.7375 13.312 18.5154 13.2444C17.6001 12.9736 16.8844 12.2575 16.6144 11.3419C16.5462 11.1185 16.3228 10.9802 16.0924 11.0188C16.0706 11.0127 16.0484 11.0083 16.026 11.0056H4.71894C4.69521 11.0084 4.67171 11.0131 4.64874 11.0197C4.4196 10.9832 4.19852 11.121 4.1305 11.3429C3.85955 12.258 3.14373 12.9736 2.22857 13.2444C2.00661 13.3122 1.86868 13.5334 1.90537 13.7626C1.89925 13.7855 1.89483 13.8088 1.89218 13.8323V17.6013C1.89489 17.6235 1.89931 17.6454 1.90537 17.6668C1.86674 17.8975 2.00496 18.1212 2.22857 18.1898ZM2.83443 14.0236C3.78046 13.6436 4.53025 12.8938 4.91022 11.9478H15.8342C16.2144 12.8938 16.9643 13.6436 17.9105 14.0236V17.4101C16.9648 17.7904 16.2151 18.5401 15.8347 19.4858H4.91022C4.52984 18.5401 3.78016 17.7904 2.83443 17.4101V14.0236Z" fill="#070707"/>
<path id="Vector_3" d="M10.3725 18.5436C11.9337 18.5436 13.1992 17.278 13.1992 15.7168C13.1992 14.1556 11.9337 12.8901 10.3725 12.8901C8.81126 12.8901 7.5457 14.1556 7.5457 15.7168C7.54723 17.2774 8.81191 18.5421 10.3725 18.5436ZM10.3725 13.8323C11.4132 13.8323 12.257 14.676 12.257 15.7168C12.257 16.7576 11.4132 17.6013 10.3725 17.6013C9.33168 17.6013 8.48795 16.7576 8.48795 15.7168C8.48795 14.676 9.33168 13.8323 10.3725 13.8323Z" fill="#070707"/>
<path id="Vector_4" d="M5.19006 16.4235C5.58033 16.4235 5.89675 16.1071 5.89675 15.7168C5.89675 15.3266 5.58033 15.0101 5.19006 15.0101C4.79979 15.0101 4.48337 15.3266 4.48337 15.7168C4.48337 16.1072 4.79979 16.4235 5.19006 16.4235ZM5.19006 15.4813C5.32015 15.4813 5.42562 15.5867 5.42562 15.7168C5.42562 15.8469 5.32015 15.9524 5.19006 15.9524C5.05997 15.9524 4.95449 15.8469 4.95449 15.7168C4.95449 15.5867 5.05997 15.4813 5.19006 15.4813Z" fill="#070707"/>
<path id="Vector_5" d="M15.5548 16.4235C15.9451 16.4235 16.2615 16.1071 16.2615 15.7168C16.2615 15.3266 15.9451 15.0101 15.5548 15.0101C15.1646 15.0101 14.8482 15.3266 14.8482 15.7168C14.8482 16.1072 15.1646 16.4235 15.5548 16.4235ZM15.5548 15.4813C15.6849 15.4813 15.7904 15.5867 15.7904 15.7168C15.7904 15.8469 15.6849 15.9524 15.5548 15.9524C15.4248 15.9524 15.3193 15.8469 15.3193 15.7168C15.3193 15.5867 15.4248 15.4813 15.5548 15.4813Z" fill="#070707"/>
</g>
</g>
</g>
</g>
<defs>
<clipPath id="clip0_2009_3787">
<rect width="24" height="24" fill="white"/>
</clipPath>
</defs>
</svg>
