<svg width="36" height="37" viewBox="0 0 36 37" fill="none" xmlns="http://www.w3.org/2000/svg">
<path fill-rule="evenodd" clip-rule="evenodd" d="M18 0C8.05888 0 0 8.17482 0 18.1159C0 28.0571 8.05888 36.2319 18 36.2319C27.9411 36.2319 36 28.0571 36 18.1159C36 8.17482 27.9411 0 18 0ZM22.177 12.0525H24.3283C24.8988 12.0525 25.446 12.2791 25.8494 12.6826C26.2529 13.086 26.4795 13.6332 26.4795 14.2037V24.4048C26.4784 25.3554 26.1003 26.2667 25.4281 26.9388C24.756 27.611 23.8447 27.9891 22.8941 27.9902H12.8549C11.9044 27.9891 10.9931 27.611 10.3209 26.9388C9.64878 26.2667 9.27067 25.3554 9.26953 24.4048V14.2037C9.26953 13.6332 9.49618 13.086 9.89962 12.6826C10.3031 12.2791 10.8502 12.0525 11.4208 12.0525H13.572C13.572 10.9114 14.0253 9.81705 14.8322 9.01017C15.6391 8.2033 16.7334 7.75 17.8745 7.75C19.0156 7.75 20.11 8.2033 20.9169 9.01017C21.7237 9.81705 22.177 10.9114 22.177 12.0525ZM19.9027 10.0243C19.3648 9.48637 18.6353 9.18417 17.8745 9.18417C17.1138 9.18417 16.3842 9.48637 15.8463 10.0243C15.3084 10.5622 15.0062 11.2918 15.0062 12.0525H20.7429C20.7429 11.2918 20.4407 10.5622 19.9027 10.0243ZM24.4153 25.926C24.8187 25.5225 25.0454 24.9754 25.0454 24.4048V14.2037C25.0454 14.0136 24.9698 13.8312 24.8353 13.6967C24.7009 13.5622 24.5185 13.4867 24.3283 13.4867H22.177V14.9208C22.177 15.111 22.1015 15.2934 21.967 15.4279C21.8325 15.5624 21.6501 15.6379 21.4599 15.6379C21.2698 15.6379 21.0874 15.5624 20.9529 15.4279C20.8184 15.2934 20.7429 15.111 20.7429 14.9208V13.4867H15.0062V14.9208C15.0062 15.111 14.9306 15.2934 14.7962 15.4279C14.6617 15.5624 14.4793 15.6379 14.2891 15.6379C14.0989 15.6379 13.9165 15.5624 13.7821 15.4279C13.6476 15.2934 13.572 15.111 13.572 14.9208V13.4867H11.4208C11.2306 13.4867 11.0482 13.5622 10.9137 13.6967C10.7792 13.8312 10.7037 14.0136 10.7037 14.2037V24.4048C10.7037 24.9754 10.9303 25.5225 11.3338 25.926C11.7372 26.3294 12.2844 26.5561 12.8549 26.5561H22.8941C23.4647 26.5561 24.0118 26.3294 24.4153 25.926Z" fill="#4A74EA"/>
</svg>
