<svg width="36" height="37" viewBox="0 0 36 37" fill="none" xmlns="http://www.w3.org/2000/svg">
<rect width="36" height="36.2319" rx="18" fill="#4A74EA"/>
<path d="M24.3283 12.0525H22.177C22.177 10.9114 21.7237 9.81705 20.9169 9.01017C20.11 8.2033 19.0156 7.75 17.8745 7.75C16.7334 7.75 15.6391 8.2033 14.8322 9.01017C14.0253 9.81705 13.572 10.9114 13.572 12.0525H11.4208C10.8502 12.0525 10.3031 12.2791 9.89962 12.6826C9.49618 13.086 9.26953 13.6332 9.26953 14.2037V24.4048C9.27067 25.3554 9.64878 26.2667 10.3209 26.9388C10.9931 27.611 11.9044 27.9891 12.8549 27.9902H22.8941C23.8447 27.9891 24.756 27.611 25.4281 26.9388C26.1003 26.2667 26.4784 25.3554 26.4795 24.4048V14.2037C26.4795 13.6332 26.2529 13.086 25.8494 12.6826C25.446 12.2791 24.8988 12.0525 24.3283 12.0525ZM17.8745 9.18417C18.6353 9.18417 19.3648 9.48637 19.9027 10.0243C20.4407 10.5622 20.7429 11.2918 20.7429 12.0525H15.0062C15.0062 11.2918 15.3084 10.5622 15.8463 10.0243C16.3842 9.48637 17.1138 9.18417 17.8745 9.18417ZM25.0454 24.4048C25.0454 24.9754 24.8187 25.5225 24.4153 25.926C24.0118 26.3294 23.4647 26.5561 22.8941 26.5561H12.8549C12.2844 26.5561 11.7372 26.3294 11.3338 25.926C10.9303 25.5225 10.7037 24.9754 10.7037 24.4048V14.2037C10.7037 14.0136 10.7792 13.8312 10.9137 13.6967C11.0482 13.5622 11.2306 13.4867 11.4208 13.4867H13.572V14.9208C13.572 15.111 13.6476 15.2934 13.7821 15.4279C13.9165 15.5624 14.0989 15.6379 14.2891 15.6379C14.4793 15.6379 14.6617 15.5624 14.7962 15.4279C14.9306 15.2934 15.0062 15.111 15.0062 14.9208V13.4867H20.7429V14.9208C20.7429 15.111 20.8184 15.2934 20.9529 15.4279C21.0874 15.5624 21.2698 15.6379 21.4599 15.6379C21.6501 15.6379 21.8325 15.5624 21.967 15.4279C22.1015 15.2934 22.177 15.111 22.177 14.9208V13.4867H24.3283C24.5185 13.4867 24.7009 13.5622 24.8353 13.6967C24.9698 13.8312 25.0454 14.0136 25.0454 14.2037V24.4048Z" fill="white"/>
</svg>
