<svg width="14" height="18" viewBox="0 0 14 18" fill="none" xmlns="http://www.w3.org/2000/svg">
<g id="Shield Done">
<path id="Stroke 1" fill-rule="evenodd" clip-rule="evenodd" d="M12.7209 3.26989C13.085 3.39739 13.3284 3.74072 13.3284 4.12655V9.77072C13.3284 11.3482 12.755 12.8541 11.7425 14.0207C11.2334 14.6082 10.5892 15.0657 9.90502 15.4357L6.94002 17.0374L3.97002 15.4349C3.28502 15.0649 2.64002 14.6082 2.13002 14.0199C1.11669 12.8532 0.541687 11.3466 0.541687 9.76739V4.12655C0.541687 3.74072 0.78502 3.39739 1.14919 3.26989L6.63419 1.34239C6.82919 1.27405 7.04169 1.27405 7.23585 1.34239L12.7209 3.26989Z" stroke="#1C2B55" stroke-linecap="round" stroke-linejoin="round"/>
<path id="Stroke 3" opacity="0.4" d="M4.7688 8.93152L6.34547 10.509L9.5938 7.26068" stroke="#1C2B55" stroke-linecap="round" stroke-linejoin="round"/>
</g>
</svg>
