<svg width="76" height="76" viewBox="0 0 76 76" fill="none" xmlns="http://www.w3.org/2000/svg">
<g id="delivery-cancelled 1">
<g id="g1606">
<path id="path1562" d="M6.38583 3.97681C4.62922 3.97681 3.1666 5.43972 3.1666 7.19604V13.1861C3.1666 14.7482 4.32505 16.0715 5.81682 16.3466V52.6705C5.7425 55.8239 8.63773 57.4267 11.2966 57.4267H32.4273C33.3018 57.4267 34.0107 56.7178 34.0107 55.8433C34.0107 54.9689 33.3018 54.26 32.4273 54.26H11.2966C10.0309 54.26 8.99555 53.8001 8.98349 52.6705V16.4054H24.4395V36.129C24.4399 37.5288 26.1232 38.2397 27.1269 37.2639L32.5665 31.9604L38.0061 37.2639C39.0096 38.2449 40.6989 37.5323 40.6965 36.129V16.4054H56.1526V31.7223C56.1526 32.5967 56.8615 33.3056 57.7359 33.3056C58.6104 33.3056 59.3193 32.5967 59.3193 31.7223V16.3466C60.8101 16.0703 61.9695 14.7472 61.9695 13.1861V7.19604C61.9695 5.43972 60.5038 3.97681 58.7472 3.97681H6.38583ZM24.4395 7.14384V13.2391H6.38583C6.26411 11.3888 6.33326 9.16231 6.33326 7.19604C12.4488 7.08632 18.5263 7.14289 24.4395 7.14384ZM27.6062 7.14384H37.5299V32.3782L33.6736 28.6178C33.0586 28.018 32.0775 28.018 31.4625 28.6178L27.6062 32.3751V7.14384ZM40.6965 7.14384H58.7472C58.8899 9.22279 58.8098 11.4951 58.7472 13.239H40.6965V7.14384Z" fill="#72A114"/>
<path id="circle1574" d="M55.0302 36.4166C45.2166 36.4166 37.2269 44.4061 37.2269 54.2198C37.2269 64.0336 45.2166 72.0231 55.0302 72.0231C64.8437 72.0231 72.8334 64.0336 72.8334 54.2198C72.8334 44.4061 64.8437 36.4166 55.0302 36.4166ZM55.0302 39.5833C63.1322 39.5833 69.6667 46.1175 69.6667 54.2198C69.6667 62.3222 63.1322 68.8564 55.0302 68.8564C46.9281 68.8564 40.3936 62.3222 40.3936 54.2198C40.3936 46.1175 46.9281 39.5833 55.0302 39.5833Z" fill="#72A114"/>
<path id="path1576" d="M48.2885 47.4783C47.6703 48.0966 47.6703 49.0989 48.2885 49.7172L52.7911 54.2198L48.2885 58.7224C47.6703 59.3407 47.6703 60.343 48.2885 60.9613C48.9068 61.5795 49.9091 61.5795 50.5274 60.9613L55.0301 56.4587L59.5327 60.9613C60.151 61.5795 61.1533 61.5795 61.7716 60.9613C62.3898 60.343 62.3898 59.3407 61.7716 58.7224L57.269 54.2198L61.7716 49.7172C62.3898 49.0989 62.3898 48.0966 61.7716 47.4783C61.1342 46.8253 60.1303 46.8712 59.5327 47.4783L55.0301 51.9809L50.5274 47.4783C49.7973 46.8022 48.9718 46.911 48.2885 47.4783Z" fill="#72A114"/>
</g>
</g>
</svg>
