<svg width="117" height="110" viewBox="0 0 117 110" fill="none" xmlns="http://www.w3.org/2000/svg">
<path d="M61.5589 109.527C91.804 109.527 116.322 85.0086 116.322 54.7635C116.322 24.5185 91.804 0 61.5589 0C31.3139 0 6.79541 24.5185 6.79541 54.7635C6.79541 85.0086 31.3139 109.527 61.5589 109.527Z" fill="#D6DCEA"/>
<path d="M12.2381 29.6892C11.9431 29.6892 11.648 29.5908 11.3939 29.3941L7.45115 26.2465C6.86917 25.7792 6.77081 24.9267 7.23803 24.3448C7.70526 23.7628 8.55773 23.6644 9.13971 24.1316L13.0824 27.2793C13.6644 27.7465 13.7628 28.599 13.2955 29.1809C13.025 29.517 12.6316 29.6892 12.2381 29.6892Z" fill="#3C50A0"/>
<path d="M10.4839 34.7795C10.4839 34.7795 10.4675 34.7795 10.4593 34.7795L1.32798 34.591C0.582065 34.5746 -0.00811255 33.9598 8.43576e-05 33.2139C0.0164782 32.4762 0.614852 31.886 1.35257 31.886C1.36077 31.886 1.36897 31.886 1.37716 31.886L10.5085 32.0745C11.2544 32.0909 11.8446 32.7057 11.8364 33.4516C11.82 34.1893 11.2217 34.7795 10.4839 34.7795Z" fill="#3C50A0"/>
<path d="M35.7045 35.663H77.8222C80.1279 35.663 81.9841 37.5192 81.9841 39.8248V76.9845C81.9841 79.2901 80.1279 81.1463 77.8222 81.1463H35.7045C33.3988 81.1463 31.5426 79.2901 31.5426 76.9845V39.8248C31.5426 37.5192 33.3988 35.663 35.7045 35.663Z" fill="white"/>
<path d="M35.7049 35.6628C33.3992 35.6628 31.5425 37.5195 31.5425 39.8252V76.9841C31.5425 79.2897 33.3992 81.1465 35.7049 81.1465H77.821C80.1266 81.1465 81.9834 79.2897 81.9834 76.9841V72.5062C77.4415 75.3175 72.2059 76.8071 66.8644 76.8078C63.0911 76.8076 59.3547 76.0642 55.8687 74.6201C52.3826 73.1759 49.2152 71.0593 46.5471 68.391C43.8791 65.7227 41.7628 62.555 40.319 59.0688C38.8752 55.5826 38.1322 51.8461 38.1325 48.0728C38.1322 43.7775 39.0949 39.5369 40.9497 35.6628H35.7049Z" fill="white"/>
<path d="M50.0221 39.8226L30.3863 39.8226C29.4798 39.8226 28.75 39.0925 28.75 38.1856V32.197C28.75 31.2902 29.4798 30.5601 30.3863 30.5601H50.0221" fill="white"/>
<path d="M63.1127 30.5601H82.7485C83.655 30.5601 84.3848 31.2902 84.3848 32.197V38.1856C84.3848 39.0925 83.655 39.8226 82.7485 39.8226H63.1127" fill="white"/>
<path d="M50.0221 30.5601V61.1305L56.5674 54.7508L63.1126 61.1305V30.5601" fill="white"/>
<path d="M95.2501 79.22C95.2501 81.35 94.8305 83.4592 94.0154 85.4271C93.2003 87.395 92.0056 89.183 90.4995 90.6892C88.9934 92.1954 87.2053 93.3901 85.2375 94.2053C83.2696 95.0204 81.1605 95.4399 79.0305 95.4399C76.9006 95.4399 74.7915 95.0204 72.8236 94.2053C70.8558 93.3901 69.0677 92.1954 67.5616 90.6892C66.0555 89.183 64.8608 87.395 64.0457 85.4271C63.2306 83.4592 62.811 81.35 62.811 79.22C62.811 77.0899 63.2306 74.9807 64.0457 73.0129C64.8608 71.045 66.0555 69.2569 67.5616 67.7507C69.0677 66.2446 70.8558 65.0498 72.8236 64.2347C74.7915 63.4195 76.9006 63 79.0305 63C81.1605 63 83.2696 63.4195 85.2375 64.2347C87.2053 65.0498 88.9933 66.2446 90.4995 67.7507C92.0056 69.2569 93.2003 71.045 94.0154 73.0129C94.8305 74.9807 95.2501 77.0899 95.2501 79.22Z" fill="white"/>
<path d="M30.3859 28.9769C28.6293 28.9769 27.1666 30.4398 27.1666 32.1961V38.1862C27.1666 39.7483 28.3251 41.0716 29.8169 41.3467V77.6705C29.7425 80.824 32.6378 82.4267 35.2967 82.4267H56.4274C57.3018 82.4267 58.0107 81.7178 58.0107 80.8434C58.0107 79.969 57.3018 79.2601 56.4274 79.2601H35.2967C34.031 79.2601 32.9956 78.8001 32.9835 77.6705V41.4054H48.4396V61.1291C48.4399 62.5289 50.1233 63.2398 51.1269 62.264L56.5665 56.9604L62.0061 62.264C63.0097 63.245 64.6989 62.5324 64.6966 61.1291V41.4054H80.1526V56.7223C80.1526 57.5968 80.8615 58.3057 81.736 58.3057C82.6104 58.3057 83.3193 57.5968 83.3193 56.7223V41.3467C84.8102 41.0704 85.9695 39.7472 85.9695 38.1862V32.1961C85.9695 30.4398 84.5038 28.9769 82.7472 28.9769H30.3859ZM48.4396 32.1439V38.2391H30.3859C30.2641 36.3889 30.3333 34.1624 30.3333 32.1961C36.4489 32.0864 42.5263 32.143 48.4396 32.1439ZM51.6062 32.1439H61.5299V57.3783L57.6736 53.6179C57.0586 53.0181 56.0775 53.0181 55.4625 53.6179L51.6062 57.3752V32.1439ZM64.6966 32.1439H82.7472C82.8899 34.2229 82.8098 36.4951 82.7472 38.2391H64.6966V32.1439Z" fill="#3C50A0"/>
<path d="M79.0302 61.4167C69.2166 61.4167 61.2269 69.4062 61.2269 79.2199C61.2269 89.0336 69.2166 97.0231 79.0302 97.0231C88.8437 97.0231 96.8334 89.0336 96.8334 79.2199C96.8334 69.4062 88.8437 61.4167 79.0302 61.4167ZM79.0302 64.5834C87.1322 64.5834 93.6667 71.1175 93.6667 79.2199C93.6667 87.3223 87.1322 93.8565 79.0302 93.8565C70.9281 93.8565 64.3936 87.3223 64.3936 79.2199C64.3936 71.1175 70.9281 64.5834 79.0302 64.5834Z" fill="#3C50A0"/>
<path d="M72.2886 72.4784C71.6704 73.0967 71.6704 74.099 72.2886 74.7173L76.7912 79.2199L72.2886 83.7225C71.6704 84.3408 71.6704 85.3432 72.2886 85.9615C72.9069 86.5796 73.9092 86.5796 74.5275 85.9615L79.0301 81.4589L83.5327 85.9615C84.151 86.5796 85.1533 86.5796 85.7717 85.9615C86.3898 85.3432 86.3898 84.3408 85.7717 83.7225L81.269 79.2199L85.7717 74.7173C86.3898 74.099 86.3898 73.0967 85.7717 72.4784C85.1343 71.8254 84.1304 71.8713 83.5327 72.4784L79.0301 76.981L74.5275 72.4784C73.7974 71.8023 72.9719 71.9111 72.2886 72.4784Z" fill="#3C50A0"/>
</svg>
