<svg width="30" height="31" viewBox="0 0 30 31" fill="none" xmlns="http://www.w3.org/2000/svg">
<g clip-path="url(#clip0_2736_5920)">
<path d="M15 7.24658C10.2551 7.24658 6.39502 11.1066 6.39502 15.8516C6.39502 20.5965 10.2551 24.4566 15 24.4566C19.745 24.4566 23.605 20.5965 23.605 15.8516C23.605 11.1066 19.745 7.24658 15 7.24658ZM12.1317 22.4229V20.8712C12.1317 20.4753 12.4537 20.1541 12.8488 20.1541H17.1513C17.5464 20.1541 17.8684 20.4753 17.8684 20.8712V22.4229C16.9892 22.808 16.0197 23.0224 15 23.0224C13.9803 23.0224 13.0108 22.808 12.1317 22.4229ZM19.3025 21.5847V20.8712C19.3025 19.6851 18.3373 18.7199 17.1513 18.7199H12.8488C11.6627 18.7199 10.6975 19.6851 10.6975 20.8712V21.5847C8.95716 20.2753 7.82919 18.1929 7.82919 15.8516C7.82919 11.8976 11.046 8.68075 15 8.68075C18.954 8.68075 22.1709 11.8976 22.1709 15.8516C22.1709 18.1921 21.0429 20.2753 19.3025 21.5847ZM15 11.5491C13.4181 11.5491 12.1317 12.8355 12.1317 14.4174C12.1317 15.9993 13.4181 17.2857 15 17.2857C16.5819 17.2857 17.8684 15.9993 17.8684 14.4174C17.8684 12.8355 16.5819 11.5491 15 11.5491ZM15 15.8516C14.2091 15.8516 13.5659 15.2084 13.5659 14.4174C13.5659 13.6265 14.2091 12.9832 15 12.9832C15.791 12.9832 16.4342 13.6265 16.4342 14.4174C16.4342 15.2084 15.791 15.8516 15 15.8516Z" fill="#4A74EA"/>
</g>
<defs>
<clipPath id="clip0_2736_5920">
<rect width="17.21" height="17.21" fill="white" transform="translate(6.39502 7.24658)"/>
</clipPath>
</defs>
</svg>
