<svg width="9" height="5" viewBox="0 0 9 5" fill="none" xmlns="http://www.w3.org/2000/svg">
<path id="Vector" d="M8.89385 0.918531C8.89434 0.994056 8.87824 1.06892 8.84649 1.13884C8.81474 1.20876 8.76796 1.27236 8.70883 1.32598L4.8809 4.76919C4.76137 4.87607 4.59967 4.93607 4.43112 4.93607C4.26257 4.93607 4.10087 4.87607 3.98134 4.76919L0.153409 1.32598C0.0488893 1.2162 -0.00572635 1.07498 0.000475625 0.930552C0.0066776 0.786122 0.0732402 0.649117 0.186862 0.546915C0.300485 0.444712 0.452798 0.384839 0.613364 0.37926C0.77393 0.373681 0.930924 0.422808 1.05297 0.516823L4.42793 3.55259L7.80289 0.516823C7.89174 0.436239 8.00517 0.381164 8.12882 0.358563C8.25247 0.335961 8.38079 0.346847 8.49757 0.389844C8.61434 0.432842 8.71431 0.506019 8.78485 0.600124C8.85539 0.694229 8.89332 0.805035 8.89385 0.918531Z" fill="black"/>
</svg>
