<svg width="147" height="120" viewBox="0 0 147 120" fill="none" xmlns="http://www.w3.org/2000/svg">
<g id="ic_Processing">
<g id="Mask group">
<mask id="mask0_2370_7615" style="mask-type:luminance" maskUnits="userSpaceOnUse" x="-2" y="-2" width="151" height="124">
<g id="Group">
<path id="Vector" d="M147 0H0V120H147V0Z" stroke="#8A2377" stroke-width="3.62063"/>
</g>
</mask>
<g mask="url(#mask0_2370_7615)">
<path id="Vector_2" d="M18.851 86.2726L0.145172 87.6478" stroke="#3C50A0" stroke-width="3.62063"/>
</g>
</g>
<g id="Mask group_2">
<mask id="mask1_2370_7615" style="mask-type:luminance" maskUnits="userSpaceOnUse" x="-2" y="-2" width="151" height="124">
<g id="Group_2">
<path id="Vector_3" d="M147 0H0V120H147V0Z" stroke="#8A2377" stroke-width="3.62063"/>
</g>
</mask>
<g mask="url(#mask1_2370_7615)">
<path id="Vector_4" d="M26.7171 105.163L7.10498 108.166" stroke="#3C50A0" stroke-width="3.62063"/>
</g>
</g>
<g id="Mask group_3">
<mask id="mask2_2370_7615" style="mask-type:luminance" maskUnits="userSpaceOnUse" x="-2" y="-2" width="151" height="124">
<g id="Group_3">
<path id="Vector_5" d="M147 0H0V120H147V0Z" stroke="#8A2377" stroke-width="3.62063"/>
</g>
</mask>
<g mask="url(#mask2_2370_7615)">
<path id="Vector_6" d="M28.2761 93.2932L11.8542 96.2606" stroke="#3C50A0" stroke-width="3.62063"/>
</g>
</g>
<g id="Mask group_4">
<mask id="mask3_2370_7615" style="mask-type:luminance" maskUnits="userSpaceOnUse" x="0" y="0" width="147" height="120">
<g id="Group_4" opacity="0.19">
<path id="Vector_7" d="M147 0H0V120H147V0Z" fill="#8A2377"/>
</g>
</mask>
<g mask="url(#mask3_2370_7615)">
<path id="Vector_8" opacity="0.19" fill-rule="evenodd" clip-rule="evenodd" d="M55.7545 55.7298C40.3382 55.7298 27.8408 43.2543 27.8408 27.8649C27.8408 12.4755 40.3382 0 55.7545 0C71.1708 0 83.6682 12.4755 83.6682 27.8649C83.6682 43.2543 71.1708 55.7298 55.7545 55.7298Z" fill="#3C50A0"/>
</g>
</g>
<g id="Mask group_5">
<mask id="mask4_2370_7615" style="mask-type:luminance" maskUnits="userSpaceOnUse" x="-1" y="-1" width="149" height="122">
<g id="Group_5">
<path id="Vector_9" d="M147 0H0V120H147V0Z" fill="white" stroke="#312B73" stroke-width="1.81031"/>
</g>
</mask>
<g mask="url(#mask4_2370_7615)">
<path id="Vector_10" d="M19.7571 85.0784L1.05133 86.4897" stroke="#3C50A0" stroke-width="1.81031"/>
</g>
</g>
<g id="Mask group_6">
<mask id="mask5_2370_7615" style="mask-type:luminance" maskUnits="userSpaceOnUse" x="-1" y="-1" width="149" height="122">
<g id="Group_6">
<path id="Vector_11" d="M147 0H0V120H147V0Z" fill="white" stroke="#312B73" stroke-width="1.81031"/>
</g>
</mask>
<g mask="url(#mask5_2370_7615)">
<path id="Vector_12" d="M27.6235 104.005L8.01138 106.972" stroke="#3C50A0" stroke-width="1.81031"/>
</g>
</g>
<g id="Mask group_7">
<mask id="mask6_2370_7615" style="mask-type:luminance" maskUnits="userSpaceOnUse" x="-1" y="-1" width="149" height="122">
<g id="Group_7">
<path id="Vector_13" d="M147 0H0V120H147V0Z" fill="white" stroke="#312B73" stroke-width="1.81031"/>
</g>
</mask>
<g mask="url(#mask6_2370_7615)">
<path id="Vector_14" d="M29.1824 92.0989L12.7967 95.0663" stroke="#3C50A0" stroke-width="1.81031"/>
</g>
</g>
<g id="Mask group_8">
<mask id="mask7_2370_7615" style="mask-type:luminance" maskUnits="userSpaceOnUse" x="-1" y="-1" width="149" height="122">
<g id="Group_8">
<path id="Vector_15" d="M147 0H0V120H147V0Z" fill="white" stroke="#312B73" stroke-width="1.81031"/>
</g>
</mask>
<g mask="url(#mask7_2370_7615)">
<path id="Vector_16" d="M6.67062 119.095H147" stroke="#3C50A0" stroke-width="1.81031"/>
</g>
</g>
<g id="Mask group_9">
<mask id="mask8_2370_7615" style="mask-type:luminance" maskUnits="userSpaceOnUse" x="-1" y="-1" width="149" height="122">
<g id="Group_9">
<path id="Vector_17" d="M147 0H0V120H147V0Z" fill="white" stroke="#312B73" stroke-width="1.81031"/>
</g>
</mask>
<g mask="url(#mask8_2370_7615)">
<path id="Vector_18" fill-rule="evenodd" clip-rule="evenodd" d="M71.6652 38.1612L76.7019 93.7364L32.9077 97.6916L27.8709 42.1164L71.6652 38.1612Z" fill="white" stroke="#3C50A0" stroke-width="1.81031"/>
</g>
</g>
<g id="Mask group_10">
<mask id="mask9_2370_7615" style="mask-type:luminance" maskUnits="userSpaceOnUse" x="0" y="0" width="147" height="120">
<g id="Group_10">
<path id="Vector_19" d="M147 0H0V120H147V0Z" fill="#8A2377"/>
</g>
</mask>
<g mask="url(#mask9_2370_7615)">
<path id="Vector_20" fill-rule="evenodd" clip-rule="evenodd" d="M74.6373 39.7161L79.674 95.2913L35.8798 99.2465L30.843 43.6713L74.6373 39.7161Z" fill="#3C50A0"/>
</g>
</g>
<g id="Mask group_11">
<mask id="mask10_2370_7615" style="mask-type:luminance" maskUnits="userSpaceOnUse" x="-1" y="-1" width="149" height="122">
<g id="Group_11">
<path id="Vector_21" d="M147 0H0V120H147V0Z" fill="white" stroke="#312B73" stroke-width="1.81031"/>
</g>
</mask>
<g mask="url(#mask10_2370_7615)">
<path id="Vector_22" d="M50.4624 96.1158L45.3147 96.5862L40.2395 41.0012L84.0676 37.0205L84.3576 40.1689L89.1066 92.6055L50.4624 96.1158Z" fill="white" stroke="#3C50A0" stroke-width="1.81031"/>
</g>
</g>
<g id="Mask group_12">
<mask id="mask11_2370_7615" style="mask-type:luminance" maskUnits="userSpaceOnUse" x="0" y="0" width="147" height="120">
<g id="Group_12">
<path id="Vector_23" d="M147 0H0V120H147V0Z" fill="#8A2377"/>
</g>
</mask>
<g mask="url(#mask11_2370_7615)">
<path id="Vector_24" d="M49.2296 96.1158L44.3356 42.702L84.2123 39.1194L89.1063 92.5693L49.2296 96.1158Z" fill="#3C50A0"/>
</g>
</g>
<g id="Mask group_13">
<mask id="mask12_2370_7615" style="mask-type:luminance" maskUnits="userSpaceOnUse" x="-1" y="-1" width="149" height="122">
<g id="Group_13">
<path id="Vector_25" d="M147 0H0V120H147V0Z" fill="white" stroke="#312B73" stroke-width="1.81031"/>
</g>
</mask>
<g mask="url(#mask12_2370_7615)">
<path id="Vector_26" d="M144.063 106.972L143.882 109.542C143.737 111.604 141.924 113.305 139.858 113.305H135.762C136.523 111.858 136.994 110.302 137.139 108.601C137.175 108.058 137.175 107.515 137.139 106.972C136.74 101.182 132.028 96.7672 126.01 96.7672C120.028 96.7672 114.772 101.182 113.576 106.972C113.431 107.515 113.358 108.058 113.322 108.601C113.213 110.302 113.467 111.858 113.974 113.305H66.7749C67.4637 111.858 67.935 110.302 68.0437 108.601C68.08 108.058 68.08 107.515 68.0437 106.972C67.6812 101.218 62.9685 96.7672 56.9508 96.7672C50.933 96.7672 45.6765 101.182 44.5165 106.972C44.3715 107.515 44.299 108.058 44.2627 108.601C44.154 110.302 44.4077 111.858 44.9152 113.305H34.5835C32.481 113.305 30.9221 111.604 31.0671 109.542L31.2484 106.972L32.1184 93.8721C32.2634 91.737 34.076 90.0361 36.1424 90.0361H88.7796L88.8159 89.4571L90.5922 63.8359C90.7372 61.5922 92.7673 59.7466 95.0149 59.8914L109.624 60.4704C110.893 60.5428 112.017 61.158 112.597 62.1713L123.327 79.2159C124.089 80.4101 125.104 81.3872 126.409 82.0386L142.903 90.0361C142.903 90.0361 145.078 91.737 144.933 93.8721L144.063 106.972Z" fill="white" stroke="#3C50A0" stroke-width="1.81031"/>
</g>
</g>
<g id="Mask group_14">
<mask id="mask13_2370_7615" style="mask-type:luminance" maskUnits="userSpaceOnUse" x="-1" y="-1" width="149" height="122">
<g id="Group_14">
<path id="Vector_27" d="M147 0H0V120H147V0Z" fill="white" stroke="#312B73" stroke-width="1.81031"/>
</g>
</mask>
<g mask="url(#mask13_2370_7615)">
<path id="Vector_28" d="M96.7551 81.6767C96.1025 81.6767 95.6313 81.1701 95.6675 80.5187L96.4651 68.649C96.5013 67.9976 97.0451 67.4909 97.6976 67.4909H109.806C110.204 67.4909 110.567 67.7081 110.748 68.0338L117.273 79.9035C117.745 80.6996 117.128 81.6767 116.222 81.6767H96.7551Z" fill="white" stroke="#3C50A0" stroke-width="1.81031"/>
</g>
</g>
<g id="Mask group_15">
<mask id="mask14_2370_7615" style="mask-type:luminance" maskUnits="userSpaceOnUse" x="0" y="0" width="147" height="120">
<g id="Group_15">
<path id="Vector_29" d="M147 0H0V120H147V0Z" fill="#8A2377"/>
</g>
</mask>
<g mask="url(#mask14_2370_7615)">
<path id="Vector_30" d="M96.7551 81.6767C96.1025 81.6767 95.6313 81.1339 95.6675 80.5187L96.5013 68.649C96.5376 67.9976 97.0813 67.4909 97.7339 67.4909H99.3652L98.7489 76.6827C98.7126 77.2979 99.1839 77.8408 99.8364 77.8408H116.186L117.31 79.9035C117.745 80.6634 117.128 81.6767 116.222 81.6767H96.7551Z" fill="#3C50A0"/>
</g>
</g>
<g id="Mask group_16">
<mask id="mask15_2370_7615" style="mask-type:luminance" maskUnits="userSpaceOnUse" x="-1" y="-1" width="149" height="122">
<g id="Group_16">
<path id="Vector_31" d="M147 0H0V120H147V0Z" stroke="#312B73" stroke-width="1.81031"/>
</g>
</mask>
<g mask="url(#mask15_2370_7615)">
<path id="Vector_32" d="M96.7551 81.6767C96.1025 81.6767 95.6313 81.1701 95.6675 80.5187L96.4651 68.649C96.5013 67.9976 97.0451 67.4909 97.6976 67.4909H109.806C110.204 67.4909 110.567 67.7081 110.748 68.0338L117.273 79.9035C117.745 80.6996 117.128 81.6767 116.222 81.6767H96.7551Z" stroke="#3C50A0" stroke-width="1.81031"/>
</g>
</g>
<g id="Mask group_17">
<mask id="mask16_2370_7615" style="mask-type:luminance" maskUnits="userSpaceOnUse" x="-1" y="-1" width="149" height="122">
<g id="Group_17">
<path id="Vector_33" d="M147 0H0V120H147V0Z" fill="white" stroke="#312B73" stroke-width="1.81031"/>
</g>
</mask>
<g mask="url(#mask16_2370_7615)">
<path id="Vector_34" d="M63.3313 112.509C61.7725 115.513 58.6186 117.612 55.1384 117.612C51.6583 117.612 48.7944 115.476 47.7069 112.509C47.3444 111.46 47.1631 110.338 47.2356 109.144C47.5619 104.475 51.5858 100.712 56.2985 100.712C61.0112 100.712 64.5638 104.475 64.2738 109.144C64.2013 110.374 63.8388 111.496 63.3313 112.509Z" fill="white" stroke="#3C50A0" stroke-width="1.81031"/>
</g>
</g>
<g id="Mask group_18">
<mask id="mask17_2370_7615" style="mask-type:luminance" maskUnits="userSpaceOnUse" x="0" y="0" width="147" height="120">
<g id="Group_18">
<path id="Vector_35" d="M147 0H0V120H147V0Z" fill="#8A2377"/>
</g>
</mask>
<g mask="url(#mask17_2370_7615)">
<path id="Vector_36" d="M58.4374 103.534C53.761 103.534 49.7008 107.298 49.3745 112.002C49.302 113.197 49.4833 114.318 49.8458 115.368C49.8821 115.513 49.9546 115.657 50.0271 115.802C49.1208 114.97 48.4683 113.957 48.0332 112.799C47.6707 111.749 47.4532 110.627 47.562 109.397C47.8882 104.729 51.9122 100.965 56.6249 100.965C59.9962 100.965 62.7876 102.883 63.9477 105.706C62.5339 104.33 60.6125 103.534 58.4374 103.534Z" fill="#3C50A0"/>
</g>
</g>
<g id="Mask group_19">
<mask id="mask18_2370_7615" style="mask-type:luminance" maskUnits="userSpaceOnUse" x="-1" y="-1" width="149" height="122">
<g id="Group_19">
<path id="Vector_37" d="M147 0H0V120H147V0Z" fill="white" stroke="#312B73" stroke-width="1.81031"/>
</g>
</mask>
<g mask="url(#mask18_2370_7615)">
<path id="Vector_38" fill-rule="evenodd" clip-rule="evenodd" d="M57.1887 110.712C56.2789 111.555 54.901 111.55 54.111 110.7C53.321 109.851 53.4181 108.479 54.3279 107.636C55.2376 106.793 56.6156 106.798 57.4056 107.647C58.1956 108.497 58.0985 109.869 57.1887 110.712Z" fill="white" stroke="#3C50A0" stroke-width="1.81031"/>
</g>
</g>
<g id="Mask group_20">
<mask id="mask19_2370_7615" style="mask-type:luminance" maskUnits="userSpaceOnUse" x="0" y="0" width="147" height="120">
<g id="Group_20">
<path id="Vector_39" d="M147 0H0V120H147V0Z" fill="#8A2377" fill-opacity="0.35"/>
</g>
</mask>
<g mask="url(#mask19_2370_7615)">
<path id="Vector_40" d="M56.4794 108.239C55.2831 108.239 54.2318 109.216 54.1593 110.41V110.627C53.7605 110.229 53.543 109.686 53.5792 109.035C53.6517 107.841 54.703 106.864 55.9356 106.864C57.0594 106.864 57.9294 107.732 57.9657 108.818C57.6031 108.456 57.0594 108.239 56.4794 108.239Z" fill="#3C50A0"/>
</g>
</g>
<g id="Mask group_21">
<mask id="mask20_2370_7615" style="mask-type:luminance" maskUnits="userSpaceOnUse" x="-1" y="-1" width="149" height="122">
<g id="Group_21">
<path id="Vector_41" d="M147 0H0V120H147V0Z" stroke="#312B73" stroke-width="1.81031"/>
</g>
</mask>
<g mask="url(#mask20_2370_7615)">
<path id="Vector_42" d="M63.3313 112.509C61.7725 115.513 58.6186 117.612 55.1384 117.612C51.6583 117.612 48.7944 115.476 47.7069 112.509C47.3444 111.46 47.1631 110.338 47.2356 109.144C47.5619 104.475 51.5858 100.712 56.2985 100.712C61.0112 100.712 64.5638 104.475 64.2738 109.144C64.2013 110.374 63.8388 111.496 63.3313 112.509Z" stroke="#3C50A0" stroke-width="1.81031"/>
</g>
</g>
<g id="Mask group_22">
<mask id="mask21_2370_7615" style="mask-type:luminance" maskUnits="userSpaceOnUse" x="-1" y="-1" width="149" height="122">
<g id="Group_22">
<path id="Vector_43" d="M147 0H0V120H147V0Z" stroke="#312B73" stroke-width="1.81031"/>
</g>
</mask>
<g mask="url(#mask21_2370_7615)">
<path id="Vector_44" fill-rule="evenodd" clip-rule="evenodd" d="M57.1887 110.712C56.2789 111.555 54.901 111.55 54.111 110.7C53.321 109.851 53.4181 108.479 54.3279 107.636C55.2376 106.793 56.6156 106.798 57.4056 107.647C58.1956 108.497 58.0985 109.869 57.1887 110.712Z" stroke="#3C50A0" stroke-width="1.81031"/>
</g>
</g>
<g id="Mask group_23">
<mask id="mask22_2370_7615" style="mask-type:luminance" maskUnits="userSpaceOnUse" x="-1" y="-1" width="149" height="122">
<g id="Group_23">
<path id="Vector_45" d="M147 0H0V120H147V0Z" fill="white" stroke="#312B73" stroke-width="1.81031"/>
</g>
</mask>
<g mask="url(#mask22_2370_7615)">
<path id="Vector_46" d="M133.007 113.776C131.448 116.779 128.294 118.878 124.814 118.878C121.334 118.878 118.47 116.743 117.382 113.776C117.02 112.726 116.838 111.604 116.911 110.41C117.237 105.742 121.261 101.978 125.974 101.978C130.686 101.942 134.275 105.706 133.949 110.41C133.877 111.641 133.514 112.762 133.007 113.776Z" fill="white" stroke="#3C50A0" stroke-width="1.81031"/>
</g>
</g>
<g id="Mask group_24">
<mask id="mask23_2370_7615" style="mask-type:luminance" maskUnits="userSpaceOnUse" x="0" y="0" width="147" height="120">
<g id="Group_24">
<path id="Vector_47" d="M147 0H0V120H147V0Z" fill="#8A2377" fill-opacity="0.365355"/>
</g>
</mask>
<g mask="url(#mask23_2370_7615)">
<path id="Vector_48" d="M127.823 104.982C123.146 104.982 119.086 108.745 118.76 113.45C118.687 114.644 118.869 115.766 119.231 116.815C119.267 116.96 119.34 117.105 119.412 117.25C118.506 116.417 117.854 115.404 117.419 114.246C117.056 113.197 116.839 112.075 116.947 110.844C117.274 106.176 121.298 102.413 126.01 102.413C129.382 102.413 132.173 104.331 133.333 107.153C131.919 105.778 129.998 104.982 127.823 104.982Z" fill="#3C50A0"/>
</g>
</g>
<g id="Mask group_25">
<mask id="mask24_2370_7615" style="mask-type:luminance" maskUnits="userSpaceOnUse" x="-1" y="-1" width="149" height="122">
<g id="Group_25">
<path id="Vector_49" d="M147 0H0V120H147V0Z" fill="white" stroke="#312B73" stroke-width="1.81031"/>
</g>
</mask>
<g mask="url(#mask24_2370_7615)">
<path id="Vector_50" fill-rule="evenodd" clip-rule="evenodd" d="M126.572 112.143C125.662 112.986 124.284 112.98 123.494 112.131C122.704 111.281 122.801 109.909 123.711 109.066C124.621 108.223 125.999 108.228 126.789 109.078C127.579 109.928 127.482 111.3 126.572 112.143Z" fill="white" stroke="#3C50A0" stroke-width="1.81031"/>
</g>
</g>
<g id="Mask group_26">
<mask id="mask25_2370_7615" style="mask-type:luminance" maskUnits="userSpaceOnUse" x="0" y="0" width="147" height="120">
<g id="Group_26">
<path id="Vector_51" d="M147 0H0V120H147V0Z" fill="#8A2377"/>
</g>
</mask>
<g mask="url(#mask25_2370_7615)">
<path id="Vector_52" d="M125.829 109.686C124.633 109.686 123.581 110.663 123.509 111.858V112.075C123.11 111.677 122.893 111.134 122.929 110.482C123.001 109.288 124.053 108.311 125.285 108.311C126.409 108.311 127.279 109.18 127.315 110.265C126.953 109.903 126.409 109.686 125.829 109.686Z" fill="#3C50A0"/>
</g>
</g>
<g id="Mask group_27">
<mask id="mask26_2370_7615" style="mask-type:luminance" maskUnits="userSpaceOnUse" x="0" y="0" width="147" height="120">
<g id="Group_27">
<path id="Vector_53" d="M147 0H0V120H147V0Z" fill="#8A2377"/>
</g>
</mask>
<g mask="url(#mask26_2370_7615)">
<path id="Vector_54" d="M127.098 104.403C122.421 104.403 118.361 108.166 118.035 112.871C117.962 114.065 118.144 115.187 118.506 116.236C118.542 116.381 118.615 116.526 118.687 116.671C117.781 115.838 117.129 114.825 116.694 113.667C116.331 112.618 116.113 111.496 116.222 110.265C116.549 105.597 120.572 101.834 125.285 101.834C128.657 101.834 131.448 103.752 132.608 106.574C131.194 105.199 129.273 104.403 127.098 104.403Z" fill="#3C50A0"/>
</g>
</g>
<g id="Mask group_28">
<mask id="mask27_2370_7615" style="mask-type:luminance" maskUnits="userSpaceOnUse" x="-1" y="-1" width="149" height="122">
<g id="Group_28">
<path id="Vector_55" d="M147 0H0V120H147V0Z" fill="white" stroke="#312B73" stroke-width="1.81031"/>
</g>
</mask>
<g mask="url(#mask27_2370_7615)">
<path id="Vector_56" fill-rule="evenodd" clip-rule="evenodd" d="M126.572 112.143C125.662 112.986 124.284 112.98 123.494 112.131C122.704 111.281 122.801 109.909 123.711 109.066C124.621 108.223 125.999 108.228 126.789 109.078C127.579 109.928 127.482 111.3 126.572 112.143Z" fill="white" stroke="#3C50A0" stroke-width="1.81031"/>
</g>
</g>
<g id="Mask group_29">
<mask id="mask28_2370_7615" style="mask-type:luminance" maskUnits="userSpaceOnUse" x="0" y="0" width="147" height="120">
<g id="Group_29">
<path id="Vector_57" d="M147 0H0V120H147V0Z" fill="#8A2377" fill-opacity="0.349645"/>
</g>
</mask>
<g mask="url(#mask28_2370_7615)">
<path id="Vector_58" d="M125.829 109.686C124.633 109.686 123.581 110.663 123.509 111.858V112.075C123.11 111.677 122.893 111.134 122.929 110.482C123.001 109.288 124.053 108.311 125.285 108.311C126.409 108.311 127.279 109.18 127.315 110.265C126.953 109.903 126.409 109.686 125.829 109.686Z" fill="#3C50A0"/>
</g>
</g>
<g id="Mask group_30">
<mask id="mask29_2370_7615" style="mask-type:luminance" maskUnits="userSpaceOnUse" x="-1" y="-1" width="149" height="122">
<g id="Group_30">
<path id="Vector_59" d="M147 0H0V120H147V0Z" stroke="#312B73" stroke-width="1.81031"/>
</g>
</mask>
<g mask="url(#mask29_2370_7615)">
<path id="Vector_60" d="M132.97 113.957C131.448 116.96 128.33 119.059 124.85 119.059C121.406 119.059 118.542 116.924 117.418 113.957C117.056 112.907 116.875 111.785 116.947 110.591C117.273 105.923 121.37 102.159 126.01 102.159C130.687 102.159 134.275 105.923 133.949 110.591C133.877 111.821 133.514 112.943 132.97 113.957Z" stroke="#3C50A0" stroke-width="1.81031"/>
</g>
</g>
<g id="Mask group_31">
<mask id="mask30_2370_7615" style="mask-type:luminance" maskUnits="userSpaceOnUse" x="-1" y="-1" width="149" height="122">
<g id="Group_31">
<path id="Vector_61" d="M147 0H0V120H147V0Z" stroke="#312B73" stroke-width="1.81031"/>
</g>
</mask>
<g mask="url(#mask30_2370_7615)">
<path id="Vector_62" fill-rule="evenodd" clip-rule="evenodd" d="M126.572 112.143C125.662 112.986 124.284 112.98 123.494 112.131C122.704 111.281 122.801 109.909 123.711 109.066C124.621 108.223 125.999 108.228 126.789 109.078C127.579 109.928 127.482 111.3 126.572 112.143Z" stroke="#3C50A0" stroke-width="1.81031"/>
</g>
</g>
<g id="Mask group_32">
<mask id="mask31_2370_7615" style="mask-type:luminance" maskUnits="userSpaceOnUse" x="-1" y="-1" width="149" height="122">
<g id="Group_32">
<path id="Vector_63" d="M147 0H0V120H147V0Z" stroke="#312B73" stroke-width="1.81031"/>
</g>
</mask>
<g mask="url(#mask31_2370_7615)">
<path id="Vector_64" d="M132.97 113.957C131.448 116.96 128.33 119.059 124.85 119.059C121.406 119.059 118.542 116.924 117.418 113.957C117.056 112.907 116.875 111.785 116.947 110.591C117.273 105.923 121.37 102.159 126.01 102.159C130.687 102.159 134.275 105.923 133.949 110.591C133.877 111.821 133.514 112.943 132.97 113.957Z" stroke="#3C50A0" stroke-width="1.81031"/>
</g>
</g>
<g id="Mask group_33">
<mask id="mask32_2370_7615" style="mask-type:luminance" maskUnits="userSpaceOnUse" x="-1" y="-1" width="149" height="122">
<g id="Group_33">
<path id="Vector_65" d="M147 0H0V120H147V0Z" stroke="#312B73" stroke-width="1.81031"/>
</g>
</mask>
<g mask="url(#mask32_2370_7615)">
<path id="Vector_66" d="M88.7803 90H44.6984L40.2395 41.0012L84.0676 37.0205L84.3576 40.1689L88.8166 89.421L88.7803 90Z" stroke="#3C50A0" stroke-width="1.81031"/>
</g>
</g>
<g id="Mask group_34">
<mask id="mask33_2370_7615" style="mask-type:luminance" maskUnits="userSpaceOnUse" x="-1" y="-1" width="149" height="122">
<g id="Group_34">
<path id="Vector_67" d="M147 0H0V120H147V0Z" stroke="#312B73" stroke-width="1.81031"/>
</g>
</mask>
<g mask="url(#mask33_2370_7615)">
<path id="Vector_68" d="M115.28 19.4693L114.228 21.1701L106.797 16.6466L110.458 10.6756L112.126 11.6888L117.89 15.1991L115.28 19.4693Z" stroke="#3C50A0" stroke-width="1.81031"/>
</g>
</g>
<g id="Mask group_35">
<mask id="mask34_2370_7615" style="mask-type:luminance" maskUnits="userSpaceOnUse" x="-1" y="-1" width="149" height="122">
<g id="Group_35">
<path id="Vector_69" d="M147 0H0V120H147V0Z" stroke="#312B73" stroke-width="1.81031"/>
</g>
</mask>
<g mask="url(#mask34_2370_7615)">
<path id="Vector_70" d="M65.5785 23.45L61.2645 17.9494L62.7508 16.7551L68.0798 12.5935L71.0162 16.3209L72.43 18.0941L65.5785 23.45Z" stroke="#3C50A0" stroke-width="1.81031"/>
</g>
</g>
<g id="Mask group_36">
<mask id="mask35_2370_7615" style="mask-type:luminance" maskUnits="userSpaceOnUse" x="0" y="0" width="147" height="120">
<g id="Group_36">
<path id="Vector_71" d="M147 0H0V120H147V0Z" fill="#8A2377"/>
</g>
</mask>
<g mask="url(#mask35_2370_7615)">
<path id="Vector_72" d="M44.9152 113.305H34.5835C32.481 113.305 30.9221 111.604 31.0671 109.542L31.2484 106.972H44.5165C44.3715 107.515 44.299 108.058 44.2627 108.601C44.154 110.302 44.4077 111.858 44.9152 113.305Z" fill="#3C50A0"/>
</g>
</g>
<g id="Mask group_37">
<mask id="mask36_2370_7615" style="mask-type:luminance" maskUnits="userSpaceOnUse" x="0" y="0" width="147" height="120">
<g id="Group_37">
<path id="Vector_73" d="M147 0H0V120H147V0Z" fill="#8A2377"/>
</g>
</mask>
<g mask="url(#mask36_2370_7615)">
<path id="Vector_74" d="M113.975 113.305H66.775C67.4638 111.858 67.935 110.302 68.0438 108.601C68.0801 108.058 68.0801 107.515 68.0438 106.972H113.576C113.431 107.515 113.358 108.058 113.322 108.601C113.213 110.302 113.467 111.858 113.975 113.305Z" fill="#3C50A0"/>
</g>
</g>
<g id="Mask group_38">
<mask id="mask37_2370_7615" style="mask-type:luminance" maskUnits="userSpaceOnUse" x="0" y="0" width="147" height="120">
<g id="Group_38">
<path id="Vector_75" d="M147 0H0V120H147V0Z" fill="#4A74EA"/>
</g>
</mask>
<g mask="url(#mask37_2370_7615)">
<path id="Vector_76" d="M143.882 109.542C143.737 111.604 141.924 113.305 139.858 113.305H135.762C136.523 111.858 136.994 110.302 137.139 108.601C137.176 108.058 137.176 107.515 137.139 106.972H144.063L143.882 109.542Z" fill="#3C50A0"/>
</g>
</g>
<g id="Mask group_39">
<mask id="mask38_2370_7615" style="mask-type:luminance" maskUnits="userSpaceOnUse" x="-1" y="-1" width="149" height="122">
<g id="Group_39">
<path id="Vector_77" d="M147 0H0V120H147V0Z" stroke="#312B73" stroke-width="1.81031"/>
</g>
</mask>
<g mask="url(#mask38_2370_7615)">
<path id="Vector_78" d="M144.063 106.972L143.882 109.542C143.737 111.604 141.924 113.305 139.858 113.305H135.762C136.523 111.858 136.994 110.302 137.139 108.601C137.175 108.058 137.175 107.515 137.139 106.972C136.74 101.182 132.028 96.7672 126.01 96.7672C120.028 96.7672 114.772 101.182 113.576 106.972C113.431 107.515 113.358 108.058 113.322 108.601C113.213 110.302 113.467 111.858 113.974 113.305H66.7749C67.4637 111.858 67.935 110.302 68.0437 108.601C68.08 108.058 68.08 107.515 68.0437 106.972C67.6812 101.218 62.9685 96.7672 56.9508 96.7672C50.933 96.7672 45.6765 101.182 44.5165 106.972C44.3715 107.515 44.299 108.058 44.2627 108.601C44.154 110.302 44.4077 111.858 44.9152 113.305H34.5835C32.481 113.305 30.9221 111.604 31.0671 109.542L31.2484 106.972L32.1184 93.8721C32.2634 91.737 34.076 90.0361 36.1424 90.0361H88.7796L88.8159 89.4571L90.5922 63.8359C90.7372 61.5922 92.7673 59.7466 95.0149 59.8914L109.624 60.4704C110.893 60.5428 112.017 61.158 112.597 62.1713L123.327 79.2159C124.089 80.4101 125.104 81.3872 126.409 82.0386L142.903 90.0361C142.903 90.0361 145.078 91.737 144.933 93.8721L144.063 106.972Z" stroke="#3C50A0" stroke-width="1.81031"/>
</g>
</g>
</g>
</svg>
