<svg width="30" height="31" viewBox="0 0 30 31" fill="none" xmlns="http://www.w3.org/2000/svg">
<g clip-path="url(#clip0_2736_5887)">
<path d="M11.4146 6.78369H9.26335C8.50262 6.78369 7.77305 7.08589 7.23513 7.62381C6.69722 8.16172 6.39502 8.8913 6.39502 9.65202L6.39502 11.8033C6.39502 12.564 6.69722 13.2936 7.23513 13.8315C7.77305 14.3694 8.50262 14.6716 9.26335 14.6716H11.4146C12.1753 14.6716 12.9049 14.3694 13.4428 13.8315C13.9807 13.2936 14.2829 12.564 14.2829 11.8033V9.65202C14.2829 8.8913 13.9807 8.16172 13.4428 7.62381C12.9049 7.08589 12.1753 6.78369 11.4146 6.78369ZM12.8488 11.8033C12.8488 12.1836 12.6977 12.5484 12.4287 12.8174C12.1598 13.0863 11.795 13.2374 11.4146 13.2374H9.26335C8.88299 13.2374 8.5182 13.0863 8.24924 12.8174C7.98029 12.5484 7.82919 12.1836 7.82919 11.8033V9.65202C7.82919 9.27166 7.98029 8.90687 8.24924 8.63792C8.5182 8.36896 8.88299 8.21786 9.26335 8.21786H11.4146C11.795 8.21786 12.1598 8.36896 12.4287 8.63792C12.6977 8.90687 12.8488 9.27166 12.8488 9.65202V11.8033Z" fill="#858585"/>
<path d="M20.7366 6.78369H18.5854C17.8246 6.78369 17.0951 7.08589 16.5572 7.62381C16.0192 8.16172 15.717 8.8913 15.717 9.65202V11.8033C15.717 12.564 16.0192 13.2936 16.5572 13.8315C17.0951 14.3694 17.8246 14.6716 18.5854 14.6716H20.7366C21.4974 14.6716 22.2269 14.3694 22.7648 13.8315C23.3028 13.2936 23.605 12.564 23.605 11.8033V9.65202C23.605 8.8913 23.3028 8.16172 22.7648 7.62381C22.2269 7.08589 21.4974 6.78369 20.7366 6.78369ZM22.1708 11.8033C22.1708 12.1836 22.0197 12.5484 21.7507 12.8174C21.4818 13.0863 21.117 13.2374 20.7366 13.2374H18.5854C18.205 13.2374 17.8402 13.0863 17.5713 12.8174C17.3023 12.5484 17.1512 12.1836 17.1512 11.8033V9.65202C17.1512 9.27166 17.3023 8.90687 17.5713 8.63792C17.8402 8.36896 18.205 8.21786 18.5854 8.21786H20.7366C21.117 8.21786 21.4818 8.36896 21.7507 8.63792C22.0197 8.90687 22.1708 9.27166 22.1708 9.65202V11.8033Z" fill="#858585"/>
<path d="M11.4146 16.1057H9.26335C8.50262 16.1057 7.77305 16.4079 7.23513 16.9458C6.69722 17.4837 6.39502 18.2133 6.39502 18.974L6.39502 21.1253C6.39502 21.886 6.69722 22.6156 7.23513 23.1535C7.77305 23.6914 8.50262 23.9936 9.26335 23.9936H11.4146C12.1753 23.9936 12.9049 23.6914 13.4428 23.1535C13.9807 22.6156 14.2829 21.886 14.2829 21.1253V18.974C14.2829 18.2133 13.9807 17.4837 13.4428 16.9458C12.9049 16.4079 12.1753 16.1057 11.4146 16.1057ZM12.8488 21.1253C12.8488 21.5057 12.6977 21.8704 12.4287 22.1394C12.1598 22.4084 11.795 22.5595 11.4146 22.5595H9.26335C8.88299 22.5595 8.5182 22.4084 8.24924 22.1394C7.98029 21.8704 7.82919 21.5057 7.82919 21.1253V18.974C7.82919 18.5937 7.98029 18.2289 8.24924 17.9599C8.5182 17.691 8.88299 17.5399 9.26335 17.5399H11.4146C11.795 17.5399 12.1598 17.691 12.4287 17.9599C12.6977 18.2289 12.8488 18.5937 12.8488 18.974V21.1253Z" fill="#858585"/>
<path d="M20.7366 16.1057H18.5854C17.8246 16.1057 17.0951 16.4079 16.5572 16.9458C16.0192 17.4837 15.717 18.2133 15.717 18.974V21.1253C15.717 21.886 16.0192 22.6156 16.5572 23.1535C17.0951 23.6914 17.8246 23.9936 18.5854 23.9936H20.7366C21.4974 23.9936 22.2269 23.6914 22.7648 23.1535C23.3028 22.6156 23.605 21.886 23.605 21.1253V18.974C23.605 18.2133 23.3028 17.4837 22.7648 16.9458C22.2269 16.4079 21.4974 16.1057 20.7366 16.1057ZM22.1708 21.1253C22.1708 21.5057 22.0197 21.8704 21.7507 22.1394C21.4818 22.4084 21.117 22.5595 20.7366 22.5595H18.5854C18.205 22.5595 17.8402 22.4084 17.5713 22.1394C17.3023 21.8704 17.1512 21.5057 17.1512 21.1253V18.974C17.1512 18.5937 17.3023 18.2289 17.5713 17.9599C17.8402 17.691 18.205 17.5399 18.5854 17.5399H20.7366C21.117 17.5399 21.4818 17.691 21.7507 17.9599C22.0197 18.2289 22.1708 18.5937 22.1708 18.974V21.1253Z" fill="#858585"/>
</g>
<defs>
<clipPath id="clip0_2736_5887">
<rect width="17.21" height="17.21" fill="white" transform="translate(6.39502 6.78369)"/>
</clipPath>
</defs>
</svg>
