<svg width="19" height="24" viewBox="0 0 19 24" fill="none" xmlns="http://www.w3.org/2000/svg">
<g id="mappin.and.ellipse 1" clip-path="url(#clip0_2327_10470)">
<g id="Group">
<path id="Vector" opacity="0.4" d="M18.0303 18.2374C18.0303 20.6207 14.2772 22.2726 9.02373 22.2726C3.7666 22.2726 0 20.6207 0 18.2374C0 16.238 2.66605 14.7515 6.64815 14.3345V15.5305C3.61422 15.8847 1.4836 16.9188 1.4836 18.2374C1.4836 19.8924 4.78526 21.0929 9.01699 21.0929C13.2383 21.0929 16.5504 19.8759 16.5504 18.2374C16.5504 16.9276 14.4085 15.8865 11.3724 15.5304V14.3319C15.3628 14.7454 18.0303 16.2339 18.0303 18.2374Z" fill="#1C2B55"/>
<path id="Vector_2" d="M12.3007 4.98116C12.3007 6.56671 11.1863 7.89396 9.69143 8.19074V15.55C9.69143 17.7776 9.31379 18.9466 9.01701 18.9466C8.71653 18.9466 8.33889 17.7648 8.33889 15.55V8.19074C6.84094 7.88722 5.72961 6.56671 5.72961 4.98116C5.72961 3.16554 7.18791 1.68097 9.01701 1.68097C10.8424 1.68097 12.3007 3.16554 12.3007 4.98116ZM6.91516 3.98937C6.91516 4.60031 7.44358 5.12267 8.03801 5.12267C8.65569 5.12267 9.1676 4.60031 9.1676 3.98937C9.1676 3.38214 8.65569 2.86651 8.03801 2.86651C7.44358 2.86651 6.91516 3.38214 6.91516 3.98937Z" fill="#1C2B55"/>
</g>
</g>
<defs>
<clipPath id="clip0_2327_10470">
<rect width="18.3916" height="23.7998" fill="white"/>
</clipPath>
</defs>
</svg>
