<svg width="21" height="18" viewBox="0 0 21 18" fill="none" xmlns="http://www.w3.org/2000/svg">
<path d="M7.84811 16.8559V10.8008C7.84811 10.6051 7.90682 10.4486 8.02423 10.3312C8.14723 10.2138 8.30658 10.1551 8.50226 10.1551H12.0246C12.2203 10.1551 12.3768 10.2138 12.4942 10.3312C12.6117 10.4486 12.6704 10.6051 12.6704 10.8008V16.8559H7.84811ZM4.56899 17.9461C3.93161 17.9461 3.43401 17.7728 3.07619 17.4262C2.71836 17.0795 2.53945 16.5987 2.53945 15.9837V6.68305L4.19159 5.55925V15.4721C4.19159 15.7405 4.26148 15.9446 4.40126 16.0843C4.54103 16.2297 4.74231 16.3024 5.00509 16.3024H15.4798C15.7426 16.3024 15.9411 16.2297 16.0753 16.0843C16.2151 15.9446 16.2849 15.7405 16.2849 15.4721V5.55925L17.9287 6.68305V15.9837C17.9287 16.5987 17.7526 17.0795 17.4003 17.4262C17.0481 17.7728 16.5533 17.9461 15.9159 17.9461H4.56899ZM0.0234984 8.47776C0.0234984 8.21498 0.132523 7.99414 0.350572 7.81523L9.08932 0.47703C9.45273 0.175115 9.8469 0.024158 10.2718 0.024158C10.6967 0.024158 11.0881 0.175115 11.4459 0.47703L20.1763 7.81523C20.3943 7.99414 20.5034 8.22337 20.5034 8.50292C20.5034 8.74333 20.4195 8.93343 20.2518 9.0732C20.0896 9.21298 19.8883 9.28287 19.6479 9.28287C19.5193 9.28287 19.3963 9.25211 19.2789 9.19061C19.1615 9.12911 19.0525 9.05923 18.9519 8.98095L10.6324 1.99499C10.515 1.89435 10.3948 1.84403 10.2718 1.84403C10.1488 1.84403 10.0286 1.89435 9.91119 1.99499L1.58339 8.98095C1.47716 9.05923 1.36534 9.12911 1.24793 9.19061C1.13611 9.25211 1.0159 9.28287 0.887309 9.28287C0.618941 9.28287 0.406482 9.20459 0.249934 9.04804C0.098977 8.8859 0.0234984 8.69581 0.0234984 8.47776ZM15.5553 4.4103V2.35561C15.5553 2.1711 15.6112 2.02294 15.723 1.91112C15.8405 1.79371 15.9914 1.73501 16.1759 1.73501H17.3165C17.501 1.73501 17.6491 1.79371 17.761 1.91112C17.8728 2.02294 17.9287 2.1711 17.9287 2.35561V6.40629L15.5553 4.4103Z" fill="#007AFF"/>
</svg>
